<?xml version="1.0" encoding="UTF-8" standalone="no"?>
<svg xmlns:rdf="http://www.w3.org/1999/02/22-rdf-syntax-ns#" xmlns="http://www.w3.org/2000/svg" height="48" width="48" version="1.1" xmlns:cc="http://creativecommons.org/ns#" xmlns:dc="http://purl.org/dc/elements/1.1/" viewBox="0 0 48 48">
<g transform="matrix(.87107 0 0 .89984 3.0563 -901.41)">
<g transform="matrix(-1,0,0,1,48,0)">
<path style="color-rendering:auto;text-decoration-color:#000000;color:#000000;shape-rendering:auto;solid-color:#000000;text-decoration-line:none;fill:#000000;mix-blend-mode:normal;block-progression:tb;text-indent:0;image-rendering:auto;white-space:normal;text-decoration-style:solid;isolation:auto;text-transform:none" d="m17.961 1018.4c-1.2463 0.056-1.897 1.2526-2.7557 1.9861-2.2833 2.2907-4.5851 4.5703-6.8569 6.8677-0.71241 0.9302-0.34195 2.2916 0.58243 2.9246 2.6017 2.596 5.1921 5.2035 7.8007 7.7922 1.1457 1.0774 3.2494 0.2005 3.2907-1.3717 0.10775-1.331-1.1721-2.0404-1.9358-2.921-1.0861-1.0862-2.1723-2.1723-3.2584-3.2584 7.7905 0 15.581 0.01 23.372-0.01 1.5716-0.057 2.4275-2.1694 1.3387-3.3043-0.86442-1.0057-2.2597-0.6067-3.416-0.6885h-21.294c1.6067-1.6373 3.2787-3.2164 4.8431-4.8915 0.93789-1.2887-0.11595-3.2211-1.7103-3.128z"/>
</g>
</g>
</svg>
