<?xml version="1.0" encoding="UTF-8" standalone="no"?>
<svg xmlns:rdf="http://www.w3.org/1999/02/22-rdf-syntax-ns#" xmlns="http://www.w3.org/2000/svg" height="48" width="48" version="1.1" xmlns:cc="http://creativecommons.org/ns#" xmlns:dc="http://purl.org/dc/elements/1.1/" viewBox="0 0 48 48">
<path style="color-rendering:auto;text-decoration-color:#000000;color:#000000;shape-rendering:auto;solid-color:#000000;text-decoration-line:none;fill:#000000;mix-blend-mode:normal;block-progression:tb;text-indent:0;image-rendering:auto;white-space:normal;text-decoration-style:solid;isolation:auto;text-transform:none" d="m23.996 18c-1.0656-0.01516-1.6529 0.95016-2.3536 1.5902-2.3975 2.4302-4.8134 4.8432-7.1994 7.2842-0.88441 1.0016-0.29994 2.7694 1.0072 3.0465 0.85222 0.25723 1.6576-0.23899 2.1893-0.86877 2.1247-2.1456 4.2493-4.2912 6.374-6.4368 2.284 2.2998 4.5507 4.6176 6.8457 6.906 0.99247 0.89469 2.7662 0.32846 3.0567-0.9758 0.26608-0.84978-0.22214-1.6603-0.84668-2.1985-2.6165-2.6347-5.2153-5.2878-7.8429-7.9109-0.342-0.284-0.785-0.441-1.23-0.436z"/>
</svg>
