<?xml version="1.0" encoding="UTF-8" standalone="no"?>
<svg xmlns:rdf="http://www.w3.org/1999/02/22-rdf-syntax-ns#" xmlns="http://www.w3.org/2000/svg" height="48" width="48" version="1.1" xmlns:cc="http://creativecommons.org/ns#" xmlns:dc="http://purl.org/dc/elements/1.1/" viewBox="0 0 48 48">
<path style="color-rendering:auto;text-decoration-color:#000000;color:#000000;shape-rendering:auto;solid-color:#000000;text-decoration-line:none;fill:#000000;mix-blend-mode:normal;block-progression:tb;text-indent:0;image-rendering:auto;white-space:normal;text-decoration-style:solid;isolation:auto;text-transform:none" d="m19.896 14c-1.3352-0.04976-2.3327 1.5223-1.719 2.7091 0.50659 0.84262 1.3457 1.4238 2.0004 2.1486l5.2068 5.156c-2.2998 2.2841-4.6176 4.5507-6.906 6.8457-0.89469 0.99247-0.32846 2.7662 0.9758 3.0567 0.85002 0.26618 1.6606-0.22241 2.1989-0.84708 2.6346-2.6163 5.2875-5.2151 7.9106-7.8425 0.85848-0.97292 0.33026-2.4053-0.63903-3.0738-2.6-2.57-5.188-5.152-7.797-7.713-0.341-0.286-0.785-0.445-1.231-0.441z"/>
</svg>
