<?xml version="1.0" encoding="UTF-8" standalone="no"?>
<svg xmlns:rdf="http://www.w3.org/1999/02/22-rdf-syntax-ns#" xmlns="http://www.w3.org/2000/svg" height="48" width="48" version="1.1" xmlns:cc="http://creativecommons.org/ns#" xmlns:dc="http://purl.org/dc/elements/1.1/" viewBox="0 0 48 48">
<path style="color-rendering:auto;text-decoration-color:#000000;color:#000000;shape-rendering:auto;solid-color:#000000;text-decoration-line:none;fill:#000000;mix-blend-mode:normal;block-progression:tb;text-indent:0;image-rendering:auto;white-space:normal;text-decoration-style:solid;isolation:auto;text-transform:none" d="m15.914 18c-1.3347-0.06171-2.3463 1.5014-1.7432 2.6937 0.42131 0.72859 1.1167 1.245 1.6784 1.8639 2.3187 2.3332 4.6199 4.6848 6.9496 7.0065 0.97313 0.85858 2.4057 0.33009 3.074-0.63962 2.5589-2.5948 5.1367-5.1717 7.6839-7.7774 0.88386-1.0021 0.29838-2.7696-1.009-3.0459-1.1371-0.34776-1.9808 0.61113-2.6674 1.3534-1.9561 1.9763-3.9129 3.9518-5.8687 5.9283-2.292-2.307-4.572-4.629-6.872-6.929-0.338-0.289-0.78-0.452-1.226-0.453z"/>
</svg>
