<?xml version="1.0" encoding="UTF-8" standalone="no"?>
<svg xmlns:rdf="http://www.w3.org/1999/02/22-rdf-syntax-ns#" xmlns="http://www.w3.org/2000/svg" fill="#000000" height="48" width="48" version="1.1" xmlns:cc="http://creativecommons.org/ns#" xmlns:dc="http://purl.org/dc/elements/1.1/" viewBox="0 0 24 24">
<path d="m0 0h24v24h-24z" fill="none"/>
<path style="fill:#000000" d="m12 2.5c-5.244 0-9.5 4.256-9.5 9.5s4.256 9.5 9.5 9.5 9.5-4.256 9.5-9.5-4.256-9.5-9.5-9.5zm0.95 14.25c-0.19388 0.60292-1.7149 0.60568-1.9 0-0.42458-1.3894-0.46099-4.4005 0-5.7 0.21176-0.59688 1.7347-0.61137 1.9 0 0.35055 1.2962 0.44578 4.3138 0 5.7zm0-7.6c-0.44783 0.44783-1.4521 0.44783-1.9 0-0.44783-0.44783-0.44783-1.4521 0-1.9 0.44783-0.44783 1.4521-0.44783 1.9 0 0.44783 0.44783 0.44783 1.4521 0 1.9z"/>
</svg>
