<?xml version="1.0" encoding="UTF-8" standalone="no"?>
<svg xmlns:rdf="http://www.w3.org/1999/02/22-rdf-syntax-ns#" xmlns="http://www.w3.org/2000/svg" height="48" width="48" version="1.1" xmlns:cc="http://creativecommons.org/ns#" xmlns:dc="http://purl.org/dc/elements/1.1/" viewBox="0 0 48 48">
<path style="opacity:0.967;fill-rule:evenodd;fill:#000000" d="m24.076 5.0154c-7.721-0.3434-14.853 5.0966-17.67 12.099-1.7916 4.207-1.8693 9.061-0.2427 13.331 2.6251 8.144 11.503 13.215 19.852 12.485 4.786-0.334 9.221-2.871 12.426-6.356 6.504-7.385 6.069-20-1.433-26.548-3.541-3.1492-8.169-5.0449-12.932-5.0107zm-7.9218 9.4958c1.4627 0.25586 2.1784 1.734 3.2629 2.6057 1.553 1.5518 3.106 3.1036 4.6591 4.6553 2.4427-2.3523 4.7223-4.8991 7.2719-7.125 1.9971-0.79025 3.0809 2.2548 1.1773 3.1554-2.0738 2.0648-4.1422 4.1356-6.2125 6.2045 2.363 2.4343 4.8855 4.7328 7.1452 7.2554 0.85226 1.8878-2.0723 3.1728-3.0242 1.3307-2.1181-2.1175-4.2359-4.2363-6.3575-6.3512-2.4359 2.3609-4.737 4.88-7.2608 7.1382-1.888 0.85348-3.1775-2.0684-1.3338-3.0203 2.1193-2.118 4.24-4.2347 6.3579-6.354-2.3528-2.4219-4.8591-4.7109-7.1101-7.2183-0.52541-0.98642 0.30004-2.3338 1.4242-2.2768z"/>
</svg>
