<?xml version="1.0" encoding="UTF-8" standalone="no"?>
<svg xmlns:rdf="http://www.w3.org/1999/02/22-rdf-syntax-ns#" xmlns="http://www.w3.org/2000/svg" fill="#000000" height="48" width="48" version="1.1" xmlns:cc="http://creativecommons.org/ns#" xmlns:dc="http://purl.org/dc/elements/1.1/" viewBox="0 0 48 48">
<path style="fill:#000000" d="m24 5c-10.488 0-19 8.512-19 19s8.512 19 19 19 19-8.512 19-19-8.512-19-19-19zm1.9 28.5c-0.38776 1.2058-3.4298 1.2114-3.8 0-0.84916-2.7788-0.92198-8.801 0-11.4 0.42352-1.1938 3.4694-1.2227 3.8 0 0.7011 2.5924 0.89156 8.6276 0 11.4zm0-15.2c-0.89566 0.89566-2.9042 0.89566-3.8 0-0.89566-0.89566-0.89566-2.9042 0-3.8 0.89566-0.89566 2.9042-0.89566 3.8 0 0.89566 0.89566 0.89566 2.9042 0 3.8z"/>
</svg>
