<?xml version="1.0" encoding="UTF-8" standalone="no"?>
<svg xmlns:rdf="http://www.w3.org/1999/02/22-rdf-syntax-ns#" xmlns="http://www.w3.org/2000/svg" height="48" width="48" version="1.1" xmlns:cc="http://creativecommons.org/ns#" xmlns:dc="http://purl.org/dc/elements/1.1/" viewBox="0 0 48 48">
<path style="color-rendering:auto;fill-rule:evenodd;color:#000000;isolation:auto;mix-blend-mode:normal;text-decoration-color:#000000;shape-rendering:auto;solid-color:#000000;block-progression:tb;text-decoration-line:none;image-rendering:auto;white-space:normal;text-indent:0;text-transform:none;text-decoration-style:solid;fill:#000000" d="m24.062 8.394c-1.26 0.0978-1.566 1.5278-2.2399 2.3845-5.5339 8.9116-11.07 17.822-16.605 26.737-0.84482 1.5316 0.97152 2.2937 2.2065 2.0446h34.321c1.7395-0.09108 1.419-2.0446 0.55477-2.9665-5.709-9.194-11.419-18.383-17.127-27.573-0.234-0.381-0.664-0.625-1.11-0.6266zm-0.0294 8.7636c2.3699-0.1964 2.1114 2.7141 2.3633 4.3047 0.12208 2.4711 0.26489 5.0959-0.68768 7.4266-1.1699 1.232-3.7731 0.63632-3.7987-1.2725-0.6354-3.1665-0.37523-6.4824 0.36461-9.6072 0.24247-0.69758 1.1221-0.83828 1.7575-0.85216zm0.0124 13.491c1.6957-0.18538 2.7985 1.6406 2.3075 3.1623-0.42979 2.3391-4.5025 2.1739-4.6643-0.24555-0.31681-1.5298 0.7186-3.0453 2.3575-2.9171z"/>
</svg>
