<?xml version="1.0" encoding="UTF-8" standalone="no"?>
<svg xmlns:rdf="http://www.w3.org/1999/02/22-rdf-syntax-ns#" xmlns="http://www.w3.org/2000/svg" height="48" width="48" version="1.1" xmlns:cc="http://creativecommons.org/ns#" xmlns:dc="http://purl.org/dc/elements/1.1/" viewBox="0 0 48 48">
<path style="fill-rule:evenodd;fill:#000000" d="m41.345 11.485a1.6287 1.6287 0 0 0 -1.6031 1.6498v0.3562l-31.519 6.8939a1.6287 1.6287 0 0 0 -1.6201 -1.2999 1.6287 1.6287 0 0 0 -1.6031 1.6497v6.5143a1.6287 1.6287 0 0 0 3.2232 0.3477l3.713 0.8122c-0.4349 1.4488-0.27805 3.053 0.53225 4.4149 1.2687 2.1324 3.8184 3.1602 6.211 2.5022 2.1441-0.5896 3.6941-2.4105 3.9951-4.5676l17.068 3.7343v0.3562a1.6287 1.6287 0 1 0 3.2571 0v-21.714a1.6287 1.6287 0 0 0 -1.654 -1.6498zm-27.278 17.39 6.4739 1.4165c-0.12108 1.3872-1.0727 2.564-2.4365 2.9391-1.4599 0.4014-2.9961-0.215-3.7703-1.5162-0.52495-0.8824-0.59597-1.9208-0.26719-2.8394z"/>
</svg>
