<?xml version="1.0" encoding="UTF-8" standalone="no"?>
<svg xmlns:rdf="http://www.w3.org/1999/02/22-rdf-syntax-ns#" xmlns="http://www.w3.org/2000/svg" height="48" width="48" version="1.1" xmlns:cc="http://creativecommons.org/ns#" xmlns:dc="http://purl.org/dc/elements/1.1/" viewBox="0 0 48 48">
<path style="fill-rule:evenodd;fill:#000000" d="m25.434 40.86c0.51124 0 1.0223-0.19615 1.4141-0.58789l12.729-12.728c0.0068-0.0066 0.0148-0.01089 0.02148-0.01758l2.1211-2.1211c0.78347-0.78347 0.78347-2.0447 0-2.8281l-14.849-14.85c-0.78348-0.78348-2.0447-0.78348-2.8281 0l-2.1211 2.1211c-0.78347 0.78348-0.78347 2.0466 0 2.8301l7.8105 7.8105h-22.037c-1.108 0-2 0.892-2 2v3c0.000001 1.108 0.892 2 2 2h22.037l-7.832 7.832c-0.78348 0.78347-0.78348 2.0466 0 2.8301l2.1211 2.1211c0.391 0.393 0.902 0.589 1.413 0.589z"/>
</svg>
