<?xml version="1.0" encoding="UTF-8" standalone="no"?>
<svg xmlns:rdf="http://www.w3.org/1999/02/22-rdf-syntax-ns#" xmlns="http://www.w3.org/2000/svg" height="48" width="48" version="1.1" xmlns:cc="http://creativecommons.org/ns#" xmlns:dc="http://purl.org/dc/elements/1.1/" viewBox="0 0 48 48">
<path style="fill:#000000" d="m23.971 4.9998c-0.52 0.01-1.017 0.2167-1.385 0.584l-5.996 6.0022c-1.259 1.26-0.369 3.413 1.412 3.414h3.498v6.5h-6.5v-3.498c-0.001-1.78-2.154-2.671-3.414-1.412l-6.002 5.996c-0.3673 0.368-0.574 0.865-0.584 1.385-0.0083 0.54 0.2024 1.061 0.584 1.443l6.002 5.996c1.26 1.259 3.413 0.369 3.414-1.412v-3.498h6.5v6.5h-3.498c-1.781 0.001-2.671 2.154-1.412 3.414l5.996 6.002c0.368 0.367 0.865 0.574 1.385 0.584 0.54 0.008 1.061-0.202 1.443-0.584l5.996-6.002c1.259-1.26 0.369-3.413-1.412-3.414h-3.498v-6.5h6.5v3.498c0.001 1.781 2.154 2.671 3.414 1.412l6.002-5.996c0.382-0.382 0.592-0.903 0.584-1.443-0.01-0.52-0.217-1.017-0.584-1.385l-6.002-5.996c-1.26-1.259-3.413-0.368-3.414 1.412v3.498h-6.5v-6.5h3.498c1.781-0.001 2.671-2.154 1.412-3.414l-5.996-6.0022c-0.382-0.3816-0.903-0.5923-1.443-0.584z"/>
</svg>
