<?xml version="1.0" encoding="UTF-8" standalone="no"?>
<svg xmlns:rdf="http://www.w3.org/1999/02/22-rdf-syntax-ns#" xmlns="http://www.w3.org/2000/svg" height="48" width="48" version="1.1" xmlns:cc="http://creativecommons.org/ns#" xmlns:dc="http://purl.org/dc/elements/1.1/" viewBox="0 0 48 48">
<path style="fill-rule:evenodd;fill:#000000" d="m22.567 7.1396c-0.51124 0-1.0223 0.19615-1.4141 0.58789l-12.729 12.728c-0.00676 0.0066-0.014799 0.01089-0.021484 0.01758l-2.1211 2.1211c-0.78347 0.78347-0.78347 2.0447 0 2.8281l14.85 14.849c0.78348 0.78348 2.0447 0.78348 2.8281 0l2.1211-2.1211c0.78347-0.78348 0.78347-2.0466 0-2.8301l-7.8105-7.8105h22.037c1.108 0 2-0.892 2-2v-3c-0.000001-1.108-0.892-2-2-2h-22.037l7.832-7.832c0.78348-0.78347 0.78348-2.0466 0-2.8301l-2.1211-2.1211c-0.39174-0.39174-0.90282-0.58789-1.4141-0.58789z"/>
</svg>
