<?xml version="1.0" encoding="UTF-8" standalone="no"?>
<svg xmlns:rdf="http://www.w3.org/1999/02/22-rdf-syntax-ns#" xmlns="http://www.w3.org/2000/svg" height="48" width="48" version="1.1" xmlns:cc="http://creativecommons.org/ns#" xmlns:dc="http://purl.org/dc/elements/1.1/" viewBox="0 0 48 48">
<path style="fill-rule:evenodd;fill:#000000" d="m7.1403 25.434c0 0.51124 0.19615 1.0223 0.58789 1.4141l12.729 12.728c0.0066 0.0068 0.01089 0.0148 0.01758 0.02148l2.1211 2.1211c0.78347 0.78347 2.0447 0.78347 2.8281 0l14.849-14.849c0.78348-0.78348 0.78348-2.0447 0-2.8281l-2.1211-2.1211c-0.78348-0.78347-2.0466-0.78347-2.8301 0l-7.8105 7.8105v-22.037c0-1.108-0.892-2-2-2h-3c-1.108 0.000001-2 0.892-2 2v22.037l-7.832-7.832c-0.78347-0.78348-2.0466-0.78348-2.8301 0l-2.1211 2.1211c-0.39174 0.39174-0.58789 0.90282-0.58789 1.4141z"/>
</svg>
