<?xml version="1.0" encoding="UTF-8" standalone="no"?>
<svg xmlns:rdf="http://www.w3.org/1999/02/22-rdf-syntax-ns#" xmlns="http://www.w3.org/2000/svg" height="48" width="48" version="1.1" xmlns:cc="http://creativecommons.org/ns#" xmlns:dc="http://purl.org/dc/elements/1.1/" viewBox="0 0 48 48">
<path style="fill:#000000" d="m40.198 7.802c3.736 3.736 3.736 9.8494 0 13.585l-6.4049 6.4049-4.5679 4.5679c-2.2887 2.2887-6.0716 2.2887-8.3602 0-2.2887-2.2887-2.2887-6.0716 0-8.3602l6.6927-6.6927 1.4063-1.4063c0.72368-0.72368 1.8889-0.72368 2.6126 0l0.52252 0.52252c0.72368 0.72368 0.72368 1.8889 0 2.6126l-1.569 1.567-6.531 6.531c-0.60606 0.60606-0.60606 1.484 0 2.0901 0.60606 0.60606 1.484 0.60606 2.0901 0l6.6927-6.6927 4.2801-4.2801c2.0534-2.0534 2.0534-5.2618 0-7.3152s-5.2618-2.0534-7.3152 0l-18.811 18.811c-2.0534 2.0534-2.0534 5.2618 0 7.3152s5.2618 2.0534 7.3152 0l0.26126-0.26126 0.7552-0.7552 0.81235-0.81235c0.72368-0.72368 1.8889-0.72368 2.6126 0l0.52252 0.52252c0.72368 0.72368 0.72368 1.8889 0 2.6126l-0.81235 0.81235-0.7552 0.7552-0.26126 0.26126c-3.736 3.736-9.8494 3.736-13.585 0-3.736-3.736-3.736-9.8494 0-13.585l18.81-18.812c3.736-3.736 9.8494-3.736 13.585 0z"/>
</svg>
