<?xml version="1.0" encoding="UTF-8" standalone="no"?>
<svg xmlns:rdf="http://www.w3.org/1999/02/22-rdf-syntax-ns#" xmlns="http://www.w3.org/2000/svg" height="48" width="48" version="1.1" xmlns:cc="http://creativecommons.org/ns#" xmlns:dc="http://purl.org/dc/elements/1.1/" viewBox="0 0 48 48">
<path style="fill:#000000" d="m24 5c-1.68 0-3.039 1.3595-3.039 3.0391v0.4453c-4.394 1.3085-7.602 5.3756-7.602 10.196v4.191c0 2.016-0.395 3.989-1.134 5.822-0.772 1.573-2.022 3.16-4.0863 5.047-0.679 0.642-0.8594 0.821-0.8594 1.66 0 0.84 0.682 1.52 1.5215 1.52h30.398c0.84 0 1.522-0.68 1.522-1.52 0-0.839-0.181-1.018-0.86-1.66-2.064-1.887-3.314-3.474-4.086-5.047-0.739-1.833-1.134-3.806-1.134-5.822v-4.191c0-4.82-3.208-8.8871-7.602-10.196v-0.4449c0-1.6796-1.359-3.0391-3.039-3.0391zm-4.561 33.439c0 2.519 2.042 4.561 4.561 4.561s4.561-2.042 4.561-4.561h-9.122z"/>
</svg>
