<?xml version="1.0" encoding="UTF-8" standalone="no"?>
<svg xmlns:rdf="http://www.w3.org/1999/02/22-rdf-syntax-ns#" xmlns="http://www.w3.org/2000/svg" height="48" width="48" version="1.1" xmlns:cc="http://creativecommons.org/ns#" xmlns:dc="http://purl.org/dc/elements/1.1/" viewBox="0 0 48 48">
<path style="fill:#000000" d="m24 5c-1.68 0-3.039 1.3595-3.039 3.0391v0.4453c-4.394 1.3085-7.602 5.3746-7.602 10.196v4.191c0 2.016-0.395 3.989-1.134 5.822-0.772 1.573-2.022 3.16-4.0863 5.047-0.679 0.642-0.8594 0.821-0.8594 1.66 0 0.84 0.682 1.52 1.5215 1.52h30.398c0.84 0 1.522-0.68 1.522-1.52 0-0.839-0.181-1.018-0.86-1.66-2.064-1.887-3.314-3.474-4.086-5.047-0.739-1.833-1.134-3.806-1.134-5.822v-4.191c0-4.82-3.208-8.8867-7.602-10.196v-0.4449c0-1.6796-1.359-3.0391-3.039-3.0391zm-1.998 7.98c0.054-0.004 0.11-0.002 0.164 0.006 1.298 0.003 2.597-0.005 3.895 0.004 0.386 0.035 0.714 0.436 0.687 0.862-0.119 3.483-0.228 6.965-0.353 10.449-0.055 0.51-0.534 0.848-0.985 0.779-1.025-0.003-2.05 0.005-3.076-0.004-0.471-0.042-0.79-0.559-0.744-1.051-0.113-3.42-0.234-6.838-0.34-10.259 0.015-0.436 0.371-0.758 0.752-0.786zm1.908 14.02c0.778-0.028 1.567 0.281 2.047 0.936 0.349 0.437 0.543 0.993 0.541 1.552 0.062 1.621-1.711 2.925-3.24 2.389-1.566-0.421-2.29-2.496-1.324-3.799 0.432-0.686 1.199-1.05 1.976-1.078zm-4.471 11.439c0 2.519 2.042 4.561 4.561 4.561s4.561-2.042 4.561-4.561h-9.122z"/>
</svg>
