<?xml version="1.0" encoding="UTF-8" standalone="no"?>
<svg xmlns:rdf="http://www.w3.org/1999/02/22-rdf-syntax-ns#" xmlns="http://www.w3.org/2000/svg" height="48" width="48" version="1.1" xmlns:cc="http://creativecommons.org/ns#" xmlns:dc="http://purl.org/dc/elements/1.1/" viewBox="0 0 48 48">
<path style="fill:#000000" d="m9.5 5c-0.8284 0-1.5 0.6716-1.5 1.5s0.6716 1.5 1.5 1.5h2.5v32h-2.5c-0.8284 0-1.5 0.672-1.5 1.5s0.6716 1.5 1.5 1.5h16.129c4.6417 0 8.1986-0.94858 10.668-2.8477 2.469-1.917 3.703-4.665 3.703-8.242 0-2.821-0.90896-5.0346-2.7285-6.6387-1.8196-1.6041-4.3631-2.433-7.6309-2.4883 2.6736-0.70063 4.6964-1.7976 6.0703-3.291 1.3739-1.5119 2.0605-3.3843 2.0605-5.6152 0-2.95-1.0572-5.1617-3.1738-6.6367-2.117-1.4932-5.273-2.24-9.469-2.24h-15.629zm12.48 3.043c2.6922-1e-7 4.6886 0.53413 5.9883 1.6035s1.9492 2.7094 1.9492 4.9219c0 2.526-0.70611 4.3894-2.1172 5.5879-1.3925 1.18-3.5742 1.7695-6.5449 1.7695h-0.97461c-0.2228-0.01844-0.4081-0.03625-0.55664-0.05469l-0.02734-13.719h0.16602c0.96548-0.07375 1.6716-0.10938 2.1172-0.10938zm1.4766 17.008c2.8593 0 5.0039 0.59843 6.4336 1.7969 1.4296 1.18 2.1445 2.9792 2.1445 5.3945 0 2.6735-0.76072 4.6171-2.2832 5.834-1.5225 1.1984-3.9548 1.7988-7.2969 1.7988-0.55701 0-1.4114-0.02867-2.5625-0.08398l-0.19531-0.02734v-14.602c0.55701-0.03687 1.1129-0.06555 1.6699-0.08398 0.55701-0.01845 1.2543-0.02734 2.0898-0.02734z"/>
</svg>
