<?xml version="1.0" encoding="UTF-8" standalone="no"?>
<svg xmlns:rdf="http://www.w3.org/1999/02/22-rdf-syntax-ns#" xmlns="http://www.w3.org/2000/svg" height="48" width="48" version="1.1" xmlns:cc="http://creativecommons.org/ns#" xmlns:dc="http://purl.org/dc/elements/1.1/" viewBox="0 0 48 48">
<path style="fill:#000000" d="m8 5a1 0.977 0 0 0 -1 0.9766 1 0.977 0 0 0 1 0.9765h2.4c1.718 0 2.577 0.7389 2.577 2.2129v30.389c0 0.48-0.259 0.856-0.774 1.131-0.481 0.24-1.151 0.361-2.01 0.361h-2.193a1 0.977 0 0 0 -1 0.976 1 0.977 0 0 0 1 0.977h18.268c4.499 0 8.07-0.959 10.714-2.879 2.679-1.92 4.018-4.355 4.018-7.303 0-4.97-3.59-8.227-10.768-9.769 2.885-0.891 5.05-2.075 6.493-3.549 1.476-1.508 2.214-3.324 2.214-5.449 0-2.743-1.082-4.9368-3.246-6.5822-2.129-1.6455-5.065-2.4688-8.808-2.4688h-18.885zm15.072 1.9531c3.606 0 6.079 0.4301 7.418 1.2871 1.58 0.9942 2.371 2.9478 2.371 5.8618 0 5.553-2.421 8.33-7.263 8.33h-7.213v-13.575c0-1.0966 0.377-1.681 1.133-1.7496 0.755-0.1028 1.94-0.1543 3.554-0.1543zm-4.687 17.432h7.83c2.679 0 4.774 0.739 6.285 2.213s2.268 3.513 2.268 6.119c0 5.553-2.99 8.33-8.965 8.33h-4.637c-1.855 0-2.781-0.687-2.781-2.059v-14.603z"/>
</svg>
