<?xml version="1.0" encoding="UTF-8" standalone="no"?>
<svg xmlns:rdf="http://www.w3.org/1999/02/22-rdf-syntax-ns#" xmlns="http://www.w3.org/2000/svg" height="48" width="48" version="1.1" xmlns:cc="http://creativecommons.org/ns#" xmlns:dc="http://purl.org/dc/elements/1.1/" viewBox="0 0 48 48">
<path style="fill:#000000" d="m13.359 5c-2.518 0-4.5582 2.042-4.5582 4.5605v28.076 0.044c-0.0003 0.016-0.0003 0.031 0 0.047 0.0359 1.136 0.3956 2.268 1.0742 3.244 0.679 0.975 1.75 1.815 3.117 2.008 0.069 0.009 0.138 0.013 0.207 0.013 8.162 0.014 16.324 0.002 24.481 0.006 1.899-0.006 2.071-2.787 0.187-3.027-0.454-1.879-0.41-3.149 0.164-5.231 0.708-0.556 1.168-1.41 1.168-2.381v-24.32c0-1.6795-1.359-3.039-3.039-3.039h-22.801zm5.641 9.75h11a1.2501 1.2501 0 1 1 0 2.5h-11a1.2501 1.2501 0 1 1 0 -2.5zm0 4h11a1.2501 1.2501 0 1 1 0 2.5h-11a1.2501 1.2501 0 1 1 0 -2.5zm-5.58 16.648h21.348c-0.281 1.568-0.28 3.009-0.002 4.561-7.125-0.001-14.249 0.006-21.37-0.006-0.381-0.061-0.72-0.281-1.025-0.719-0.302-0.434-0.49-1.05-0.516-1.558 0.025-0.492 0.227-1.152 0.549-1.6 0.327-0.454 0.656-0.655 1.016-0.678z"/>
</svg>
