<?xml version="1.0" encoding="UTF-8" standalone="no"?>
<svg xmlns:rdf="http://www.w3.org/1999/02/22-rdf-syntax-ns#" xmlns="http://www.w3.org/2000/svg" height="48" width="48" version="1.1" xmlns:cc="http://creativecommons.org/ns#" xmlns:dc="http://purl.org/dc/elements/1.1/" viewBox="0 0 48 48">
<path style="fill:#000000" d="m24 10.824 3.7811 8.5974c0.36117 0.7768 0.60638 1.2434 1.5145 1.3379l13.704 1.4-4.108-8.3-14.892-3zl-14.892 3.0811-4.108 8.2 13.704-1.362c0.90808-0.094 1.1533-0.5611 1.5145-1.3379l3.782-8.6zm0 6.3508-1.7732 3.8332c-0.61296 1.1085-1.4091 2.341-2.8865 2.4834l-9.9313 0.8445 0.070207 8.9884c0.04604 0.637 0.36542 1.0217 0.87859 1.1715l13.643 2.7 13.642-2.722c0.51317-0.1498 0.83255-0.5345 0.87859-1.1715l0.07021-8.9884-9.9313-0.8445c-1.4774-0.1424-2.2735-1.3749-2.8865-2.4834l-1.7732-3.8332z"/>
</svg>
