<?xml version="1.0" encoding="UTF-8" standalone="no"?>
<svg xmlns:rdf="http://www.w3.org/1999/02/22-rdf-syntax-ns#" xmlns="http://www.w3.org/2000/svg" height="48" width="48" version="1.1" xmlns:cc="http://creativecommons.org/ns#" xmlns:dc="http://purl.org/dc/elements/1.1/" viewBox="0 0 48 48">
<path style="fill:#000000" d="m19 8.5a1.5002 1.5002 0 0 0 -1.5 1.5v3.5h-8.5c-2.216 0-4 1.784-4 4v3h17 4 17v-3c0-2.216-1.784-4-4-4h-8.5v-3.5a1.5002 1.5002 0 0 0 -1.5 -1.5h-10zm1.5 3h7v2h-7v-2zm-15.5 12v12c0 2.216 1.784 4 4 4h30c2.216 0 4-1.784 4-4v-12h-15v3c0 1.108-0.892 2-2 2h-4c-1.108 0-2-0.892-2-2v-3h-15z"/>
</svg>
