<?xml version="1.0" encoding="UTF-8" standalone="no"?>
<svg xmlns:rdf="http://www.w3.org/1999/02/22-rdf-syntax-ns#" xmlns="http://www.w3.org/2000/svg" height="48" width="48" version="1.1" xmlns:cc="http://creativecommons.org/ns#" xmlns:dc="http://purl.org/dc/elements/1.1/" viewBox="0 0 48 48">
<path style="fill:#000000" d="m5 5 3 19h32l3-19h-10l-2 10.709v-10.709h-14v10.322l-2-10.322h-10zm3 21v2c0 3.324 2.676 6 6 6h5v4c0 2.77 2.23 5 5 5s5-2.23 5-5v-4h5c3.324 0 6-2.676 6-6v-2h-32zm16 10a2 2 0 0 1 2 2 2 2 0 0 1 -2 2 2 2 0 0 1 -2 -2 2 2 0 0 1 2 -2z"/>
</svg>
