<?xml version="1.0" encoding="UTF-8" standalone="no"?>
<svg xmlns:rdf="http://www.w3.org/1999/02/22-rdf-syntax-ns#" xmlns="http://www.w3.org/2000/svg" height="48" width="48" version="1.1" xmlns:cc="http://creativecommons.org/ns#" xmlns:dc="http://purl.org/dc/elements/1.1/" viewBox="0 0 48 48">
<path style="fill:#000000" d="m13 8c-0.554 0-1 0.446-1 1v3h-4c-1.662 0-3 1.338-3 3v3h38v-3c0-1.662-1.338-3-3-3h-4v-3c0-0.554-0.446-1-1-1h-2c-0.554 0-1 0.446-1 1v3h-16v-3c0-0.554-0.446-1-1-1h-2zm-8 12v17c0 1.662 1.338 3 3 3h32c1.662 0 3-1.338 3-3v-17h-38zm4.5 3.5h6c0.554 0 1 0.446 1 1v2.75c0 0.554-0.446 1-1 1h-6c-0.554 0-1-0.446-1-1v-2.75c0-0.554 0.446-1 1-1zm11.5 0h6c0.554 0 1 0.446 1 1v2.75c0 0.554-0.446 1-1 1h-6c-0.554 0-1-0.446-1-1v-2.75c0-0.554 0.446-1 1-1zm11.5 0h6c0.554 0 1 0.446 1 1v2.75c0 0.554-0.446 1-1 1h-6c-0.554 0-1-0.446-1-1v-2.75c0-0.554 0.446-1 1-1zm-23 8.25h6c0.554 0 1 0.446 1 1v2.75c0 0.554-0.446 1-1 1h-6c-0.554 0-1-0.446-1-1v-2.75c0-0.554 0.446-1 1-1zm11.5 0h6c0.554 0 1 0.446 1 1v2.75c0 0.554-0.446 1-1 1h-6c-0.554 0-1-0.446-1-1v-2.75c0-0.554 0.446-1 1-1zm11.5 0h6c0.554 0 1 0.446 1 1v2.75c0 0.554-0.446 1-1 1h-6c-0.554 0-1-0.446-1-1v-2.75c0-0.554 0.446-1 1-1z"/>
</svg>
