<?xml version="1.0" encoding="UTF-8" standalone="no"?>
<svg xmlns:rdf="http://www.w3.org/1999/02/22-rdf-syntax-ns#" xmlns="http://www.w3.org/2000/svg" height="48" width="48" version="1.1" xmlns:cc="http://creativecommons.org/ns#" xmlns:dc="http://purl.org/dc/elements/1.1/" viewBox="0 0 48 48">
<path style="fill:#000000" d="m7.1386 8.1809c-2.8514-0.039267-2.8514 4.2579 0 4.2186h4.5838l3.8827 20.386c-0.69591 0.77295-1.0822 1.7762-1.0839 2.8163 0 2.3299 1.8887 4.2186 4.2186 4.2186s4.2186-1.8887 4.2186-4.2186c-0.0013-0.35597-0.0464-0.71032-0.13671-1.0546h7.6599c-0.09102 0.34423-0.13862 0.69859-0.14062 1.0546 0 2.3299 1.8887 4.2186 4.2186 4.2186s4.2205-1.8887 4.2205-4.2186c-0.001-0.64128-0.14939-1.2737-0.43162-1.8495 1.1089-1.3924 0.10023-3.4479-1.6796-3.4237h-17.238l-0.34569-1.8105 19.665-1.6581c0.63777-0.05385 1.1711-0.50642 1.3281-1.1269l2.8749-11.365c0.23916-0.94779-0.47753-1.8675-1.455-1.8671h-25.464l-0.01953-0.10156-0.80466-4.2186h-8.072z"/>
</svg>
