<?xml version="1.0" encoding="UTF-8" standalone="no"?>
<svg xmlns:rdf="http://www.w3.org/1999/02/22-rdf-syntax-ns#" xmlns="http://www.w3.org/2000/svg" height="48" width="48" version="1.1" xmlns:cc="http://creativecommons.org/ns#" xmlns:dc="http://purl.org/dc/elements/1.1/" viewBox="0 0 48 48">
<path style="fill:#000000" d="m7.1394 8.1797a2.1096 2.1096 0 1 0 0 4.2188h4.5834l3.883 20.387a4.2188 4.2188 0 0 0 -1.0835 2.8159 4.2188 4.2188 0 0 0 4.2188 4.2188 4.2188 4.2188 0 0 0 4.2188 -4.2188 4.2188 4.2188 0 0 0 -0.13802 -1.0547h7.6609a4.2188 4.2188 0 0 0 -0.14008 1.0547 4.2188 4.2188 0 0 0 4.2188 4.2188 4.2188 4.2188 0 0 0 4.2188 -4.2188 4.2188 4.2188 0 0 0 -0.43053 -1.8498 2.1096 2.1096 0 0 0 -1.6789 -3.4236h-17.24l-0.40169-2.1094h18.696c0.95152-0.000106 1.7852-0.63718 2.0352-1.5553l3.1641-11.602c0.36507-1.3416-0.64486-2.6633-2.0352-2.6635h-24.874l-0.80338-4.2188h-8.0729z"/>
</svg>
