<?xml version="1.0" encoding="UTF-8" standalone="no"?>
<svg xmlns:rdf="http://www.w3.org/1999/02/22-rdf-syntax-ns#" xmlns="http://www.w3.org/2000/svg" height="48" width="48" version="1.1" xmlns:cc="http://creativecommons.org/ns#" xmlns:dc="http://purl.org/dc/elements/1.1/" viewBox="0 0 48 48">
<path style="fill:#000000" d="m37 5c-1.108 0-2 0.892-2 2v28c0 1.108 0.892 2 2 2h4c1.108 0 2-0.892 2-2v-28c0-1.108-0.892-2-2-2h-4zm-20 5c-1.108 0-2 0.892-2 2v23c0 1.108 0.892 2 2 2h4c1.108 0 2-0.892 2-2v-23c0-1.108-0.892-2-2-2h-4zm-10 8c-1.108 0-2 0.892-2 2v15c0 1.108 0.892 2 2 2h4c1.108 0 2-0.892 2-2v-15c0-1.108-0.892-2-2-2h-4zm20 4c-1.108 0-2 0.892-2 2v11c0 1.108 0.892 2 2 2h4c1.108 0 2-0.892 2-2v-11c0-1.108-0.892-2-2-2h-4zm-21 17c-0.554 0-1 0.446-1 1v2c0 0.554 0.446 1 1 1h36c0.554 0 1-0.446 1-1v-2c0-0.554-0.446-1-1-1h-36z"/>
</svg>
