<?xml version="1.0" encoding="UTF-8" standalone="no"?>
<svg xmlns:rdf="http://www.w3.org/1999/02/22-rdf-syntax-ns#" xmlns="http://www.w3.org/2000/svg" height="48" width="48" version="1.1" xmlns:cc="http://creativecommons.org/ns#" xmlns:dc="http://purl.org/dc/elements/1.1/" viewBox="0 0 48 48">
<path style="fill:#000000" d="m39 10a3 3 0 0 0 -3 3 3 3 0 0 0 0.39258 1.4746l-7.368 12.527a3 3 0 0 0 -0.025 -0.002 3 3 0 0 0 -0.51 0.043l-6.678-8.012a3 3 0 0 0 0.188 -1.031 3 3 0 0 0 -3 -3 3 3 0 0 0 -3 3 3 3 0 0 0 0.03516 0.44922l-5.9473 4.7578a3 3 0 0 0 -1.088 -0.207 3 3 0 0 0 -3 3 3 3 0 0 0 3 3 3 3 0 0 0 3 -3 3 3 0 0 0 -0.03516 -0.44922l5.9473-4.7578a3 3 0 0 0 1.088 0.207 3 3 0 0 0 0.512 -0.043l6.676 8.012a3 3 0 0 0 -0.188 1.031 3 3 0 0 0 3 3 3 3 0 0 0 3 -3 3 3 0 0 0 -0.39258 -1.4746l7.3691-12.527a3 3 0 0 0 0.024 0.002 3 3 0 0 0 3 -3 3 3 0 0 0 -3 -3zm-33 29c-0.554 0-1 0.446-1 1v2c0 0.554 0.446 1 1 1h36c0.554 0 1-0.446 1-1v-2c0-0.554-0.446-1-1-1h-36z"/>
</svg>
