<?xml version="1.0" encoding="UTF-8" standalone="no"?>
<svg xmlns:rdf="http://www.w3.org/1999/02/22-rdf-syntax-ns#" xmlns="http://www.w3.org/2000/svg" height="48" width="48" version="1.1" xmlns:cc="http://creativecommons.org/ns#" xmlns:dc="http://purl.org/dc/elements/1.1/" viewBox="0 0 48 48">
<path style="fill-rule:evenodd;fill:#000000" d="m24 5a19 19 0 0 0 -19 19 19 19 0 0 0 19 19 19 19 0 0 0 19 -19 19 19 0 0 0 -19 -19zm9.188 7.936c0.509-0.045 1.036 0.106 1.46 0.462l1.532 1.286c0.848 0.712 0.96 1.969 0.248 2.818l-14.143 16.852c-0.712 0.848-1.967 0.96-2.816 0.248l-1.533-1.288c-0.065-0.054-0.118-0.117-0.174-0.177l-5.946-4.989c-0.848-0.712-0.958-1.969-0.246-2.818l1.285-1.533c0.713-0.849 1.97-0.958 2.819-0.246l4.603 3.863 11.553-13.769c0.356-0.425 0.848-0.665 1.358-0.709z"/>
</svg>
