<?xml version="1.0" encoding="UTF-8" standalone="no"?>
<svg xmlns:rdf="http://www.w3.org/1999/02/22-rdf-syntax-ns#" xmlns="http://www.w3.org/2000/svg" height="48" width="48" version="1.1" xmlns:cc="http://creativecommons.org/ns#" xmlns:dc="http://purl.org/dc/elements/1.1/" viewBox="0 0 48 48">
<path style="fill:#000000" d="m38.305 8.4346c-0.534 0.0468-1.051 0.2987-1.425 0.7441l-17.545 20.909-8.861-7.437c-0.8909-0.747-2.2103-0.632-2.9577 0.259l-2.0231 2.412c-0.7475 0.891-0.6325 2.21 0.2582 2.958l12.863 10.793c0.11778 0.09883 0.24467 0.17916 0.37511 0.24803 0.11814 0.06237 0.23996 0.11768 0.36487 0.15579 0.78583 0.24953 1.6758 0.01891 2.2405-0.65388l20.914-24.924c0.74746-0.89079 0.63046-2.2083-0.26033-2.9558l-2.41-2.0254c-0.446-0.3737-0.999-0.5305-1.534-0.4837z"/>
</svg>
