<?xml version="1.0" encoding="UTF-8" standalone="no"?>
<svg xmlns:rdf="http://www.w3.org/1999/02/22-rdf-syntax-ns#" xmlns="http://www.w3.org/2000/svg" height="48" width="48" version="1.1" xmlns:cc="http://creativecommons.org/ns#" xmlns:dc="http://purl.org/dc/elements/1.1/" viewBox="0 0 48 48">
<path style="fill:#000000" d="m37.634 9.1687c-0.50929 0.044557-1.0013 0.2846-1.3574 0.70898l-16.718 19.923-8.443-7.086c-0.849-0.712-2.1062-0.602-2.8184 0.247l-1.9277 2.298c-0.71221 0.84877-0.60268 2.1061 0.24609 2.8183l12.256 10.284c0.11223 0.09417 0.23313 0.17071 0.35742 0.23633 0.11257 0.05943 0.22864 0.11213 0.34766 0.14844 0.74877 0.23776 1.5968 0.01802 2.1348-0.62304l19.927-23.748c0.71221-0.84878 0.60073-2.1042-0.24805-2.8164l-2.296-1.9304c-0.425-0.3561-0.952-0.5055-1.461-0.4609z"/>
</svg>
