<?xml version="1.0" encoding="UTF-8" standalone="no"?>
<svg xmlns:rdf="http://www.w3.org/1999/02/22-rdf-syntax-ns#" xmlns="http://www.w3.org/2000/svg" height="48" width="48" version="1.1" xmlns:cc="http://creativecommons.org/ns#" xmlns:dc="http://purl.org/dc/elements/1.1/" viewBox="0 0 48 48">
<path style="color-rendering:auto;text-decoration-color:#000000;color:#000000;isolation:auto;mix-blend-mode:normal;shape-rendering:auto;solid-color:#000000;block-progression:tb;text-decoration-line:none;image-rendering:auto;white-space:normal;text-indent:0;text-transform:none;text-decoration-style:solid;fill:#000000" d="m16.22 5.0026c-2.5379-0.094583-4.434 2.8936-3.2675 5.1494 0.96292 1.6016 2.5579 2.7063 3.8023 4.084l9.897 9.8005c-4.3714 4.3416-8.7771 8.6499-13.127 13.012-1.7006 1.8865-0.62433 5.258 1.8548 5.8101 1.6157 0.50595 3.1565-0.42276 4.1796-1.6101 5.0078-4.973 10.05-9.9128 15.036-14.907 1.6318-1.8493 0.62776-4.572-1.2147-5.8426-4.942-4.884-9.861-9.792-14.821-14.66-0.648-0.5432-1.492-0.8455-2.339-0.8379z"/>
</svg>
