<?xml version="1.0" encoding="UTF-8" standalone="no"?>
<svg xmlns:rdf="http://www.w3.org/1999/02/22-rdf-syntax-ns#" xmlns="http://www.w3.org/2000/svg" height="48" width="48" version="1.1" xmlns:cc="http://creativecommons.org/ns#" xmlns:dc="http://purl.org/dc/elements/1.1/" viewBox="0 0 48 48">
<path style="fill-rule:evenodd;fill:#000000" d="m43 24c0-10.493-8.507-19-19-19s-19 8.507-19 19 8.507 19 19 19 19-8.507 19-19zm-6.6895-3.0156c0 0.38997-0.1504 0.77931-0.44922 1.0781l-8.5762 8.5762c-0.01603 0.01759-0.0279 0.03766-0.04492 0.05468l-2.1562 2.1582c-0.22614 0.22614-0.50584 0.36297-0.79688 0.41797-0.09354 0.01768-0.18835 0.03125-0.2832 0.03125h-0.0098c-0.09421-0.000608-0.18841-0.01321-0.28125-0.03125-0.29104-0.055-0.57074-0.19183-0.79688-0.41797l-2.1562-2.1582c-0.01604-0.01603-0.02783-0.0342-0.04299-0.05076l-8.5781-8.5801c-0.59763-0.59762-0.59763-1.5586 0-2.1562l2.1562-2.1582c0.59763-0.59762 1.5625-0.59762 2.1602 0l7.5449 7.5469 7.5469-7.5469c0.59762-0.59763 1.5606-0.59763 2.1582 0l2.1562 2.1582c0.29881 0.29881 0.44922 0.68816 0.44922 1.0781z"/>
</svg>
