<?xml version="1.0" encoding="UTF-8" standalone="no"?>
<svg xmlns:rdf="http://www.w3.org/1999/02/22-rdf-syntax-ns#" xmlns="http://www.w3.org/2000/svg" height="48" width="48" version="1.1" xmlns:cc="http://creativecommons.org/ns#" xmlns:dc="http://purl.org/dc/elements/1.1/" viewBox="0 0 48 48">
<path style="fill-rule:evenodd;fill:#000000" d="m16.343 43c0.47651 0 0.95288-0.18283 1.318-0.54796l15.139-15.139c0.0063-0.0062 0.01379-0.01015 0.02003-0.01639l1.977-1.977c0.18345-0.18345 0.32014-0.39522 0.41142-0.62078 0.04498-0.11115 0.07934-0.226 0.10195-0.34225 0.000223-0.0011-0.000221-0.0025 0-0.0036 0.02248-0.11683 0.0347-0.23465 0.03459-0.35317 0.000001-0.000605 0-0.0012 0-0.0019-0.000229-0.11792-0.012-0.23515-0.03459-0.35135-0.0226-0.11808-0.05628-0.23304-0.10195-0.34589-0.09128-0.22556-0.22797-0.43732-0.41142-0.62078l-1.977-1.977c-0.0063-0.0063-0.01373-0.01026-0.02003-0.01639l-15.139-15.139c-0.73026-0.73026-1.9058-0.73026-2.636 0l-1.977 1.977c-0.73026 0.73026-0.73026 1.9058 0 2.636l13.839 13.839-13.839 13.839c-0.73026 0.73026-0.73026 1.9058 0 2.636l1.977 1.977c0.365 0.3652 0.842 0.548 1.318 0.548z"/>
</svg>
