<?xml version="1.0" encoding="UTF-8" standalone="no"?>
<svg xmlns:rdf="http://www.w3.org/1999/02/22-rdf-syntax-ns#" xmlns="http://www.w3.org/2000/svg" height="48" width="48" version="1.1" xmlns:cc="http://creativecommons.org/ns#" xmlns:dc="http://purl.org/dc/elements/1.1/" viewBox="0 0 48 48">
<path style="fill-rule:evenodd;fill:#000000" d="m43 24a19 19 0 0 0 -19 -19 19 19 0 0 0 -19 19 19 19 0 0 0 19 19 19 19 0 0 0 19 -19zm-5.668 4.3516c0 0.49615-0.19014 0.99287-0.57031 1.373l-1.498 1.498c-0.76035 0.76035-1.9838 0.76035-2.7441 0l-8.536-8.535-8.521 8.523c-0.76035 0.76035-1.9838 0.76035-2.7441 0l-1.498-1.498c-0.76035-0.76035-0.76035-1.9857 0-2.7461l11.396-11.397c0.76035-0.76035 1.9857-0.76035 2.7461 0l1.4961 1.498c0.01405 0.01405 0.02358 0.03056 0.03711 0.04492l9.8652 9.8672c0.38018 0.38018 0.57031 0.87494 0.57031 1.3711z"/>
</svg>
