<?xml version="1.0" encoding="UTF-8" standalone="no"?>
<svg xmlns:rdf="http://www.w3.org/1999/02/22-rdf-syntax-ns#" xmlns="http://www.w3.org/2000/svg" height="48" width="48" version="1.1" xmlns:cc="http://creativecommons.org/ns#" xmlns:dc="http://purl.org/dc/elements/1.1/" viewBox="0 0 48 48">
<path style="color-rendering:auto;text-decoration-color:#000000;color:#000000;isolation:auto;mix-blend-mode:normal;shape-rendering:auto;solid-color:#000000;block-progression:tb;text-decoration-line:none;image-rendering:auto;white-space:normal;text-indent:0;text-transform:none;text-decoration-style:solid;fill:#000000" d="m8.6537 13.191c-2.5377-0.11733-4.461 2.8546-3.3144 5.1216 0.80104 1.3853 2.1232 2.3671 3.1912 3.5438 4.4086 4.4361 8.7839 8.9073 13.213 13.322 1.8502 1.6324 4.574 0.6276 5.8446-1.2161 4.8653-4.9335 9.7665-9.833 14.609-14.787 1.6805-1.9053 0.56731-5.2659-1.9184-5.7912-2.162-0.6612-3.7661 1.1619-5.0716 2.5732-3.7192 3.7576-7.4396 7.5136-11.158 11.272-4.358-4.387-8.693-8.802-13.066-13.175-0.643-0.549-1.4831-0.859-2.3311-0.861z"/>
</svg>
