<?xml version="1.0" encoding="UTF-8" standalone="no"?>
<svg xmlns:rdf="http://www.w3.org/1999/02/22-rdf-syntax-ns#" xmlns="http://www.w3.org/2000/svg" height="48" width="48" version="1.1" xmlns:cc="http://creativecommons.org/ns#" xmlns:dc="http://purl.org/dc/elements/1.1/" viewBox="0 0 48 48">
<path style="fill-rule:evenodd;fill:#000000" d="m24 5c-10.493 0-19 8.507-19 19s8.507 19 19 19 19-8.507 19-19-8.507-19-19-19zm-3.016 6.689c0.39 0 0.78 0.151 1.078 0.45l8.577 8.576c0.017 0.016 0.037 0.028 0.054 0.045l2.159 2.156c0.226 0.226 0.363 0.506 0.418 0.797 0.017 0.093 0.031 0.188 0.031 0.283v0.01c-0.001 0.094-0.013 0.188-0.031 0.281-0.055 0.291-0.192 0.571-0.418 0.797l-2.159 2.156c-0.016 0.016-0.034 0.028-0.05 0.043l-8.581 8.578c-0.597 0.598-1.558 0.598-2.156 0l-2.158-2.156c-0.598-0.598-0.598-1.562 0-2.16l7.547-7.545-7.547-7.547c-0.598-0.597-0.598-1.56 0-2.158l2.158-2.156c0.299-0.299 0.688-0.45 1.078-0.45z"/>
</svg>
