<?xml version="1.0" encoding="UTF-8" standalone="no"?>
<svg xmlns:rdf="http://www.w3.org/1999/02/22-rdf-syntax-ns#" xmlns="http://www.w3.org/2000/svg" height="48" width="48" version="1.1" xmlns:cc="http://creativecommons.org/ns#" xmlns:dc="http://purl.org/dc/elements/1.1/" viewBox="0 0 48 48">
<path style="fill-rule:evenodd;fill:#000000" d="m24 5a19 19 0 0 0 -19 19 19 19 0 0 0 19 19 19 19 0 0 0 19 -19 19 19 0 0 0 -19 -19zm4.352 5.668c0.496 0 0.992 0.19 1.373 0.57l1.498 1.498c0.76 0.761 0.76 1.984 0 2.744l-8.535 8.536 8.523 8.521c0.76 0.76 0.76 1.984 0 2.744l-1.498 1.498c-0.76 0.761-1.986 0.761-2.746 0l-11.397-11.396c-0.76-0.761-0.76-1.986 0-2.746l1.498-1.496c0.014-0.014 0.031-0.024 0.045-0.037l9.867-9.866c0.381-0.38 0.875-0.57 1.372-0.57z"/>
</svg>
