<?xml version="1.0" encoding="UTF-8" standalone="no"?>
<svg xmlns:rdf="http://www.w3.org/1999/02/22-rdf-syntax-ns#" xmlns="http://www.w3.org/2000/svg" height="48" width="48" version="1.1" xmlns:cc="http://creativecommons.org/ns#" xmlns:dc="http://purl.org/dc/elements/1.1/" viewBox="0 0 48 48">
<path style="fill-rule:evenodd;fill:#000000" d="m24 43a19 19 0 0 0 19 -19 19 19 0 0 0 -19 -19 19 19 0 0 0 -19 19 19 19 0 0 0 19 19zm-4.3516-5.668c-0.49615 0-0.99287-0.19014-1.373-0.57031l-1.498-1.498c-0.76035-0.76035-0.76035-1.9838 0-2.7441l8.535-8.536-8.523-8.521c-0.76035-0.76035-0.76035-1.9838 0-2.7441l1.498-1.498c0.76035-0.76035 1.9857-0.76035 2.7461 0l11.396 11.396c0.76035 0.76035 0.76035 1.9857 0 2.7461l-1.498 1.4961c-0.01405 0.01405-0.03056 0.02358-0.04492 0.03711l-9.8672 9.8652c-0.38018 0.38018-0.87494 0.57031-1.3711 0.57031z"/>
</svg>
