<?xml version="1.0" encoding="UTF-8" standalone="no"?>
<svg xmlns:rdf="http://www.w3.org/1999/02/22-rdf-syntax-ns#" xmlns="http://www.w3.org/2000/svg" xml:space="preserve" height="48" width="48" version="1.1" xmlns:cc="http://creativecommons.org/ns#" xmlns:dc="http://purl.org/dc/elements/1.1/" viewBox="0 0 48 48">
<path style="fill:#000000" d="m22.059 5c-0.46533 0-0.83994 0.37461-0.83994 0.83994v1.0137h-4.3047c-0.69567 0-1.2563 0.56061-1.2563 1.2563v2.1143c0 1.2131 0.97729 2.1904 2.1904 2.1904h12.302c1.2131 0 2.1904-0.97729 2.1904-2.1904v-2.1143c0-0.69567-0.56061-1.2563-1.2563-1.2563h-4.3047v-1.0137c0.001-0.4651-0.374-0.8397-0.839-0.8397h-3.881zm1.9405 0.92683a1.3902 1.3902 0 0 1 1.39 1.3903 1.3902 1.3902 0 0 1 -1.391 1.3902 1.3902 1.3902 0 0 1 -1.39 -1.3902 1.3902 1.3902 0 0 1 1.39 -1.3903zm-12.049 2.7805c-1.024 0.0001-1.854 0.83-1.854 1.8537v30.585c0.000038 0.38388 0.11692 0.73961 0.31679 1.0354v0.0018c0.13313 0.19673 0.30278 0.36663 0.49962 0.49962h0.0018c0.295 0.2 0.651 0.317 1.035 0.317h24.098c0.51184-0.000051 0.97515-0.20762 1.3106-0.54306 0.16772-0.16772 0.30444-0.36656 0.39825-0.58832s0.14479-0.46635 0.14482-0.72228v-30.585c-0.001-1.0237-0.831-1.8536-1.855-1.8537h-2.7805v1.8573c0 1.5387-1.2382 2.7769-2.7769 2.7769h-12.983c-1.5387 0-2.7769-1.2382-2.7769-2.7769v-1.8573h-2.7805z"/>
</svg>
