<?xml version="1.0" encoding="UTF-8" standalone="no"?>
<svg xmlns:rdf="http://www.w3.org/1999/02/22-rdf-syntax-ns#" xmlns="http://www.w3.org/2000/svg" height="48" width="48" version="1.1" xmlns:cc="http://creativecommons.org/ns#" xmlns:dc="http://purl.org/dc/elements/1.1/" viewBox="0 0 48 48">
<path style="fill:#000000" d="m19.25 12.125c-5.824 0-10.559 4.659-10.684 10.453-2.1307 1.234-3.566 3.539-3.566 6.172 0 3.935 3.1908 7.125 7.125 7.125h23.75c3.935 0 7.125-3.198 7.125-7.125 0-3.283-2.668-5.73-5.857-6.32 1.382-5.027-4.319-9.085-8.801-5.239-1.885-3.04-5.252-5.066-9.092-5.066zm-0.088 5.875h1.676c0.644 0 1.162 0.518 1.162 1.162v5.676c0 0.058-0.025 0.107-0.033 0.162h3.035c0.891 0 1.337 1.077 0.707 1.707l-5 5c-0.391 0.39-1.024 0.39-1.414 0l-5-5c-0.63-0.63-0.184-1.707 0.707-1.707h3.031c-0.008-0.055-0.033-0.104-0.033-0.162v-5.676c0-0.644 0.518-1.162 1.162-1.162z"/>
</svg>
