<?xml version="1.0" encoding="UTF-8" standalone="no"?>
<svg xmlns:rdf="http://www.w3.org/1999/02/22-rdf-syntax-ns#" xmlns="http://www.w3.org/2000/svg" xml:space="preserve" height="48" width="48" version="1.1" xmlns:cc="http://creativecommons.org/ns#" xmlns:dc="http://purl.org/dc/elements/1.1/" viewBox="0 0 48 48">
<path style="fill:#000000" d="m21.077 5.7304c-8.879 0-16.077 6.5436-16.077 14.616 0 4.1457 1.9119 7.874 4.9641 10.53-0.83361 1.8312-1.445 3.4657-3.078 4.1892-0.28329 0.10767-0.42423 0.32335-0.42456 0.62644 0 0.40359 0.32718 0.73077 0.73077 0.73077 3.5623-0.09789 5.4357-1.2885 7.3277-2.7547 0.91324 0.37146 1.8665 0.67771 2.8603 0.89062-0.44431-1.2569-0.68795-2.595-0.68795-3.982 0-7.2536 6.5565-13.154 14.615-13.154 2.0198 0 3.9453 0.37107 5.6977 1.0419-1.017-7.1813-7.752-12.734-15.928-12.734zm10.231 14.616c-6.4571 0-11.692 4.5805-11.692 10.231 0 5.6503 5.2352 10.231 11.692 10.231 1.5296 0 2.9855-0.26622 4.3247-0.73362 2.3591 1.12 3.7507 2.185 6.7568 2.1952 0.3377 0.000787 0.61166-0.27317 0.61088-0.61088-0.000983-0.16793-0.07121-0.32801-0.19411-0.44246-1.4345-1.2512-2.066-2.7675-2.4264-4.1877 1.636-1.76 2.619-4.005 2.619-6.451 0-5.6507-5.235-10.231-11.692-10.231z"/>
</svg>
