<?xml version="1.0" encoding="UTF-8" standalone="no"?>
<svg xmlns:rdf="http://www.w3.org/1999/02/22-rdf-syntax-ns#" xmlns="http://www.w3.org/2000/svg" xml:space="preserve" height="48" width="48" version="1.1" xmlns:cc="http://creativecommons.org/ns#" xmlns:dc="http://purl.org/dc/elements/1.1/" viewBox="0 0 48 48">
<path style="fill:#000000" d="m16.275 5c-0.92243 0.0000819-1.6698 0.74747-1.6699 1.6699v28.397c0.000093 0.92243 0.74746 1.6698 1.6699 1.6699h21.715c0.92243-0.000091 1.6698-0.74746 1.6699-1.6699v-20.045h-6.6817c-0.92243-0.000093-1.6698-0.74746-1.6699-1.6699v-8.352h-15.033zm16.703 0v7.5176c0 0.46124 0.37473 0.83393 0.83597 0.83393h5.8457l-6.682-8.352zm-22.967 6.264c-0.9225 0-1.6699 0.747-1.67 1.67v28.397c0.0000922 0.92243 0.74746 1.6698 1.6699 1.6699h21.715c0.92243-0.000092 1.6698-0.74746 1.6699-1.6699v-3.0278h-17.865c-1.38 0-2.4916-1.1116-2.4916-2.4916v-24.547h-3.0278z"/>
</svg>
