<?xml version="1.0" encoding="UTF-8" standalone="no"?>
<svg xmlns:rdf="http://www.w3.org/1999/02/22-rdf-syntax-ns#" xmlns="http://www.w3.org/2000/svg" height="48" width="48" version="1.1" xmlns:cc="http://creativecommons.org/ns#" xmlns:dc="http://purl.org/dc/elements/1.1/" viewBox="0 0 48 48">
<path style="fill:#000000" d="m9.3523 4.9993c-0.64598 0-1.2916 0.24817-1.7866 0.74316l-1.8232 1.8228c-0.98997 0.98997-0.98997 2.5831 0 3.5731l12.86 12.862-12.86 12.859c-0.98997 0.98997-0.98997 2.5853 0 3.5753l1.8228 1.8228c0.98997 0.98997 2.5831 0.98997 3.5731 0l12.862-12.861 12.859 12.862c0.98997 0.98997 2.5853 0.98997 3.5753 0l1.8228-1.8228c0.98997-0.98997 0.98997-2.5853 0-3.5753l-12.861-12.86 12.862-12.862c0.98997-0.98997 0.98997-2.5831 0-3.5731l-1.823-1.8224c-0.98997-0.98997-2.5853-0.98997-3.5753 0l-12.86 12.86-12.862-12.86c-0.495-0.4945-1.1404-0.7427-1.7864-0.7427z"/>
</svg>
