<?xml version="1.0" encoding="UTF-8" standalone="no"?>
<svg xmlns:rdf="http://www.w3.org/1999/02/22-rdf-syntax-ns#" xmlns="http://www.w3.org/2000/svg" height="48" width="48" version="1.1" xmlns:cc="http://creativecommons.org/ns#" xmlns:dc="http://purl.org/dc/elements/1.1/" viewBox="0 0 48 48">
<path style="fill-rule:evenodd;fill:#000000" d="m24 5a19 19 0 0 0 -19 19 19 19 0 0 0 19 19 19 19 0 0 0 19 -19 19 19 0 0 0 -19 -19zm-7.025 8.453c0.511 0 1.022 0.196 1.414 0.588l5.656 5.656 5.656-5.656c0.784-0.783 2.047-0.783 2.83 0l1.414 1.414c0.784 0.784 0.784 2.045 0 2.828l-5.656 5.658 5.656 5.657c0.784 0.783 0.784 2.044 0 2.828l-1.414 1.414c-0.783 0.783-2.046 0.783-2.83 0l-5.656-5.656-5.656 5.656c-0.784 0.783-2.045 0.783-2.828 0l-1.415-1.414c-0.783-0.784-0.783-2.045 0-2.828l5.657-5.657-5.657-5.658c-0.783-0.783-0.783-2.044 0-2.828l1.415-1.414c0.391-0.392 0.902-0.588 1.414-0.588z"/>
</svg>
