<?xml version="1.0" encoding="UTF-8" standalone="no"?>
<svg xmlns:rdf="http://www.w3.org/1999/02/22-rdf-syntax-ns#" xmlns="http://www.w3.org/2000/svg" height="48" width="48" version="1.1" xmlns:cc="http://creativecommons.org/ns#" xmlns:dc="http://purl.org/dc/elements/1.1/" viewBox="0 0 48 48">
<path style="fill:#000000" d="m10.565 6.5722c-0.59251 0-1.1847 0.22763-1.6387 0.68164l-1.6723 1.6719c-0.90802 0.90802-0.90802 2.3693 0 3.2773l11.795 11.797-11.795 11.795c-0.90802 0.90802-0.90802 2.3713 0 3.2793l1.6719 1.6719c0.90802 0.90802 2.3693 0.90802 3.2773 0l11.797-11.797 11.795 11.797c0.90802 0.90802 2.3713 0.90802 3.2793 0l1.6719-1.6719c0.90802-0.90802 0.90802-2.3713 0-3.2793l-11.797-11.795 11.797-11.797c0.90802-0.90802 0.90802-2.3693 0-3.2773l-1.672-1.6719c-0.90802-0.90802-2.3713-0.90802-3.2793 0l-11.795 11.795-11.797-11.795c-0.45401-0.45401-1.0462-0.68164-1.6387-0.68164z"/>
</svg>
