<?xml version="1.0" encoding="UTF-8" standalone="no"?>
<svg xmlns:rdf="http://www.w3.org/1999/02/22-rdf-syntax-ns#" xmlns="http://www.w3.org/2000/svg" height="48" width="48" version="1.1" xmlns:cc="http://creativecommons.org/ns#" xmlns:dc="http://purl.org/dc/elements/1.1/" viewBox="0 0 48 48">
<path style="fill:#000000" d="m37.437 6.3216c-1.9979 0-3.9951 0.764-5.526 2.2949l-9.9198 9.9198-1.7631-1.7631a7.8157 7.8157 0 0 0 0.40453 -2.4577 7.8157 7.8157 0 0 0 -7.8157 -7.8158 7.8157 7.8157 0 0 0 -7.816 7.8 7.8157 7.8157 0 0 0 7.8157 7.8157 7.8157 7.8157 0 0 0 1.552 -0.1654l2.0964 2.0965-2.1269 2.1269a7.8157 7.8157 0 0 0 -1.522 -0.2 7.8157 7.8157 0 0 0 -7.816 7.8 7.8157 7.8157 0 0 0 7.8157 7.8158 7.8157 7.8157 0 0 0 7.8157 -7.8158 7.8157 7.8157 0 0 0 -0.41725 -2.4907l1.7758-1.7759 9.958 9.958c3.0617 3.0617 7.9902 3.0615 11.052 0l-15.484-15.484 15.448-15.446c-1.531-1.5301-3.531-2.294-5.529-2.2941zm-24.62 5.3886a2.6052 2.6052 0 0 1 2.6052 2.6053 2.6052 2.6052 0 0 1 -2.6052 2.6052 2.6052 2.6052 0 0 1 -2.6052 -2.6052 2.6052 2.6052 0 0 1 2.6052 -2.6053zm9.1184 10.421a1.9539 1.9539 0 0 1 1.9539 1.954 1.9539 1.9539 0 0 1 -1.9539 1.9539 1.9539 1.9539 0 0 1 -1.9539 -1.9539 1.9539 1.9539 0 0 1 1.9539 -1.954zm-9.1184 9.1184a2.6052 2.6052 0 0 1 2.6052 2.6052 2.6052 2.6052 0 0 1 -2.6052 2.6053 2.6052 2.6052 0 0 1 -2.6052 -2.6053 2.6052 2.6052 0 0 1 2.6052 -2.6052z"/>
</svg>
