<?xml version="1.0" encoding="UTF-8"?>
<svg width="50" height="50" version="1.1" viewBox="0 0 50 50" xmlns="http://www.w3.org/2000/svg">
<path d="m38.518 5.1426c-0.70496 0.033569-1.4863 0.32617-2.2676 1.1074l-2.5 2.5s-1.25 1.25 0 2.5l5 5s1.25 1.25 2.5 0l2.5-2.5s2.5-2.5 0-5l-2.5-2.5s-1.1815-1.1813-2.7324-1.1074zm-28.518 4.8574s-5 0-5 5v25s0 5 5 5h25s5 0 5-5v-15-1.25l-5 5v11.25h-25v-25h11.25l5-5h-16.25zm21.16 1.9512c-0.67139 0.061035-1.1602 0.54883-1.1602 0.54883l-15 16.25-2.5 8.75 8.75-1.25 16.25-16.25c1.25-1.25 0-2.5 0-2.5l-5-5c-0.46875-0.46875-0.93701-0.58545-1.3398-0.54883z"/>
</svg>
