<?xml version="1.0" encoding="UTF-8" standalone="no"?>
<svg xmlns:rdf="http://www.w3.org/1999/02/22-rdf-syntax-ns#" xmlns="http://www.w3.org/2000/svg" height="48" width="48" version="1.1" xmlns:cc="http://creativecommons.org/ns#" xmlns:dc="http://purl.org/dc/elements/1.1/" viewBox="0 0 48 48.000001">
<g>
<path style="color-rendering:auto;text-decoration-color:#000000;color:#000000;shape-rendering:auto;solid-color:#000000;text-decoration-line:none;fill:#000000;fill-rule:evenodd;mix-blend-mode:normal;block-progression:tb;text-indent:0;image-rendering:auto;white-space:normal;text-decoration-style:solid;isolation:auto;text-transform:none" d="m37.257 5.0028c-2.0378-0.038735-3.5743 1.3465-4.885 2.7376l7.8845 7.8837c0.4596-0.46093 0.9203-0.92083 1.3798-1.3819 2.574-2.693 1.316-7.6658-2.19-8.8796-0.696-0.2663-1.445-0.3824-2.189-0.3596zm-7.2523 5.1047c-7.939 7.946-15.905 15.868-23.813 23.844-0.7775 1.08-1.187 2.392-1.192 3.468v5.5798h5.5804c1.4706 0.0025 2.8578-0.57481 3.7101-1.408 7.872-7.861 15.741-15.726 23.599-23.601l-7.884-7.884z"/>
</g>
</svg>
