<?xml version="1.0" encoding="UTF-8" standalone="no"?>
<svg xmlns:rdf="http://www.w3.org/1999/02/22-rdf-syntax-ns#" xmlns="http://www.w3.org/2000/svg" height="48" width="48" version="1.1" xmlns:cc="http://creativecommons.org/ns#" xmlns:dc="http://purl.org/dc/elements/1.1/" viewBox="0 0 48 48">
<path style="fill:#000000" d="m7 5.0002a2.0002 2.0002 0 0 0 -2 2v34a2.0002 2.0002 0 0 0 2 2h34a2.0002 2.0002 0 0 0 2 -2v-25.395l-4 4v19.395h-30v-30h19.395l4-4h-25.395zm31.467 0.0039c-1.609-0.0306-2.823 1.0619-3.858 2.1602l6.225 6.2249c0.363-0.364 0.727-0.728 1.09-1.092 2.032-2.126 1.037-6.0516-1.731-7.0099-0.549-0.21-1.139-0.301-1.726-0.283zm-5.727 4.0293c-6.267 6.2728-12.556 12.528-18.799 18.824-0.613 0.85299-0.937 1.889-0.94099 2.739v4.404h4.406c1.161 0.002 2.255-0.454 2.928-1.111 6.215-6.206 12.427-12.416 18.631-18.633l-6.225-6.2224z"/>
</svg>
