<?xml version="1.0" encoding="UTF-8" standalone="no"?>
<svg xmlns:rdf="http://www.w3.org/1999/02/22-rdf-syntax-ns#" xmlns="http://www.w3.org/2000/svg" height="48" width="48" version="1.1" xmlns:cc="http://creativecommons.org/ns#" xmlns:dc="http://purl.org/dc/elements/1.1/" viewBox="0 0 48 48">
<path style="fill:#000000" d="m28.527 5c-0.905 0-1.81 0.3356-2.49 1.0098l-19.018 18.853c-1.3595 1.349-1.3595 3.59 0.0005 4.938l7.7445 7.699h9.384l16.832-16.676c1.361-1.348 1.361-3.589 0-4.937l-9.962-9.8753c-0.68-0.6741-1.586-1.0117-2.491-1.0117zm-9.957 12.9l10.412 10.325-6.539 6.453-5.972 0.002-7.1858-7.123c-0.145-0.144-0.145-0.306 0-0.45l9.2848-9.207zm-12.07 21.1c-0.831 0-1.5 0.669-1.5 1.5v1c0 0.831 0.669 1.5 1.5 1.5h35c0.831 0 1.5-0.669 1.5-1.5v-1c0-0.831-0.669-1.5-1.5-1.5h-35z"/>
</svg>
