<?xml version="1.0" encoding="UTF-8" standalone="no"?>
<svg xmlns:rdf="http://www.w3.org/1999/02/22-rdf-syntax-ns#" xmlns="http://www.w3.org/2000/svg" height="48" width="48" version="1.1" xmlns:cc="http://creativecommons.org/ns#" xmlns:dc="http://purl.org/dc/elements/1.1/" viewBox="0 0 48 48">
<path style="fill:#000000" d="m28.025 6.9289c-0.8046-1e-7 -1.6104 0.30176-2.2148 0.90625l-16.904 16.904c-1.209 1.209-1.209 3.2188 0 4.4277l6.8828 6.9043h8.3438l14.961-14.953c1.2092-1.2087 1.209-3.2188 0-4.4277l-8.856-8.8548c-0.60448-0.60449-1.4083-0.90625-2.2129-0.90625zm-8.8516 11.568 9.2559 9.2578-5.8125 5.7852-5.3105 0.002-6.3867-6.3867c-0.12889-0.1289-0.12889-0.27345 0-0.40234l8.2539-8.2559zm-13.573 19.575c-0.3324 0-0.5996 0.267-0.5996 0.599v1.8008c0 0.3324 0.26721 0.59961 0.59961 0.59961h36.801c0.332 0 0.599-0.268 0.599-0.6v-1.8008c0-0.332-0.267-0.599-0.6-0.599h-36.801z"/>
</svg>
