<?xml version="1.0" encoding="UTF-8" standalone="no"?>
<svg xmlns:rdf="http://www.w3.org/1999/02/22-rdf-syntax-ns#" xmlns="http://www.w3.org/2000/svg" height="48" width="48" version="1.1" xmlns:cc="http://creativecommons.org/ns#" xmlns:dc="http://purl.org/dc/elements/1.1/" viewBox="0 0 48 48">
<path style="fill-rule:evenodd;fill:#000000" d="m24 5a19 19 0 0 0 -19 19 19 19 0 0 0 19 19 19 19 0 0 0 19 -19 19 19 0 0 0 -19 -19zm-2.543 6.752c0.069-0.005 0.138-0.001 0.207 0.01 1.652 0.003 3.306-0.008 4.957 0.004 0.492 0.044 0.911 0.559 0.877 1.107-0.151 4.487-0.289 8.974-0.449 13.461-0.07 0.658-0.68 1.091-1.254 1.002-1.305-0.004-2.611 0.006-3.916-0.006-0.6-0.054-1.005-0.716-0.947-1.35-0.144-4.406-0.297-8.81-0.432-13.216 0.019-0.561 0.473-0.976 0.957-1.012zm2.43 18.059c0.989-0.036 1.992 0.36 2.603 1.203 0.444 0.563 0.692 1.281 0.69 2.002 0.078 2.088-2.177 3.766-4.123 3.076-1.993-0.542-2.915-3.216-1.686-4.895 0.551-0.884 1.526-1.351 2.516-1.386z"/>
</svg>
