<?xml version="1.0" encoding="UTF-8" standalone="no"?>
<svg xmlns:rdf="http://www.w3.org/1999/02/22-rdf-syntax-ns#" xmlns="http://www.w3.org/2000/svg" height="48" width="48" version="1.1" xmlns:cc="http://creativecommons.org/ns#" xmlns:dc="http://purl.org/dc/elements/1.1/" viewBox="0 0 48 48">
<path style="fill:#000000" d="m20.008 4.9863c-0.761 0.0555-1.474 0.6981-1.504 1.5684 0.212 6.8413 0.453 13.68 0.678 20.521-0.091 0.984 0.548 2.014 1.49 2.098 2.051 0.018 4.101 0.002 6.152 0.008 0.902 0.138 1.86-0.534 1.969-1.555 0.251-6.966 0.469-13.934 0.707-20.9 0.053-0.8502-0.604-1.6505-1.377-1.7192-2.595-0.0186-5.193-0.0025-7.789-0.0078-0.109-0.0171-0.218-0.0216-0.326-0.0137zm3.816 28.037c-1.555 0.055-3.086 0.782-3.951 2.155-1.931 2.606-0.483 6.758 2.648 7.599 3.059 1.072 6.602-1.535 6.479-4.777 0.003-1.119-0.386-2.233-1.084-3.107-0.96-1.308-2.537-1.925-4.092-1.87z"/>
</svg>
