<?xml version="1.0" encoding="UTF-8" standalone="no"?>
<svg xmlns:rdf="http://www.w3.org/1999/02/22-rdf-syntax-ns#" xmlns="http://www.w3.org/2000/svg" xml:space="preserve" height="48" width="48" version="1.1" y="0px" x="0px" xmlns:cc="http://creativecommons.org/ns#" xmlns:dc="http://purl.org/dc/elements/1.1/" viewBox="0 0 48 48"><path style="color-rendering:auto;fill-rule:evenodd;color:#000000;isolation:auto;mix-blend-mode:normal;text-decoration-color:#000000;shape-rendering:auto;solid-color:#000000;block-progression:tb;text-decoration-line:none;image-rendering:auto;white-space:normal;text-indent:0;text-transform:none;text-decoration-style:solid;fill:#000000" d="m10 5c-1.1045 0.0001-1.9999 0.8955-2 2v34c0.0001 1.105 0.8955 2 2 2h28c1.105 0 2-0.895 2-2v-25c0-0.49-0.18-0.962-0.506-1.328l-8-9.0001c-0.379-0.427-0.923-0.6715-1.494-0.6719h-20zm2 4h14v9c0 1.105 0.895 2 2 2h8v19h-24v-30zm18 1.01l5.324 5.99h-5.324v-5.99zm-14.697 11.99c-0.722 0-1.303 0.581-1.303 1.303v1.394c0 0.722 0.581 1.303 1.303 1.303h17.394c0.722 0 1.303-0.581 1.303-1.303v-1.394c0-0.722-0.581-1.303-1.303-1.303h-17.394zm0 5.5c-0.722 0-1.303 0.581-1.303 1.303v1.394c0 0.722 0.581 1.303 1.303 1.303h17.394c0.722 0 1.303-0.581 1.303-1.303v-1.394c0-0.722-0.581-1.303-1.303-1.303h-17.394zm0 5.5c-0.722 0-1.303 0.581-1.303 1.303v1.394c0 0.722 0.581 1.303 1.303 1.303h17.394c0.722 0 1.303-0.581 1.303-1.303v-1.394c0-0.722-0.581-1.303-1.303-1.303h-17.394z"/></svg>
