<?xml version="1.0" encoding="UTF-8" standalone="no"?>
<svg xmlns:rdf="http://www.w3.org/1999/02/22-rdf-syntax-ns#" xmlns="http://www.w3.org/2000/svg" xml:space="preserve" height="48" width="48" version="1.1" xmlns:cc="http://creativecommons.org/ns#" xmlns:dc="http://purl.org/dc/elements/1.1/" viewBox="0 0 48 48">
<path style="fill:#000000" d="m11 5c-1.1045 0.0001-1.9999 0.8955-2 2v34c0.0001 1.105 0.8955 2 2 2h26c1.105 0 2-0.895 2-2v-24h-8c-1.105 0-2-0.895-2-2v-10h-18zm20 0v9c0 0.552 0.448 1 1 1h7l-8-10zm-16.08 21h18.16c1.228-0.019 1.228 2.019 0 2h-18.16c-1.228 0.019-1.228-2.019 0-2zm0 4h18.16c1.228-0.019 1.228 2.019 0 2h-18.16c-1.228 0.019-1.228-2.019 0-2zm0 4h18.16c1.228-0.019 1.228 2.019 0 2h-18.16c-1.228 0.019-1.228-2.019 0-2z"/>
</svg>
