<?xml version="1.0" encoding="UTF-8" standalone="no"?>
<svg xmlns:rdf="http://www.w3.org/1999/02/22-rdf-syntax-ns#" xmlns="http://www.w3.org/2000/svg" xml:space="preserve" height="48" viewBox="0 0 48 48" width="48" version="1.1" y="0px" x="0px" xmlns:cc="http://creativecommons.org/ns#" xmlns:dc="http://purl.org/dc/elements/1.1/">
  <path style="color-rendering:auto;text-decoration-color:#000000;color:#000000;shape-rendering:auto;solid-color:#000000;text-decoration-line:none;fill:#000000;fill-rule:evenodd;mix-blend-mode:normal;block-progression:tb;text-indent:0;image-rendering:auto;white-space:normal;text-decoration-style:solid;isolation:auto;text-transform:none" d="m10 5a2.0002 2.0002 0 0 0 -2 2v34a2.0002 2.0002 0 0 0 2 2h28a2.0002 2.0002 0 0 0 2 -2v-25a2.0002 2.0002 0 0 0 -0.506 -1.328l-8-9.0001a2.0002 2.0002 0 0 0 -1.494 -0.6719h-20zm2 4h14v9a2.0002 2.0002 0 0 0 2 2h8v19h-24v-30zm18 1.01l5.324 5.99h-5.324v-5.99z"/>
</svg>
