<?xml version="1.0" encoding="UTF-8" standalone="no"?>
<svg xmlns:rdf="http://www.w3.org/1999/02/22-rdf-syntax-ns#" xmlns="http://www.w3.org/2000/svg" xml:space="preserve" height="48" width="48" version="1.1" y="0px" x="0px" xmlns:cc="http://creativecommons.org/ns#" xmlns:dc="http://purl.org/dc/elements/1.1/" viewBox="0 0 48 48"><path style="color-rendering:auto;fill-rule:evenodd;color:#000000;isolation:auto;mix-blend-mode:normal;text-decoration-color:#000000;shape-rendering:auto;solid-color:#000000;block-progression:tb;text-decoration-line:none;image-rendering:auto;white-space:normal;text-indent:0;text-transform:none;text-decoration-style:solid;fill:#000000" d="m10 5a2.0002 2.0002 0 0 0 -2 2v34a2.0002 2.0002 0 0 0 2 2h28a2.0002 2.0002 0 0 0 2 -2v-25a2.0002 2.0002 0 0 0 -0.506 -1.328l-8-9.0001a2.0002 2.0002 0 0 0 -1.494 -0.6719h-20zm2 4h14v9a2.0002 2.0002 0 0 0 2 2h8v19h-24v-30zm18 1.01l5.324 5.99h-5.324v-5.99zm-15 1.99a1.5002 1.5002 0 1 0 0 3h8a1.5002 1.5002 0 1 0 0 -3h-8zm0 5a1.5002 1.5002 0 1 0 0 3h8a1.5002 1.5002 0 1 0 0 -3h-8zm0 5a1.5002 1.5002 0 1 0 0 3h18a1.5002 1.5002 0 1 0 0 -3h-18zm0 5a1.5002 1.5002 0 1 0 0 3h18a1.5002 1.5002 0 1 0 0 -3h-18zm0 5a1.5002 1.5002 0 1 0 0 3h18a1.5002 1.5002 0 1 0 0 -3h-18z"/></svg>
