<?xml version="1.0" encoding="UTF-8" standalone="no"?>
<svg xmlns:rdf="http://www.w3.org/1999/02/22-rdf-syntax-ns#" xmlns="http://www.w3.org/2000/svg" version="1.1" xml:space="preserve" height="48" viewBox="0 0 48 48" width="48" xmlns:cc="http://creativecommons.org/ns#" xmlns:dc="http://purl.org/dc/elements/1.1/">
<path style="fill:#000000;" d="m17.199 5c-0.942 0-1.699 0.669-1.699 1.5v1c0 0.831 0.757 1.5 1.699 1.5h0.801v9.566l-9.8203 21.606c-0.6021 1.324 0.3657 2.828 1.8203 2.828h28c1.455 0 2.422-1.504 1.82-2.828l-9.82-21.606v-9.566h0.801c0.942 0 1.699-0.669 1.699-1.5v-1c0-0.831-0.757-1.5-1.699-1.5h-13.602zm4.801 4h4v10c0 0.286 0.061 0.568 0.18 0.828l3.904 8.592c-5.902-0.164-7.823 5.078-13.656 3.271l5.392-11.863c0.119-0.26 0.18-0.542 0.18-0.828v-10z"/>
</svg>
