<?xml version="1.0" encoding="UTF-8" standalone="no"?>
<svg xmlns:rdf="http://www.w3.org/1999/02/22-rdf-syntax-ns#" xmlns="http://www.w3.org/2000/svg" height="48" width="48" version="1.1" xmlns:cc="http://creativecommons.org/ns#" xmlns:dc="http://purl.org/dc/elements/1.1/" viewBox="0 0 48 48">
<path style="fill:#000000" d="m9.5161 10.306c-2.4873 0.000249-4.5037 2.0166-4.5039 4.5039v15.748l1.8438-4.2154c0.7701-1.761 2.9377-3.18 4.859-3.18h27.527v-4.2999c-0.000249-2.4873-2.0166-4.5037-4.5039-4.5039h-9.9087c-2.122-1.396-5.4047-4.0536-5.4047-4.0536h-9.9087zm3.5381 14.348c-1.9216 0-4.0892 1.4186-4.8593 3.1792l-2.9239 6.684c-0.7701 1.76 0.1579 3.177 2.0796 3.177h27.595c1.9216 0 4.0892-1.4169 4.8593-3.1774l2.924-6.6838c0.77013-1.7605-0.15794-3.1792-2.0796-3.1792h-27.595z"/>
</svg>
