<?xml version="1.0" encoding="UTF-8" standalone="no"?>
<svg xmlns:rdf="http://www.w3.org/1999/02/22-rdf-syntax-ns#" xmlns="http://www.w3.org/2000/svg" xml:space="preserve" viewBox="0 0 48 48" height="48" width="48" version="1.1" xmlns:cc="http://creativecommons.org/ns#" xmlns:dc="http://purl.org/dc/elements/1.1/">
<path style="fill:#000000" d="m7.2353 5c-1.235 0-2.2353 1.0003-2.2353 2.2353v6.7059c0 1.235 1.0003 2.2353 2.2353 2.2353h6.7059c1.235 0 2.2353-1.0003 2.2353-2.2353v-6.7059c0-1.2348-1-2.2351-2.235-2.2351h-6.7057zm13.412 0c-1.235 0-2.2353 1.0003-2.2353 2.2353v6.7059c0 1.235 1.0003 2.2353 2.2353 2.2353h6.7059c1.235 0 2.2353-1.0003 2.2353-2.2353v-6.7059c0-1.2348-1-2.2351-2.235-2.2351h-6.7059zm13.412 0c-1.235 0-2.2353 1.0003-2.2353 2.2353v6.7059c0 1.235 1.0003 2.2353 2.2353 2.2353h6.7059c1.235 0 2.235-1 2.235-2.235v-6.7057c0-1.235-1-2.2353-2.235-2.2353h-6.706zm-26.824 13.412c-1.235 0-2.2353 1-2.2353 2.235v6.7059c0 1.235 1.0003 2.2353 2.2353 2.2353h6.7059c1.235 0 2.2353-1.0003 2.2353-2.2353v-6.7059c0-1.235-1.0003-2.2353-2.2353-2.2353h-6.7059zm13.412 0c-1.235 0-2.2353 1.0003-2.2353 2.2353v6.7059c0 1.235 1.0003 2.2353 2.2353 2.2353h6.7059c1.235 0 2.2353-1.0003 2.2353-2.2353v-6.7059c0-1.235-1.0003-2.2353-2.2353-2.2353h-6.7059zm13.412 0c-1.235 0-2.2353 1.0003-2.2353 2.2353v6.7059c0 1.235 1.0003 2.2353 2.2353 2.2353h6.7059c1.235 0 2.2353-1.0003 2.2353-2.2353v-6.7059c0-1.235-1.0003-2.2353-2.2353-2.2353h-6.7059zm-26.824 13.412c-1.235 0-2.2353 1-2.2353 2.235v6.7059c0 1.235 1.0003 2.235 2.2353 2.235h6.7059c1.235 0 2.2353-1.0003 2.2353-2.2353v-6.7059c0-1.235-1.0003-2.2353-2.2353-2.2353h-6.7059zm13.412 0c-1.235 0-2.2353 1.0003-2.2353 2.2353v6.7059c0 1.235 1.0003 2.2353 2.2353 2.2353h6.7059c1.235 0 2.2353-1.0003 2.2353-2.2353v-6.7059c0-1.235-1.0003-2.2353-2.2353-2.2353h-6.7059zm13.412 0c-1.235 0-2.2353 1.0003-2.2353 2.2353v6.7059c0 1.235 1.0003 2.2353 2.2353 2.2353h6.7059c1.235 0 2.235-1 2.235-2.235v-6.7059c0-1.235-1.0003-2.2353-2.2353-2.2353h-6.7059z"/>
</svg>
