<?xml version="1.0" encoding="UTF-8" standalone="no"?>
<svg xmlns:rdf="http://www.w3.org/1999/02/22-rdf-syntax-ns#" xmlns="http://www.w3.org/2000/svg" height="48" width="48" version="1.1" xmlns:cc="http://creativecommons.org/ns#" xmlns:dc="http://purl.org/dc/elements/1.1/" viewBox="0 0 48 48">
<path style="color-rendering:auto;text-decoration-color:#000000;color:#000000;isolation:auto;mix-blend-mode:normal;shape-rendering:auto;solid-color:#000000;block-progression:tb;text-decoration-line:none;image-rendering:auto;white-space:normal;text-indent:0;text-transform:none;text-decoration-style:solid;fill:#000000" d="m24.012 5c-2.056 0.9478-3.278 3.3179-5.011 4.8017-4.619 4.9573-9.344 9.8293-13.897 14.84-0.55379 1.502 1.2378 1.686 2.2766 1.56h2.0968c0.01486 5.3027-0.029705 10.608 0.022246 15.909 0.40237 1.2934 1.8901 0.75961 2.8955 0.87156 2.0878-0.02198 4.1809 0.04384 6.2655-0.0326 1.2352-0.39957 0.71363-1.9002 0.82613-2.8783v-9.3922h9.0076c0.015 3.8103-0.02966 7.6235 0.02224 11.432 0.40231 1.2934 1.89 0.75963 2.8955 0.8716 2.0732-0.0138 4.1491 0.02802 6.2207-0.02144 1.2984-0.39831 0.76433-1.8901 0.87604-2.8965v-13.863c1.2375-0.03014 2.4844 0.06276 3.7155-0.0509 2.151-1.714-1.782-3.546-2.616-5.058-5-5.293-9.962-10.625-14.989-15.891-0.176-0.1262-0.391-0.1973-0.608-0.2014z"/>
</svg>
