<?xml version="1.0" encoding="UTF-8" standalone="no"?>
<svg xmlns:rdf="http://www.w3.org/1999/02/22-rdf-syntax-ns#" xmlns="http://www.w3.org/2000/svg" height="48" width="48" version="1.1" xmlns:cc="http://creativecommons.org/ns#" xmlns:dc="http://purl.org/dc/elements/1.1/" viewBox="0 0 48 48">
<path style="fill:#000000" d="m23.982 8.1538c-0.24766 0-0.49579 0.09735-0.68556 0.28712l-6.0568 6.0548v-3.3595c0-0.44157-0.35532-0.7969-0.7969-0.7969h-2.4512c-0.44157 0-0.7969 0.35532-0.7969 0.7969v7.4045l-8.9104 8.9084c-0.37954 0.37954-0.37954 0.99159 0 1.3711l0.74221 0.74416c0.37954 0.37954 0.99159 0.37954 1.3711 0l17.603-17.605 17.604 17.605c0.37953 0.37954 0.98964 0.37954 1.3692 0l0.74221-0.74416c0.37953-0.37954 0.37953-0.99159 0-1.3711l-19.012-19.008c-0.195-0.1949-0.449-0.2885-0.703-0.2833-0.006-0.000111-0.01159-0.0039-0.01758-0.0039zm0.01758 5.6916-14 14v10.631c0 0.75929 0.61184 1.3692 1.3711 1.3692h7.258c0.75929 0 1.3711-0.60989 1.3711-1.3692v-8.6311h8.0002v8.5158c0 0.75929 0.61184 1.3711 1.3711 1.3711h7.258c0.75929 0 1.3711-0.61184 1.3711-1.3711v-10.516l-14-14z"/>
</svg>
