<?xml version="1.0" encoding="UTF-8" standalone="no"?>
<svg xmlns:rdf="http://www.w3.org/1999/02/22-rdf-syntax-ns#" xmlns="http://www.w3.org/2000/svg" xml:space="preserve" viewBox="0 0 48 48" height="48" width="48" version="1.1" xmlns:cc="http://creativecommons.org/ns#" xmlns:dc="http://purl.org/dc/elements/1.1/">
<path style="fill:#000000" d="m7.9238 10c-1.615 0-2.9238 1.254-2.9238 2.801v22.398c0 1.547 1.3088 2.801 2.9238 2.801h32.152c1.615 0 2.924-1.254 2.924-2.801v-22.398c0-1.547-1.309-2.801-2.924-2.801h-32.152zm4.5352 3.857a3.15 3.15 0 0 1 3.15 3.149 3.15 3.15 0 0 1 -3.15 3.15 3.15 3.15 0 0 1 -3.1485 -3.15 3.15 3.15 0 0 1 3.1485 -3.149zm20.311 5.946c0.905 0 1.809 0.33 2.5 0.992l3.345 3.205v9.801h-29.23l-0.0002-4.201 6.2672-6.004c1.381-1.323 3.621-1.323 5.002 0l3.346 3.205 6.268-6.006c0.69-0.662 1.596-0.992 2.502-0.992z"/>
</svg>
