<?xml version="1.0" encoding="UTF-8" standalone="no"?>
<svg xmlns:rdf="http://www.w3.org/1999/02/22-rdf-syntax-ns#" xmlns="http://www.w3.org/2000/svg" height="48" width="48" version="1.1" xmlns:cc="http://creativecommons.org/ns#" xmlns:dc="http://purl.org/dc/elements/1.1/" viewBox="0 0 48 48">
<path style="fill-rule:evenodd;fill:#000000" d="m24 5a19 19 0 0 0 -19 19 19 19 0 0 0 19 19 19 19 0 0 0 19 -19 19 19 0 0 0 -19 -19zm0 7.125a3.125 3.125 0 0 1 3.125 3.125 3.125 3.125 0 0 1 -3.125 3.125 3.125 3.125 0 0 1 -3.125 -3.125 3.125 3.125 0 0 1 3.125 -3.125zm-4 8.637h6c0.271 0 0.506 0.106 0.703 0.32 0.198 0.214 0.297 0.465 0.297 0.758v9.717h1c0.271 0 0.506 0.106 0.703 0.32 0.198 0.213 0.297 0.468 0.297 0.76v2.158c0 0.292-0.099 0.546-0.297 0.76-0.197 0.213-0.432 0.32-0.703 0.32h-8c-0.271 0-0.506-0.107-0.703-0.32-0.198-0.214-0.297-0.468-0.297-0.76v-2.158c0-0.292 0.099-0.547 0.297-0.76 0.197-0.214 0.432-0.32 0.703-0.32h1v-6.477h-1c-0.271 0-0.506-0.106-0.703-0.32-0.198-0.214-0.297-0.468-0.297-0.76v-2.16c0-0.293 0.099-0.544 0.297-0.758 0.197-0.214 0.432-0.32 0.703-0.32z"/>
</svg>
