<?xml version="1.0" encoding="UTF-8" standalone="no"?>
<svg xmlns:rdf="http://www.w3.org/1999/02/22-rdf-syntax-ns#" xmlns="http://www.w3.org/2000/svg" height="48" width="48" version="1.1" xmlns:cc="http://creativecommons.org/ns#" xmlns:dc="http://purl.org/dc/elements/1.1/" viewBox="0 0 48 48">
<path style="fill-rule:evenodd;fill:#000000" d="m24 5a5 5 0 0 0 -5 5 5 5 0 0 0 5 5 5 5 0 0 0 5 -5 5 5 0 0 0 -5 -5zm-6.4 13.818c-0.434 0-0.809 0.17-1.125 0.512-0.317 0.342-0.475 0.747-0.475 1.215v3.455c0 0.468 0.158 0.873 0.475 1.215 0.316 0.342 0.691 0.512 1.125 0.512h1.599v10.365h-1.599c-0.434 0-0.809 0.17-1.125 0.512-0.317 0.341-0.475 0.747-0.475 1.214v3.455c0 0.468 0.158 0.871 0.475 1.213 0.316 0.342 0.691 0.514 1.125 0.514h12.8c0.434 0 0.809-0.172 1.125-0.514 0.317-0.342 0.475-0.745 0.475-1.213v-3.455c0-0.467-0.158-0.873-0.475-1.214-0.316-0.342-0.691-0.512-1.125-0.512h-1.599v-15.547c0-0.468-0.16-0.873-0.477-1.215-0.316-0.342-0.691-0.512-1.125-0.512h-9.599z"/>
</svg>
