<?xml version="1.0" encoding="UTF-8" standalone="no"?>
<svg xmlns:rdf="http://www.w3.org/1999/02/22-rdf-syntax-ns#" xmlns="http://www.w3.org/2000/svg" height="48" width="48" version="1.1" xmlns:cc="http://creativecommons.org/ns#" xmlns:dc="http://purl.org/dc/elements/1.1/" viewBox="0 0 48 48">
<path style="fill:#000000" d="m17.5 5c-0.554 0-1 0.446-1 1v1c0 0.554 0.446 1 1 1h0.64062c2.8657 0 4.2988 0.63119 4.2988 1.9609l-4.811 27.721c-0.13646 0.78421-0.64816 1.3799-1.5352 1.7891-0.853 0.375-2.047 0.529-3.582 0.529h-1.012c-0.554 0-1 0.446-1 1v1c0 0.554 0.446 1 1 1h4 11 2.7969 1.203c0.554 0 1-0.446 1-1v-1c0-0.554-0.446-1-1-1h-0.69141c-2.8657 0-4.2988-0.61451-4.2988-1.9102l4.861-27.772c0.239-1.5681 1.928-2.318 5.067-2.318h1.062c0.554 0 1-0.446 1-1v-1c0-0.554-0.446-1-1-1h-0.5-14.5-4z"/>
</svg>
