<?xml version="1.0" encoding="UTF-8" standalone="no"?>
<svg xmlns:rdf="http://www.w3.org/1999/02/22-rdf-syntax-ns#" xmlns="http://www.w3.org/2000/svg" height="48" width="48" version="1.1" xmlns:cc="http://creativecommons.org/ns#" xmlns:dc="http://purl.org/dc/elements/1.1/" viewBox="0 0 48 48">
<path style="fill:#000000" d="m24 5.0011c-0.51458 0-0.99345 0.13563-1.4225 0.35254h-0.02783l-14.977 7.6844c-0.5799 0.234-0.99 0.799-0.99 1.463 0 0.65866 0.40405 1.2236 0.97722 1.4627v0.03092l15.001 7.66 0.01235-0.0062c0.43067 0.21692 0.90883 0.3515 1.425 0.3515s0.99495-0.13404 1.4256-0.35254l0.01235 0.0062 15.001-7.66v-0.03092c0.57475-0.23908 0.9785-0.80433 0.9785-1.463 0-0.66342-0.41008-1.2287-0.98958-1.463l-14.977-7.6847h-0.02783c-0.427-0.2161-0.906-0.3523-1.42-0.3523zm-13.496 16.034-2.9314 1.503c-0.5795 0.23433-0.98958 0.79958-0.98958 1.463 0 0.65867 0.40405 1.2236 0.97722 1.4627v0.03092l15.001 7.66 0.01235-0.0062c0.43067 0.21692 0.90883 0.3515 1.425 0.3515s0.99495-0.13404 1.4256-0.35254l0.01235 0.0062 15.001-7.66v-0.03092c0.57475-0.23908 0.9785-0.80433 0.9785-1.463 0-0.66342-0.41008-1.2287-0.98958-1.463l-2.9317-1.5029c-4.5996 2.3544-10.877 5.558-10.95 5.5849-0.81542 0.36417-1.6688 0.54783-2.5444 0.54783-0.87875 0-1.7358-0.18471-2.5544-0.55046-0.06967-0.02533-6.34-3.2259-10.941-5.5819zm0 9.5-2.9317 1.5026c-0.5795 0.23433-0.98958 0.79958-0.98958 1.463 0 0.65867 0.40405 1.2236 0.97722 1.4627v0.03092l15.001 7.66 0.01235-0.0062c0.432 0.216 0.91 0.351 1.426 0.351 0.51617 0 0.99495-0.13404 1.4256-0.35254l0.01235 0.0062 15.001-7.66v-0.03092c0.57475-0.23908 0.9785-0.80433 0.9785-1.463 0-0.66342-0.41008-1.2287-0.98958-1.463l-2.9317-1.5029c-4.5996 2.3544-10.877 5.558-10.95 5.5849-0.81542 0.36417-1.6688 0.54783-2.5444 0.54783-0.87875 0-1.7358-0.18471-2.5544-0.55046-0.06967-0.02533-6.34-3.2259-10.941-5.5819z"/>
</svg>
