<?xml version="1.0" encoding="UTF-8" standalone="no"?>
<svg xmlns:rdf="http://www.w3.org/1999/02/22-rdf-syntax-ns#" xmlns="http://www.w3.org/2000/svg" height="48" width="48" version="1.1" xmlns:cc="http://creativecommons.org/ns#" xmlns:dc="http://purl.org/dc/elements/1.1/" viewBox="0 0 48 48">
<path style="fill:#000000" d="m33.818 5.4648c-0.166 0-0.333 0.0639-0.461 0.1914l-1.201 1.2032c-0.254 0.2545-0.254 0.6634 0 0.9179l2.723 2.7227-2.723 2.723c-0.254 0.254-0.254 0.663 0 0.918l1.203 1.203c0.255 0.254 0.664 0.254 0.918 0l2.723-2.723 2.723 2.723c0.254 0.254 0.663 0.254 0.918 0l1.203-1.201c0.255-0.256 0.254-0.666 0-0.92l-2.723-2.723 2.723-2.7227c0.255-0.2551 0.254-0.6634 0-0.9179l-1.203-1.2032c-0.255-0.2545-0.663-0.2551-0.918 0l-2.723 2.7227-2.723-2.7227c-0.127-0.1272-0.292-0.1914-0.459-0.1914zm-9.814 7.2212l-0.004 0.002c-0.559 0-1.077 0.147-1.543 0.382h-0.031l-16.26 8.342c-0.6296 0.254-1.0762 0.869-1.0762 1.59 0 0.716 0.4402 1.327 1.0625 1.586v0.033l16.286 8.318 0.013-0.007c0.468 0.236 0.987 0.382 1.547 0.382s1.081-0.147 1.549-0.384l0.012 0.009 16.289-8.318v-0.033c0.624-0.259 1.062-0.872 1.062-1.588 0-0.72-0.447-1.334-1.076-1.588l-16.26-8.346h-0.029c-0.464-0.234-0.983-0.38-1.541-0.38zm14.648 15.779c-4.994 2.557-11.809 6.035-11.888 6.064-0.016 0.007-0.032 0.012-0.047 0.018l-1.158 0.592-0.012-0.008c-0.468 0.238-0.989 0.383-1.549 0.383s-1.079-0.145-1.547-0.381l-0.013 0.006-1.17-0.598c-0.014-0.005-0.028-0.01-0.041-0.016-0.076-0.028-6.882-3.5-11.877-6.058h-0.0023l-3.1817 1.631c-0.6292 0.255-1.0742 0.87-1.0742 1.59 0 0.714 0.4382 1.325 1.0605 1.585v0.036l16.286 8.316 0.015-0.008c0.468 0.235 0.985 0.383 1.545 0.383s1.081-0.148 1.549-0.385l0.015 0.01 16.286-8.316v-0.036c0.624-0.26 1.062-0.872 1.062-1.587 0-0.72-0.447-1.334-1.076-1.588l-3.182-1.633z"/>
</svg>
