<?xml version="1.0" encoding="UTF-8" standalone="no"?>
<svg xmlns:rdf="http://www.w3.org/1999/02/22-rdf-syntax-ns#" xmlns="http://www.w3.org/2000/svg" height="48" width="48" version="1.1" xmlns:cc="http://creativecommons.org/ns#" xmlns:dc="http://purl.org/dc/elements/1.1/" viewBox="0 0 48 48">
<path style="fill:#000000" d="m24.004 5l-0.004 0.002c-0.559 0-1.077 0.1473-1.543 0.3828h-0.031l-16.26 8.3422c-0.6296 0.254-1.0762 0.868-1.0762 1.589 0 0.716 0.4402 1.327 1.0625 1.586v0.034l16.286 8.318 0.013-0.008c0.468 0.236 0.987 0.383 1.547 0.383s1.081-0.148 1.549-0.385l0.012 0.01 16.289-8.318v-0.034c0.624-0.259 1.062-0.872 1.062-1.588 0-0.72-0.447-1.333-1.076-1.587l-16.26-8.3461h-0.029c-0.464-0.2346-0.983-0.3809-1.541-0.3809zm14.648 15.779c-4.994 2.557-11.809 6.036-11.888 6.065-0.016 0.007-0.032 0.011-0.047 0.017l-1.158 0.592-0.012-0.008c-0.468 0.238-0.989 0.383-1.549 0.383s-1.079-0.145-1.547-0.381l-0.013 0.006-1.17-0.598c-0.014-0.005-0.028-0.009-0.041-0.015-0.076-0.028-6.882-3.501-11.877-6.059h-0.0023l-3.1817 1.631c-0.6292 0.255-1.0742 0.87-1.0742 1.59 0 0.715 0.4382 1.326 1.0605 1.586v0.035l16.286 8.316 0.015-0.007c0.468 0.235 0.985 0.382 1.545 0.382s1.081-0.147 1.549-0.384l0.015 0.009 16.286-8.316v-0.035c0.624-0.26 1.062-0.873 1.062-1.588 0-0.72-0.447-1.334-1.076-1.588l-3.182-1.633zm0.006 8.688l-13.099 6.687-0.012-0.009c-0.468 0.237-0.989 0.384-1.549 0.384s-1.079-0.147-1.547-0.383l-0.013 0.008-13.092-6.685-3.18 1.629c-0.6292 0.254-1.0762 0.867-1.0762 1.588 0 0.715 0.4402 1.328 1.0625 1.587v0.036l16.286 8.316 0.015-0.006c0.469 0.235 0.987 0.381 1.547 0.381s1.081-0.148 1.549-0.385l0.013 0.008 16.286-8.316v-0.036c0.624-0.259 1.062-0.872 1.062-1.587 0-0.721-0.445-1.334-1.074-1.588l-3.178-1.629z"/>
</svg>
