<?xml version="1.0" encoding="UTF-8" standalone="no"?>
<svg xmlns:rdf="http://www.w3.org/1999/02/22-rdf-syntax-ns#" xmlns="http://www.w3.org/2000/svg" height="48" width="48" version="1.1" xmlns:cc="http://creativecommons.org/ns#" xmlns:dc="http://purl.org/dc/elements/1.1/" viewBox="0 0 48 48">
<path style="fill:#000000" d="m23.997 5c-5.5636 0.00223-10.522 3.4842-12.214 8.6516-1.6928 5.1685 0.31038 10.821 4.8873 13.906 0.62364 0.42288 1.9138 0.56731 1.9138 0.56731h10.829s1.2901-0.14612 1.9155-0.56731c4.5769-3.0853 6.5799-8.7374 4.8873-13.906-1.692-5.1674-6.65-8.6499-12.213-8.652h-0.005zm0.01168 3.0485c1.7295-0.011945 1.7159 2.5928-0.01335 2.5629-1.5419-0.0089-3.4493 0.82962-4.8956 2.0691-1.4464 1.2395-2.3463 2.8459-2.3594 3.9262-0.01998 1.7087-2.583 1.6787-2.563-0.02998 0.02703-2.2399 1.4253-4.2749 3.2537-5.8416 1.8285-1.5668 4.1725-2.6997 6.5776-2.6865zm-5.987 22.212c-1.7313-0.02283-1.7313 2.5857 0 2.5629h11.961c1.7313 0.02283 1.7313-2.5857 0-2.5629zm0 4.2716c-1.7247-0.01608-1.7247 2.5791 0 2.563h11.961c1.7247 0.01608 1.7247-2.5791 0-2.563zm2.0591 4.197c0.000013 1.526 0.81414 2.9356 2.1357 3.6987 1.3216 0.76304 2.9499 0.76304 4.2716 0 1.3216-0.76304 2.1357-2.1726 2.1357-3.6987h-4.2716z"/>
</svg>
