<?xml version="1.0" encoding="UTF-8" standalone="no"?>
<svg xmlns:rdf="http://www.w3.org/1999/02/22-rdf-syntax-ns#" xmlns="http://www.w3.org/2000/svg" height="48" width="48" version="1.1" xmlns:cc="http://creativecommons.org/ns#" xmlns:dc="http://purl.org/dc/elements/1.1/" viewBox="0 0 48 48">
<path style="fill:#000000" d="m23.995 5.0001c-4.9925 0.002-9.442 3.1266-10.96 7.7635-1.519 4.638 0.27852 9.7103 4.3856 12.479 0.55963 0.37947 1.7174 0.50908 1.7174 0.50908h9.7175s1.1577-0.13112 1.7189-0.50908c4.1071-2.7686 5.9045-7.8405 4.3856-12.479-1.5185-4.6366-5.9676-7.7616-10.96-7.7635h-0.0045zm0.01048 2.7356a1.15 1.15 0 1 1 -0.01198 2.2998c-1.3836-0.008-3.0952 0.74446-4.3931 1.8567s-2.1055 2.5538-2.1172 3.5232a1.15 1.15 0 0 1 -2.2999 -0.0269c0.02426-2.01 1.279-3.8361 2.9197-5.242 1.6408-1.406 3.7442-2.4226 5.9024-2.4107zm-5.3723 19.932a1.15 1.15 0 1 0 0 2.2998h10.733a1.15 1.15 0 1 0 0 -2.2998h-10.733zm0 3.8331a1.15 1.15 0 1 0 0 2.2999h10.733a1.15 1.15 0 1 0 0 -2.2999h-10.733zm0 3.8331a1.15 1.15 0 1 0 0 2.2998h10.733a1.15 1.15 0 1 0 0 -2.2998h-10.733zm1.8477 3.8331a3.8331 3.8331 0 0 0 1.9165 3.3195 3.8331 3.8331 0 0 0 3.8331 0 3.8331 3.8331 0 0 0 1.9165 -3.3195h-3.8331-3.8331z"/>
</svg>
