<?xml version="1.0" encoding="UTF-8" standalone="no"?>
<svg xmlns:rdf="http://www.w3.org/1999/02/22-rdf-syntax-ns#" xmlns="http://www.w3.org/2000/svg" xml:space="preserve" viewBox="0 0 48 48" height="48" width="48" version="1.1" xmlns:cc="http://creativecommons.org/ns#" xmlns:dc="http://purl.org/dc/elements/1.1/">
<path style="fill:#000000" d="m6.8328 30.994c-2.4437 2.4437-2.4437 6.4578 0 8.9015l1.2716 1.2716c2.4437 2.4437 6.4578 2.4437 8.9015 0l6.3582-6.3582c2.0021-2.0021 2.3613-5.058 1.0829-7.4411l-2.8326 2.8326c0.0449 0.73598-0.21249 1.4841-0.79354 2.0652l-6.3582 6.3582c-1.0787 1.0787-2.7362 1.0787-3.8149 0l-1.2709-1.273c-1.0787-1.0787-1.0787-2.7362 0-3.8149l6.3582-6.3582c0.58104-0.58104 1.3292-0.83843 2.0652-0.79354l2.8326-2.8326c-2.3831-1.2784-5.439-0.9192-7.4411 1.0829l-6.3582 6.359zm17.803-17.803c-2.0021 2.0021-2.3613 5.058-1.0829 7.4411l2.8326-2.8326c-0.0449-0.73598 0.21249-1.4841 0.79354-2.0652l6.3582-6.3582c1.0787-1.0787 2.7362-1.0787 3.8149 0l1.2716 1.2716c1.0787 1.0787 1.0787 2.7362 0 3.8149l-6.3582 6.3582c-0.58104 0.58104-1.3292 0.83843-2.0652 0.79354l-2.8326 2.8326c2.3831 1.2784 5.439 0.9192 7.4411-1.0829l6.3582-6.3582c2.4437-2.4437 2.4437-6.4578 0-8.9015l-1.2716-1.2716c-2.4437-2.4437-6.4578-2.4437-8.9015 0l-6.3582 6.3582zm-6.994 14.624a1.7986 1.7986 0 1 0 2.5433 2.5433l10.173-10.173a1.7986 1.7986 0 1 0 -2.5433 -2.5433l-10.173 10.173z"/>
</svg>
