<?xml version="1.0" encoding="UTF-8" standalone="no"?>
<svg xmlns:rdf="http://www.w3.org/1999/02/22-rdf-syntax-ns#" xmlns="http://www.w3.org/2000/svg" height="48" width="48" version="1.1" xmlns:cc="http://creativecommons.org/ns#" xmlns:dc="http://purl.org/dc/elements/1.1/" viewBox="0 0 48 48">
<path style="fill:#000000" d="m8 10a3 3 0 0 0 -3 3 3 3 0 0 0 3 3 3 3 0 0 0 3 -3 3 3 0 0 0 -3 -3zm9 0c-1.108 0-2 0.892-2 2v2c0 1.108 0.892 2 2 2h24c1.108 0 2-0.892 2-2v-2c0-1.108-0.892-2-2-2h-24zm-9 11a3 3 0 0 0 -3 3 3 3 0 0 0 3 3 3 3 0 0 0 3 -3 3 3 0 0 0 -3 -3zm9 0c-1.108 0-2 0.892-2 2v2c0 1.108 0.892 2 2 2h24c1.108 0 2-0.892 2-2v-2c0-1.108-0.892-2-2-2h-24zm-9 11a3 3 0 0 0 -3 3 3 3 0 0 0 3 3 3 3 0 0 0 3 -3 3 3 0 0 0 -3 -3zm9 0c-1.108 0-2 0.892-2 2v2c0 1.108 0.892 2 2 2h24c1.108 0 2-0.892 2-2v-2c0-1.108-0.892-2-2-2h-24z"/>
</svg>
