<?xml version="1.0" encoding="UTF-8" standalone="no"?>
<svg xmlns:rdf="http://www.w3.org/1999/02/22-rdf-syntax-ns#" xmlns="http://www.w3.org/2000/svg" height="48" width="48" version="1.1" xmlns:cc="http://creativecommons.org/ns#" xmlns:dc="http://purl.org/dc/elements/1.1/" viewBox="0 0 48 48">
<path style="fill:#000000" d="m7.6934 9.5l-1.8926 1.768 0.9863 1.056c0.3897-0.343 0.6231-0.592 0.6973-0.75h0.0273v0.166c0 0.371-0.0032 0.932-0.0078 1.684-0.0046 0.751-0.0059 1.319-0.0059 1.699h-1.4902v1.377h4.6622v-1.377h-1.502v-5.623h-1.4746zm9.3066 0.5c-1.108 0-2 0.892-2 2v2c0 1.108 0.892 2 2 2h24c1.108 0 2-0.892 2-2v-2c0-1.108-0.892-2-2-2h-24zm-8.6973 10.5c-0.5286 0-1.0104 0.131-1.4433 0.391-0.433 0.259-0.7578 0.621-0.9766 1.086l1.1621 0.806c0.319-0.528 0.6882-0.793 1.1074-0.793 0.2279 0 0.4069 0.061 0.5391 0.184s0.1992 0.299 0.1992 0.527c0 0.21-0.108 0.415-0.3222 0.615-0.2142 0.201-0.4707 0.4-0.7715 0.596s-0.6016 0.412-0.9024 0.649-0.5592 0.546-0.7734 0.929-0.3203 0.807-0.3203 1.272c0 0.164 0.0273 0.41 0.082 0.738h4.9492v-2.174h-1.4355v0.82h-1.7363c0.0091-0.227 0.1699-0.466 0.4843-0.716 0.3145-0.251 0.6595-0.482 1.0332-0.692 0.3737-0.209 0.7155-0.502 1.0253-0.881 0.31-0.378 0.465-0.796 0.465-1.252 0-0.647-0.228-1.158-0.6836-1.537-0.4558-0.378-1.0163-0.568-1.6817-0.568zm8.6973 0.5c-1.108 0-2 0.892-2 2v2c0 1.108 0.892 2 2 2h24c1.108 0 2-0.892 2-2v-2c0-1.108-0.892-2-2-2h-24zm-11.022 10.5v2.078h1.4492v-0.724c0.1459 0 0.3659-0.005 0.6621-0.014 0.2963-0.009 0.5183-0.014 0.6641-0.014v0.014c-0.1732 0.164-0.3418 0.34-0.5059 0.527-0.164 0.187-0.3587 0.433-0.582 0.738-0.2233 0.306-0.3704 0.503-0.4433 0.594l0.3554 0.766c0.957-0.073 1.4356 0.182 1.4356 0.765 0 0.256-0.099 0.45-0.2949 0.582-0.196 0.133-0.4252 0.198-0.6895 0.198-0.5195 0-1.0026-0.205-1.4492-0.615l-0.7793 1.203c0.6015 0.601 1.3855 0.902 2.3515 0.902 0.7383 0 1.3549-0.21 1.8517-0.629 0.497-0.419 0.744-0.993 0.744-1.723 0-0.464-0.137-0.865-0.41-1.203-0.274-0.337-0.6408-0.56-1.1056-0.67l1.2966-1.572v-1.203h-4.5505zm11.022 0.5c-1.108 0-2 0.892-2 2v2c0 1.108 0.892 2 2 2h24c1.108 0 2-0.892 2-2v-2c0-1.108-0.892-2-2-2h-24z"/>
</svg>
