<?xml version="1.0" encoding="UTF-8" standalone="no"?>
<svg xmlns:rdf="http://www.w3.org/1999/02/22-rdf-syntax-ns#" xmlns="http://www.w3.org/2000/svg" height="48" width="48" version="1.1" xmlns:cc="http://creativecommons.org/ns#" xmlns:dc="http://purl.org/dc/elements/1.1/" viewBox="0 0 48 48">
<path style="fill:#000000" d="m7.9629 9l-2.1621 2.021 1.1269 1.206c0.4454-0.392 0.7121-0.675 0.7969-0.856h0.0313v0.19c0 0.424-0.0026 1.064-0.0079 1.923-0.0052 0.859-0.0078 1.507-0.0078 1.942h-1.7031v1.574h5.3279v-1.574h-1.7166v-6.426h-1.6855zm9.0371 1c-1.108 0-2 0.892-2 2v2c0 1.108 0.892 2 2 2h24c1.108 0 2-0.892 2-2v-2c0-1.108-0.892-2-2-2h-24zm-8.3398 10c-0.6042 0-1.1557 0.15-1.6504 0.447-0.4949 0.296-0.8652 0.709-1.1153 1.241l1.3282 0.921c0.3645-0.603 0.7865-0.906 1.2656-0.906 0.2604 0 0.4641 0.07 0.6152 0.211s0.2285 0.341 0.2285 0.602c0 0.24-0.1243 0.474-0.3691 0.703s-0.5371 0.457-0.8809 0.681c-0.3437 0.224-0.6874 0.47-1.0312 0.741-0.3438 0.27-0.64 0.624-0.8848 1.062s-0.3652 0.922-0.3652 1.453c0 0.188 0.0312 0.469 0.0937 0.844h5.6565v-2.484h-1.6408v0.937h-1.9844c0.0104-0.259 0.1934-0.533 0.5527-0.818 0.3594-0.287 0.7546-0.551 1.1817-0.791 0.4268-0.239 0.8178-0.575 1.1718-1.008 0.354-0.432 0.531-0.909 0.531-1.43 0-0.739-0.26-1.324-0.781-1.758-0.521-0.432-1.1614-0.648-1.9218-0.648zm8.3398 1c-1.108 0-2 0.892-2 2v2c0 1.108 0.892 2 2 2h24c1.108 0 2-0.892 2-2v-2c0-1.108-0.892-2-2-2h-24zm-10.996 10v2.375h1.6563v-0.828c0.1667 0 0.4173-0.005 0.7558-0.016 0.3386-0.01 0.5932-0.015 0.7598-0.015v0.015c-0.198 0.188-0.3906 0.388-0.5781 0.602s-0.4109 0.495-0.6661 0.844-0.4225 0.575-0.5058 0.679l0.4062 0.875c1.0937-0.083 1.6407 0.209 1.6407 0.875 0 0.293-0.114 0.513-0.3379 0.664-0.224 0.152-0.4851 0.227-0.7871 0.227-0.5938 0-1.1459-0.235-1.6563-0.703l-0.8906 1.375c0.6874 0.687 1.5835 1.031 2.6875 1.031 0.8438 0 1.5477-0.24 2.1157-0.719s0.851-1.134 0.851-1.969c0-0.53-0.157-0.988-0.469-1.374-0.313-0.386-0.732-0.64-1.2633-0.766l1.4803-1.797v-1.375h-5.1991zm10.996 1c-1.108 0-2 0.892-2 2v2c0 1.108 0.892 2 2 2h24c1.108 0 2-0.892 2-2v-2c0-1.108-0.892-2-2-2h-24z"/>
</svg>
