<?xml version="1.0" encoding="UTF-8" standalone="no"?>
<svg xmlns:rdf="http://www.w3.org/1999/02/22-rdf-syntax-ns#" xmlns="http://www.w3.org/2000/svg" height="48" width="48" version="1.1" xmlns:cc="http://creativecommons.org/ns#" xmlns:dc="http://purl.org/dc/elements/1.1/" viewBox="0 0 48.000001 48.000001">
<g transform="translate(0 -1004.4)">
<path style="color-rendering:auto;text-decoration-color:#000000;color:#000000;shape-rendering:auto;solid-color:#000000;text-decoration-line:none;fill:#000000;fill-rule:evenodd;mix-blend-mode:normal;block-progression:tb;text-indent:0;image-rendering:auto;white-space:normal;text-decoration-style:solid;isolation:auto;text-transform:none" d="m8 21a3.0003 3.0003 0 1 0 0 6h1a3.0003 3.0003 0 1 0 0 -6h-1zm10 0a3.0003 3.0003 0 1 0 0 6h22a3.0003 3.0003 0 1 0 0 -6h-22z" transform="translate(0 1004.4)"/>
<path style="color-rendering:auto;text-decoration-color:#000000;color:#000000;shape-rendering:auto;solid-color:#000000;text-decoration-line:none;fill:#000000;fill-rule:evenodd;mix-blend-mode:normal;block-progression:tb;text-indent:0;image-rendering:auto;white-space:normal;text-decoration-style:solid;isolation:auto;text-transform:none" d="m8 1034.4a3.0003 3.0003 0 1 0 0 6h1a3.0003 3.0003 0 1 0 0 -6h-1zm10 0a3.0003 3.0003 0 1 0 0 6h22a3.0003 3.0003 0 1 0 0 -6h-22z"/>
<path style="color-rendering:auto;text-decoration-color:#000000;color:#000000;shape-rendering:auto;solid-color:#000000;text-decoration-line:none;fill:#000000;fill-rule:evenodd;mix-blend-mode:normal;block-progression:tb;text-indent:0;image-rendering:auto;white-space:normal;text-decoration-style:solid;isolation:auto;text-transform:none" d="m8 1016.4a3.0003 3.0003 0 1 0 0 6h1a3.0003 3.0003 0 1 0 0 -6h-1zm10 0a3.0003 3.0003 0 1 0 0 6h22a3.0003 3.0003 0 1 0 0 -6h-22z"/>
</g>
</svg>
