<?xml version="1.0" encoding="UTF-8" standalone="no"?>
<svg xmlns:rdf="http://www.w3.org/1999/02/22-rdf-syntax-ns#" xmlns="http://www.w3.org/2000/svg" version="1.1" xml:space="preserve" height="48" viewBox="0 0 48 48" width="48" enable-background="new 0 0 500 500" xmlns:cc="http://creativecommons.org/ns#" xmlns:dc="http://purl.org/dc/elements/1.1/"><path style="fill-rule:evenodd;clip-rule:evenodd;fill:#000000" d="m13.708 15.292v5.5416c-1.6555 0.06264-3.6524-0.36704-4.8188 1.1521-1.1149 1.3927-0.60655 3.2444-0.72293 4.8836 0.010846 4.4293-0.021726 8.8598 0.016343 13.288 0.13231 1.8928 2.0604 3.0939 3.8429 2.8426 8.3214-0.01088 16.644 0.02177 24.965-0.01634 1.8927-0.13224 3.0944-2.06 2.8431-3.8427-0.01086-5.1548 0.02175-10.311-0.01635-15.465-0.13238-1.8928-2.0605-3.0941-3.8431-2.8428-0.51977-0.07397-1.3305 0.14306-1.6823-0.09893-0.05802-2.4209 0.1427-4.8582-0.16075-7.2645-0.77618-4.8723-5.4652-8.6985-10.397-8.4665-5.0231 0.019396-9.5668 4.2306-9.973 9.236-0.03551 0.34956-0.05314 0.70094-0.05314 1.0523zm3.9584 5.5416c0.05562-2.2718-0.12857-4.56 0.12861-6.8183 0.62439-3.5642 4.6657-5.9491 8.0885-4.7721 2.8599 0.82515 4.732 3.8156 4.4496 6.7413v4.8491h-12.667z"/></svg>
