<?xml version="1.0" encoding="UTF-8" standalone="no"?>
<svg xmlns:rdf="http://www.w3.org/1999/02/22-rdf-syntax-ns#" xmlns="http://www.w3.org/2000/svg" xml:space="preserve" viewBox="0 0 48 48" height="48" width="48" version="1.1" xmlns:cc="http://creativecommons.org/ns#" xmlns:dc="http://purl.org/dc/elements/1.1/">
<path style="fill:#000000" d="m6.4615 9c-0.8067 0-1.4615 0.672-1.4615 1.5v24c0 0.699 0.47619 1.2603 1.1076 1.4268l9.1232 2.7041v-27.067l-8.1928-2.4644c-0.193-0.063-0.372-0.0996-0.5767-0.0996zm23.385 0.27832-11.692 2.4199v26.997l11.692-2.3965v-27.021zm2.9231 0.096679v27.064l8.3039 2.4639c0.148 0.051 0.3 0.097 0.465 0.097 0.807 0 1.462-0.672 1.462-1.5v-24c0-0.7125-0.49729-1.2301-1.1418-1.4326l-9.089-2.692z"/>
</svg>
