<?xml version="1.0" encoding="UTF-8" standalone="no"?>
<svg xmlns:rdf="http://www.w3.org/1999/02/22-rdf-syntax-ns#" xmlns="http://www.w3.org/2000/svg" height="48" width="48" version="1.1" xmlns:cc="http://creativecommons.org/ns#" xmlns:dc="http://purl.org/dc/elements/1.1/" viewBox="0 0 48 48">
<path style="fill:#000000" d="m7.502 11.785c-1.0873 0-1.9989 0.692-2.3458 1.656l17.229 13.897c0.905 0.741 2.326 0.741 3.23 0l17.229-13.897c-0.347-0.964-1.259-1.656-2.346-1.656h-32.996zm-2.502 4.606v17.322c0 0.253 0.0481 0.491 0.1172 0.721l10.613-9.284-10.73-8.759zm38 0l-10.73 8.759 10.613 9.284c0.069-0.23 0.117-0.468 0.117-0.721v-17.322zm-25.287 10.38l-10.731 9.389c0.168 0.035 0.3416 0.055 0.52 0.055h32.996c0.178 0 0.352-0.02 0.52-0.055l-10.733-9.389-2.818 2.301c-0.973 0.794-2.222 1.192-3.469 1.192s-2.496-0.398-3.469-1.192l-2.816-2.301z"/>
</svg>
