<?xml version="1.0" encoding="UTF-8" standalone="no"?>
<svg xmlns:rdf="http://www.w3.org/1999/02/22-rdf-syntax-ns#" xmlns="http://www.w3.org/2000/svg" height="48" width="48" version="1.1" xmlns:cc="http://creativecommons.org/ns#" xmlns:dc="http://purl.org/dc/elements/1.1/" viewBox="0 0 48 48">
<path style="fill-rule:evenodd;fill:#000000" d="m24 5a19 19 0 0 0 -19 19 19 19 0 0 0 19 19 19 19 0 0 0 19 -19 19 19 0 0 0 -19 -19zm-10.824 16h21.648c1.206 0 2.176 0.97 2.176 2.176v1.648c0 1.206-0.97 2.176-2.176 2.176h-21.648c-1.206 0-2.176-0.97-2.176-2.176v-1.648c0-1.206 0.97-2.176 2.176-2.176z"/>
</svg>
