<?xml version="1.0" encoding="UTF-8" standalone="no"?>
<svg xmlns:rdf="http://www.w3.org/1999/02/22-rdf-syntax-ns#" xmlns="http://www.w3.org/2000/svg" height="48" width="48" version="1.1" xmlns:cc="http://creativecommons.org/ns#" xmlns:dc="http://purl.org/dc/elements/1.1/" viewBox="0 0 48 48">
<path style="fill:#000000" d="m23.235 5.1821c-12.8 0.1-18.142 10.4-18.235 17.9 0.0228 11.939 6.7124 16.177 11.871 18.857 3.6129 1.7457 4.7896 0.5211 5.4699-0.039 1.3765-1.2803 0.65767-3.3369 0.1941-4.0741-1.636-2.8615 2.0355-5.9181 4.8504-3.9955 4.1963 2.7173 10.591 0.9043 12.996-2.2901 8.0772-12.031-3.9188-26.364-17.147-26.381zm-1.1109 2.9197a3.7003 3.7003 0 0 1 3.7003 3.7004 3.7003 3.7003 0 0 1 -3.7003 3.7003 3.7003 3.7003 0 0 1 -3.7003 -3.7003 3.7003 3.7003 0 0 1 3.7003 -3.7004zm9.8537 2.7155a3.7003 3.7003 0 0 1 3.7003 3.7003 3.7003 3.7003 0 0 1 -3.7003 3.7002 3.7003 3.7003 0 0 1 -3.7003 -3.7002 3.7003 3.7003 0 0 1 3.7003 -3.7003zm-18.545 3.4917a3.7003 3.7003 0 0 1 3.7003 3.7003 3.7003 3.7003 0 0 1 -3.7003 3.7003 3.7003 3.7003 0 0 1 -3.7003 -3.7003 3.7003 3.7003 0 0 1 3.7003 -3.7003zm22.58 6.207a3.7003 3.7003 0 0 1 3.7003 3.7004 3.7003 3.7003 0 0 1 -3.7003 3.7003 3.7003 3.7003 0 0 1 -3.7003 -3.7003 3.7003 3.7003 0 0 1 3.7003 -3.7004z"/>
</svg>
