<?xml version="1.0" encoding="UTF-8" standalone="no"?>
<svg xmlns:rdf="http://www.w3.org/1999/02/22-rdf-syntax-ns#" xmlns="http://www.w3.org/2000/svg" xml:space="preserve" height="48" width="48" version="1.1" xmlns:cc="http://creativecommons.org/ns#" xmlns:dc="http://purl.org/dc/elements/1.1/" viewBox="0 0 48 48">
<path style="fill:#000000" d="m17.048 5c-0.35 0-0.632 0.2818-0.632 0.632v0.76276h-3.2392c-0.52347 0-0.945 0.42151-0.945 0.945v1.5917c0 0.91283 0.73467 1.6475 1.6475 1.6475h9.2575c0.91283 0 1.649-0.73467 1.649-1.6475v-1.5917c0-0.52348-0.42298-0.945-0.94647-0.945h-3.2392v-0.76276c-0.001-0.35-0.283-0.632-0.633-0.632h-2.9202-0.0015zm1.4594 0.6981h0.0015a1.0461 1.0461 0 0 1 1.046 1.0449 1.0461 1.0461 0 0 1 -1.047 1.0464 1.0461 1.0461 0 0 1 -1.045 -1.0464 1.0461 1.0461 0 0 1 1.045 -1.0449zm-9.0663 2.0913c-0.7698 0.0009-1.3947 0.625-1.3947 1.3948v23.015c0.000029 0.28886 0.08916 0.55636 0.23956 0.77893v0.0015c0.10018 0.14804 0.22665 0.27617 0.37477 0.37624h0.0015c0.22198 0.1505 0.48998 0.23809 0.77893 0.23809h6.8105v-17.893c0-1.3427 1.0808-2.4235 2.4235-2.4235h10.295v-4.0931c0-0.771-0.625-1.3953-1.395-1.3954h-2.0928v1.3977c0 1.1578-0.93205 2.0899-2.0899 2.0899h-9.769c-1.1578 0-2.0899-0.93205-2.0899-2.0899v-1.3977h-2.0899-0.0015zm9.4442 6.6165c-0.83111 0.000075-1.5049 0.67384-1.505 1.505v25.584c0.000083 0.83111 0.67383 1.5049 1.505 1.505h19.564c0.83111-0.000083 1.5049-0.67383 1.505-1.505v-18.059h-6.0198c-0.83111-0.000083-1.5049-0.67383-1.505-1.505v-7.5248h-13.545zm15.05 0v6.7723c0 0.41558 0.3369 0.75248 0.75248 0.75248h5.2673l-6.0198-7.5248z"/>
</svg>
