<?xml version="1.0" encoding="UTF-8" standalone="no"?>
<svg xmlns:rdf="http://www.w3.org/1999/02/22-rdf-syntax-ns#" xmlns="http://www.w3.org/2000/svg" height="48" width="48" version="1.1" xmlns:cc="http://creativecommons.org/ns#" xmlns:dc="http://purl.org/dc/elements/1.1/" viewBox="0 0 48 48">
<path style="fill-rule:evenodd;fill:#000000" d="m22.5 5.5c-1.108 0-2 0.892-2 2v13.5h-13.5c-1.108 0-2 0.892-2 2v3c0 1.108 0.892 2 2 2h13.5v13.5c0 1.108 0.892 2 2 2h3c1.108 0 2-0.892 2-2v-13.5h13.5c1.108 0 2-0.892 2-2v-3c0-1.108-0.892-2-2-2h-13.5v-13.5c0-1.108-0.892-2-2-2h-3z"/>
</svg>
