<?xml version="1.0" encoding="UTF-8" standalone="no"?>
<svg xmlns:rdf="http://www.w3.org/1999/02/22-rdf-syntax-ns#" xmlns="http://www.w3.org/2000/svg" xml:space="preserve" viewBox="0 0 48 48" height="48" width="48" version="1.1" xmlns:cc="http://creativecommons.org/ns#" xmlns:dc="http://purl.org/dc/elements/1.1/">
<path style="fill:#000000" d="m23.979 6.0003a1.3559 1.3579 0 0 0 -1.3346 1.3763v1.3577h-16.269a1.3559 1.3579 0 1 0 0 2.7155v20.366c0 1.5003 1.2134 2.7155 2.7115 2.7155h10.557l-2.9393 5.4654a1.3566 1.3585 0 1 0 2.3885 1.2888l3.6304-6.7542h2.5526l3.6304 6.7542a1.3566 1.3585 0 1 0 2.3885 -1.2888l-2.9393-5.4654h10.557c1.4981 0 2.7115-1.2152 2.7115-2.7155v-20.366a1.3559 1.3579 0 1 0 0 -2.7155h-16.269v-1.3577a1.3559 1.3579 0 0 0 -1.3769 -1.3763z"/>
</svg>
