<?xml version="1.0" encoding="UTF-8" standalone="no"?>
<svg xmlns:rdf="http://www.w3.org/1999/02/22-rdf-syntax-ns#" xmlns="http://www.w3.org/2000/svg" xml:space="preserve" height="48" width="48" version="1.1" xmlns:cc="http://creativecommons.org/ns#" xmlns:dc="http://purl.org/dc/elements/1.1/" viewBox="0 0 48 48"><path style="fill:#000000" d="m42.066 14.811c-0.67178-0.15281-1.4987-0.60594-1.3341-1.4245 0.1301-0.85881 1.1793-0.80411 1.6251-1.3736 0.61182-0.72592-0.08662-1.5291-0.35089-2.2335-0.25-0.774-1.157-1.1403-1.859-0.7038-0.775 0.7118-2.172-0.0015-1.881-1.061 0.298-0.6219 0.597-1.5744-0.129-2.0276-0.689-0.3251-1.455-0.7427-2.228-0.677-0.894 0.1871-0.795 1.2319-1.315 1.7732-0.543 0.5779-1.543 0.2562-1.767-0.4739-0.182-0.7971-1.035-1.357-1.817-0.9726-0.688 0.4079-1.85 0.5585-1.88 1.5625 0.07689 0.79054 0.98496 1.7293 0.09929 2.3972-0.70578 0.59181-1.4571-0.18883-2.2045-0.12123-0.92227 0.039905-1.0383 1.0828-1.3275 1.7504-0.4012 0.73618 0.03273 1.6192 0.83632 1.8078 1.0575 0.01948 1.5735 1.5944 0.55709 2.0786-0.68664 0.21934-1.5663 0.78178-1.2494 1.6291 0.33292 0.69758 0.5055 1.629 1.2229 2.0287 0.81997 0.43423 1.4667-0.55396 2.2802-0.329 1.0927 0.27342 0.77136 1.5358 0.44151 2.2871-0.1589 1.0171 0.97763 1.3453 1.7327 1.5685 0.76274 0.50836 1.8157-0.09451 1.8872-0.97503 0.15452-0.69 0.95385-1.2076 1.6106-0.81704 0.70342 0.39544 0.59474 1.5299 1.4811 1.6956 0.8784 0.14411 1.689-0.4763 2.4143-0.89235 0.83929-0.75237-0.19371-1.6525-0.16485-2.4876 0.11707-0.85031 1.2002-1.1166 1.8416-0.66396 0.70438 0.3706 1.5868-0.07189 1.7025-0.86233 0.28247-0.75649 0.88551-1.8694-0.06464-2.4129l-0.16199-0.0696zm-4.4164 0.32533c-0.68827 2.1356-3.5355 3.1163-5.4042 1.8759-1.8013-1.0698-2.322-3.7515-0.98671-5.3873 1.2292-1.6403 3.8668-1.9266 5.374-0.50591 1.0998 0.97403 1.5531 2.6371 1.0171 4.0176z"/><path style="fill:#000000" d="m30.077 26.898c-1.0312 0.13002-2.4372-0.08573-2.6263-1.3311-0.2587-1.2846 1.2569-1.7485 1.5951-2.7858 0.49279-1.3448-0.91177-2.123-1.6499-2.9853-0.755-0.9685-2.2292-1.02-2.9989-0.03908-0.7311 1.4089-3.0798 1.1186-3.2147-0.53321 0.10264-1.0359 0.03444-2.5402-1.2288-2.8081-1.1438-0.10566-2.4457-0.30221-3.5079 0.18995-1.1712 0.7266-0.49068 2.1563-0.94903 3.1922-0.4717 1.0995-2.0548 1.1592-2.7494 0.23972-0.66994-1.0358-2.168-1.3895-3.0777-0.44119-0.76484 0.93328-2.3352 1.7466-1.8587 3.1849 0.51691 1.081 2.2886 1.9433 1.3777 3.3472-0.69519 1.2032-2.1631 0.48414-3.1877 0.96562-1.2869 0.53245-0.91324 2.0708-0.97876 3.1665-0.18891 1.2507 0.88189 2.2786 2.1184 2.1314 1.5092-0.51805 3.0534 1.4484 1.8623 2.6592-0.86024 0.66525-1.8171 1.9165-0.93068 2.9541 0.83191 0.81714 1.5572 2.0486 2.7805 2.245 1.3865 0.19249 1.7934-1.5421 3.0628-1.6429 1.6901-0.1762 1.886 1.7792 1.806 3.0145 0.29955 1.5239 2.0801 1.4028 3.2657 1.3295 1.3436 0.32713 2.5253-1.0708 2.1724-2.356-0.13699-1.0579 0.72913-2.2041 1.8616-1.9893 1.2013 0.19765 1.6325 1.862 2.9746 1.6396 1.3196-0.24895 2.1486-1.5467 2.9622-2.5108 0.80161-1.4997-1.1273-2.2428-1.5172-3.4414-0.27278-1.2659 1.1253-2.2023 2.2682-1.8915 1.1898 0.16192 2.2125-0.9207 1.9686-2.1009 0.01017-1.2182 0.29075-3.1071-1.3366-3.3872l-0.26556-0.01524zm-6.0931 2.74c0.12621 3.3828-3.4041 6.2421-6.6934 5.4479-3.1057-0.58722-5.2276-4.1202-4.1786-7.1282 0.89616-2.9596 4.4878-4.7264 7.3574-3.4901 2.0618 0.81335 3.5624 2.9371 3.515 5.1707z"/></svg>
