<?xml version="1.0" encoding="UTF-8" standalone="no"?>
<svg xmlns:rdf="http://www.w3.org/1999/02/22-rdf-syntax-ns#" xmlns="http://www.w3.org/2000/svg" height="48" width="48" version="1.1" xmlns:cc="http://creativecommons.org/ns#" xmlns:dc="http://purl.org/dc/elements/1.1/" viewBox="0 0 48 48">
<path style="fill:#000000" d="m23.36 5.0016c-2.6874 0.067413-5.0194 2.7167-4.194 5.2802 0.43243 1.7988 3.2246 3.6183 1.215 5.4189-0.71964 0.56592-4.1208 0.67576-5.833 0.69543h-1.9476c-1.0528 0-1.9007 0.84597-1.9007 1.8988v22.805c0.001 1.052 0.849 1.9 1.902 1.9h22.805c1.0528 0 1.9007-0.84792 1.9007-1.9007v-22.805c0-1.0528-0.84792-1.8988-1.9007-1.8988h-1.0353c-0.16202-0.000586-6.0611-0.02353-6.8722-0.5079-2.2802-1.5527 0.21164-3.6769 0.89858-5.3368 1.0886-2.7167-1.5172-5.775-4.4929-5.5302-0.18147-0.019244-0.3639-0.024029-0.54306-0.019534zm-12.658 14.244s-0.06124 5.8596 0.70129 6.8292c1.8006 2.0096 3.6201-0.78066 5.4189-1.2131 2.7343-0.88038 5.5666 1.8316 5.2587 4.7352 0.24482 2.9757-2.8135 5.5815-5.5302 4.4929-1.6599-0.68694-3.7842-3.1788-5.3368-0.89858-0.49102 0.82225-0.50985 6.9582-0.50985 6.9582l-0.002-20.904zm26.602 0-0.002 20.904s-0.01687-6.1359-0.5079-6.9582c-1.5527-2.2802-3.6789 0.21164-5.3388 0.89858-2.7167 1.0886-5.775-1.5172-5.5302-4.4929-0.30791-2.9036 2.5263-5.6155 5.2606-4.7352 1.7988 0.43243 3.6183 3.2227 5.4189 1.2131 0.76257-0.96963 0.69933-6.8292 0.69933-6.8292z"/>
</svg>
