<?xml version="1.0" encoding="UTF-8" standalone="no"?>
<svg xmlns:rdf="http://www.w3.org/1999/02/22-rdf-syntax-ns#" xmlns="http://www.w3.org/2000/svg" height="48" width="48" version="1.1" xmlns:cc="http://creativecommons.org/ns#" xmlns:dc="http://purl.org/dc/elements/1.1/" viewBox="0 0 48 48">
<path style="fill:#000000" d="m41.056 6.2584c-2.005-1.8936-5.629-1.6645-6.894 0.7849-0.994 1.6127-0.287 4.9467-3.06 4.7957-0.935-0.111-3.49-2.4897-4.75-3.713l-1.419-1.4088c-0.76615-0.76093-1.9983-0.76236-2.7645-0.00143l-0.69219 0.68748 0.0014 0.0014s-4.308 4.19-4.4587 5.4419c-0.1521 2.7539 3.2031 2.0531 4.8269 3.0407 2.6305 1.34 2.7166 5.3474 0.3795 7.2234-1.9873 2.3277-6.1081 2.0008-7.2929-0.74959-0.70805-1.6962-0.44004-5.0319-3.2293-4.506-0.9557 0.2394-5.4366 4.6599-5.4366 4.6599l-0.00284-0.0029-0.69077 0.68606c-0.76484 0.76108-0.76487 1.9874 0.00142 2.7485l16.596 16.483c0.76615 0.76093 1.9998 0.76092 2.7659 0l0.69077-0.68606-0.0029-0.0029s4.4536-4.4475 4.6947-5.3968c0.52942-2.7703-2.8319-2.5069-4.5397-3.2101-2.7692-1.1767-3.0984-5.2694-0.75473-7.2432 1.8889-2.3212 5.9252-2.2342 7.2744 0.37832 0.99434 1.6127 0.28878 4.945 3.0616 4.794 1.2606-0.14966 5.4778-4.4298 5.4778-4.4298l0.0014 0.0014 0.69219-0.68748c0.76615-0.76093 0.76613-1.9862 0-2.7471l-0.75331-0.74818c-0.11748-0.11753-4.3929-4.3969-4.6307-5.3332-0.52942-2.7703 2.8291-2.5041 4.5369-3.2073 2.7692-1.1767 3.0969-5.2708 0.75331-7.2446-0.118-0.145-0.24721-0.28025-0.38086-0.40649l-0.0014-0.00143z"/>
</svg>
