<?xml version="1.0" encoding="UTF-8"?>
<svg width="50" height="50" version="1.1" viewBox="0 0 50 50" xmlns="http://www.w3.org/2000/svg">
<path d="m20 10c0 2.5 3.75 5 1.25 6.25s-7.5 1.25-7.5 1.25-2.5 0-2.5 2.5v6.25c0 1.25 1.25 1.25 1.25 1.25 2.5 0 2.5-1.25 5-1.25 0 0 5 0 5 5s-5 5-5 5c-2.5 0-2.5-1.25-5-1.25 0 0-1.25 0-1.25 1.25v6.25s0 2.5 2.5 2.5h22.5c2.5 0 2.5-2.5 2.5-2.5v-6.25c0-1.25-1.25-1.25-1.25-1.25-2.5 0-2.5 1.25-5 1.25 0 0-5 0-5-5s5-5 5-5c2.5 0 2.5 1.25 5 1.25 0 0 1.25 0 1.25-1.25v-6.25s0-2.5-2.5-2.5c0 0-5 0-7.5-1.25s1.25-3.75 1.25-6.25-1.25-5-5-5-5 2.5-5 5z"/>
</svg>
