<?xml version="1.0" encoding="UTF-8" standalone="no"?>
<svg xmlns:rdf="http://www.w3.org/1999/02/22-rdf-syntax-ns#" xmlns="http://www.w3.org/2000/svg" height="48" width="48" version="1.1" xmlns:cc="http://creativecommons.org/ns#" xmlns:dc="http://purl.org/dc/elements/1.1/" viewBox="0 0 48 48">
<path style="fill-rule:evenodd;fill:#000000" d="m23.955 5.002c-4.37-0.0301-8.753 1.8226-11.562 5.211-0.725 1.205-2.736 2.577-1.809 4.099 1.23 0.997 2.514 1.927 3.766 2.897 0.77 0.484 1.494 1.53 2.515 1.092 1.189-1.089 2.054-2.528 3.324-3.555 1.935-1.473 4.892-1.442 6.842-0.008 1.122 0.694 1.483 2.142 1.028 3.34-0.714 2.009-3.015 2.423-4.598 3.506-2.297 1.583-4.557 3.902-4.627 6.863 0.037 1.074-0.251 2.488 0.854 3.119 2.415 0.08 4.841 0.011 7.261 0.034 1.668-0.171 1.025-2.308 1.983-3.26 1.133-2.072 3.618-2.597 5.269-4.111 2.32-1.666 3.53-4.544 3.514-7.354 0.032-2.705-1.222-5.269-3.018-7.2344-2.766-2.8772-6.731-4.6766-10.742-4.6386zm-0.631 28.07c-1.555 0.055-3.086 0.78-3.951 2.153-1.931 2.606-0.483 6.758 2.648 7.599 3.059 1.072 6.602-1.533 6.479-4.775 0.003-1.119-0.386-2.235-1.084-3.11-0.96-1.307-2.537-1.922-4.092-1.867z"/>
</svg>
