<?xml version="1.0" encoding="UTF-8" standalone="no"?>
<svg xmlns:rdf="http://www.w3.org/1999/02/22-rdf-syntax-ns#" xmlns="http://www.w3.org/2000/svg" height="48" width="48" version="1.1" xmlns:cc="http://creativecommons.org/ns#" xmlns:dc="http://purl.org/dc/elements/1.1/" viewBox="0 0 48 48">
<path style="fill-rule:evenodd;fill:#000000" d="m24 5a19 19 0 0 0 -19 19 19 19 0 0 0 19 19 19 19 0 0 0 19 -19 19 19 0 0 0 -19 -19zm-0.057 5v0.002c2.951-0.028 5.868 1.294 7.903 3.41 1.321 1.446 2.242 3.333 2.218 5.322 0.012 2.067-0.877 4.183-2.584 5.409-1.214 1.113-3.041 1.501-3.875 3.025-0.704 0.7-0.232 2.271-1.459 2.396-1.78-0.017-3.565 0.034-5.341-0.025-0.813-0.464-0.6-1.503-0.627-2.293 0.051-2.178 1.713-3.884 3.402-5.049 1.164-0.796 2.858-1.1 3.383-2.578 0.335-0.881 0.069-1.946-0.756-2.457-1.434-1.055-3.61-1.077-5.033 0.006-0.934 0.755-1.571 1.814-2.445 2.615-0.751 0.322-1.284-0.448-1.85-0.804-0.921-0.714-1.865-1.398-2.77-2.131-0.681-1.12 0.797-2.128 1.33-3.014 2.067-2.492 5.29-3.8562 8.504-3.834zm-0.463 20.646c1.144-0.04 2.304 0.412 3.01 1.374 0.514 0.643 0.799 1.466 0.797 2.289 0.091 2.384-2.515 4.3-4.766 3.511-2.303-0.618-3.367-3.673-1.947-5.59 0.636-1.009 1.763-1.543 2.906-1.584z"/>
</svg>
