<?xml version="1.0" encoding="UTF-8" standalone="no"?>
<svg xmlns:rdf="http://www.w3.org/1999/02/22-rdf-syntax-ns#" xmlns="http://www.w3.org/2000/svg" height="48" width="48" version="1.1" xmlns:cc="http://creativecommons.org/ns#" xmlns:dc="http://purl.org/dc/elements/1.1/" viewBox="0 0 48 48">
<path style="fill:#000000" d="m8 6c-1.662 0-3 1.338-3 3v15c0 1.662 1.338 3 3 3h5.25c1.2465 0 2.25 1.0035 2.25 2.25v1.5c0 2.1424-1.6076 3.75-3.75 3.75-1.2465 0-2.25 1.0035-2.25 2.25v3c0 1.246 1.004 2.25 2.25 2.25 6.168 0 11.25-5.082 11.25-11.25v-6.75-5.25-9.75c0-1.662-1.338-3-3-3h-12zm20 0c-1.662 0-3 1.338-3 3v15c0 1.662 1.338 3 3 3h5.25c1.2465 0 2.25 1.0035 2.25 2.25v1.5c0 2.1424-1.6076 3.75-3.75 3.75-1.2465 0-2.25 1.0035-2.25 2.25v3c0 1.246 1.004 2.25 2.25 2.25 6.168 0 11.25-5.082 11.25-11.25v-6.75-5.25-9.75c0-1.662-1.338-3-3-3h-12z"/>
</svg>
