<?xml version="1.0" encoding="UTF-8" standalone="no"?>
<svg xmlns:rdf="http://www.w3.org/1999/02/22-rdf-syntax-ns#" xmlns="http://www.w3.org/2000/svg" height="48" width="48" version="1.1" xmlns:cc="http://creativecommons.org/ns#" xmlns:dc="http://purl.org/dc/elements/1.1/" viewBox="0 0 48 48">
<path style="fill:#000000" d="m7.834 7c-1.5697 0-2.834 1.2643-2.834 2.834v14.166c0 1.5697 1.2643 2.834 2.834 2.834h4.957c1.1772 0 2.125 0.94775 2.125 2.125v1.416c0 2.0233-1.5177 3.541-3.541 3.541-1.1772 0-2.125 0.94775-2.125 2.125v2.834c0 1.177 0.948 2.125 2.125 2.125 5.825 0 10.625-4.8 10.625-10.625v-6.375-4.959-9.207c0-1.5697-1.264-2.834-2.834-2.834h-11.332zm21 0c-1.57 0-2.834 1.2643-2.834 2.834v14.166c0 1.5697 1.2643 2.834 2.834 2.834h4.957c1.1772 0 2.125 0.94775 2.125 2.125v1.416c0 2.0233-1.5177 3.541-3.541 3.541-1.1772 0-2.125 0.94775-2.125 2.125v2.834c0 1.177 0.948 2.125 2.125 2.125 5.825 0 10.625-4.8 10.625-10.625v-6.375-4.959-9.207c0-1.5697-1.264-2.834-2.834-2.834h-11.332z"/>
</svg>
