<?xml version="1.0" encoding="UTF-8" standalone="no"?>
<svg xmlns:rdf="http://www.w3.org/1999/02/22-rdf-syntax-ns#" xmlns="http://www.w3.org/2000/svg" height="48" width="48" version="1.1" xmlns:cc="http://creativecommons.org/ns#" xmlns:dc="http://purl.org/dc/elements/1.1/" viewBox="0 0 48 48">
<path style="fill:#000000" d="m19.687 6.5069c-0.20215-0.0137-0.40503-0.0072-0.60744 0.01991h-11.134c-1.7742-0.06067-3.1531 1.6796-2.9203 3.3822 0.00993 4.7978-0.020697 9.5962 0.014259 14.393 0.11748 1.6964 1.8343 2.8302 3.4536 2.6141h6.7532c-0.02008 1.7928 0.21921 3.7657-0.9953 5.2653-1.0844 1.5365-3.0277 2.1531-4.8453 2.0168-1.3922-0.04872-2.3927 1.3449-2.1902 2.654 0.058888 1.0974-0.14801 2.2339 0.17111 3.2968 0.4192 1.1181 1.6713 1.438 2.7492 1.3312 5.1018 0.04905 9.9566-3.3952 11.661-8.1752 1.0622-2.6898 0.67627-5.6084 0.75004-8.4255-0.0099-5.2464 0.02063-10.493-0.01431-15.739-0.1028-1.4843-1.4311-2.5386-2.8462-2.6341zm20.442 0c-0.20215-0.0137-0.40503-0.0072-0.60745 0.01991h-11.134c-1.7742-0.06067-3.1531 1.6796-2.9203 3.3822 0.0099 4.7978-0.02069 9.5962 0.01431 14.393 0.11748 1.6964 1.8343 2.8302 3.4536 2.6141h6.7532c-0.02008 1.7928 0.21921 3.7657-0.9953 5.2653-1.0844 1.5365-3.0277 2.1531-4.8453 2.0168-1.3922-0.04872-2.3927 1.3449-2.1902 2.654 0.05889 1.0974-0.14801 2.2339 0.17111 3.2968 0.4192 1.1181 1.6713 1.438 2.7492 1.3312 5.1018 0.04905 9.9566-3.3952 11.661-8.1752 1.0622-2.6898 0.67627-5.6084 0.75004-8.4255-0.0099-5.2464 0.02063-10.493-0.01431-15.739-0.10279-1.4843-1.4311-2.5386-2.8461-2.6341z"/>
</svg>
