<?xml version="1.0" encoding="UTF-8" standalone="no"?>
<svg xmlns:rdf="http://www.w3.org/1999/02/22-rdf-syntax-ns#" xmlns="http://www.w3.org/2000/svg" height="48" width="48" version="1.1" xmlns:cc="http://creativecommons.org/ns#" xmlns:dc="http://purl.org/dc/elements/1.1/" viewBox="0 0 48 48">
<path style="fill:#000000" d="m7 5c-0.52 0.0006-1.0178 0.2058-1.3926 0.5664-0.3879 0.3762-0.6068 0.8933-0.6074 1.4336v8.484c0.0007 1.782 2.154 2.673 3.4141 1.414l2.4749-2.474 22.687 22.687-2.474 2.475c-1.259 1.26-0.368 3.413 1.414 3.414h8.484c0.52-0.001 1.018-0.206 1.393-0.566 0.387-0.377 0.606-0.894 0.607-1.434v-8.484c-0.001-1.782-2.154-2.673-3.414-1.414l-2.475 2.474-22.687-22.687 2.474-2.4749c1.259-1.2601 0.368-3.4134-1.414-3.4141h-8.484z"/>
</svg>
