<?xml version="1.0" encoding="UTF-8" standalone="no"?>
<svg xmlns:rdf="http://www.w3.org/1999/02/22-rdf-syntax-ns#" xmlns="http://www.w3.org/2000/svg" height="48" width="48" version="1.1" xmlns:cc="http://creativecommons.org/ns#" xmlns:dc="http://purl.org/dc/elements/1.1/" viewBox="0 0 48 48">
<path style="fill:#000000" d="m42.039 5.002c-1.645 0.1046-5.205 0.4847-9.578 1.9375-1.336 0.4439-2.741 0.9839-4.184 1.6484-2.164 0.9965-4.411 2.2671-6.623 3.8851-1.474 1.078-2.932 2.311-4.342 3.72-0.52 0.521-0.976 1.086-1.386 1.672-1.999-0.16-5.059-0.106-6.6252 1.461-0.2658 0.266-0.5132 0.547-0.752 0.832-0.0907 0.109-0.1745 0.221-0.2617 0.332-0.1085 0.138-0.2136 0.277-0.3164 0.418-0.3413 0.469-0.6601 0.95-0.9453 1.44-0.0408 0.07-0.0757 0.14-0.1152 0.211-0.1782 0.315-0.3319 0.629-0.4883 0.943-0.6211 1.263-1.0831 2.489-1.3926 3.471-0.0893 0.528 0.0196 1.039 0.3672 1.386 0.3301 0.331 0.8053 0.452 1.3047 0.387 0.0016 0 0.0043 0.006 0.0058 0.006l5.773-0.824-0.001 2.761 4.833 4.834 2.762-0.002-0.824 5.774c0 0.001 0.006 0.004 0.006 0.006-0.065 0.499 0.056 0.972 0.387 1.303 0.347 0.347 0.854 0.456 1.382 0.367 0.978-0.309 2.205-0.767 3.463-1.385 0.325-0.162 0.649-0.321 0.975-0.506 0.062-0.035 0.124-0.066 0.185-0.101 0.492-0.287 0.975-0.607 1.446-0.95 0.14-0.102 0.28-0.206 0.418-0.314 0.111-0.087 0.223-0.173 0.332-0.264 0.285-0.239 0.564-0.486 0.83-0.752 1.567-1.566 1.621-4.624 1.461-6.623 0.586-0.41 1.151-0.866 1.672-1.387 5.637-5.637 8.45-12.071 9.851-17.097 0.986-3.536 1.258-6.2908 1.342-7.6623 0.006-0.2768-0.066-0.5228-0.236-0.6934-0.178-0.1776-0.434-0.2473-0.725-0.2343zm-11.842 9.58c0.89 0 1.695 0.36 2.278 0.943 0.145 0.146 0.28 0.303 0.396 0.475v0.002c0.115 0.171 0.214 0.353 0.295 0.545l0.002 0.002c0.163 0.385 0.25 0.811 0.25 1.256 0 1.78-1.439 3.22-3.219 3.22s-3.222-1.442-3.222-3.222 1.44-3.221 3.22-3.221zm-19.004 17.719c-0.612 0.161-1.1931 0.471-1.6715 0.949-0.556 0.556-0.9506 1.276-1.2285 2.043-0.0007 0.002-0.0014 0.004-0.002 0.006-0.546 1.53-0.6398 3.251-0.6426 4.232-0.0005 0.18 0.0044 0.176 0.0078 0.291 0.0001 0.001 0.004 0.002 0.004 0.002 0.0011 0.163 0.044 0.296 0.1367 0.389 0.0868 0.087 0.2127 0.126 0.3613 0.133h0.0137c0.1256 0.003 0.1128 0.008 0.2969 0.008 0.9855-0.003 2.7182-0.1 4.2542-0.653 0.76-0.277 1.475-0.668 2.027-1.221 0.478-0.478 0.79-1.061 0.951-1.673l-4.508-4.506z"/>
</svg>
