<?xml version="1.0" encoding="UTF-8" standalone="no"?>
<svg xmlns:rdf="http://www.w3.org/1999/02/22-rdf-syntax-ns#" xmlns="http://www.w3.org/2000/svg" height="48" width="48" version="1.1" xmlns:cc="http://creativecommons.org/ns#" xmlns:dc="http://purl.org/dc/elements/1.1/" viewBox="0 0 48 48">
<path style="fill:#000000" d="m8.4551 5c-1.9087 0-3.4551 1.5464-3.4551 3.4551v31.09c0 1.909 1.5464 3.455 3.4551 3.455h31.09c1.909 0 3.455-1.546 3.455-3.455v-27.637l-6.908-6.908h-3.455v10.363c0 0.954-0.775 1.729-1.729 1.729h-15.545c-0.953 0-1.726-0.775-1.726-1.729v-10.363h-5.1819zm16.815 1c-0.703 0-1.27 0.5666-1.27 1.2695v6.4605c0 0.703 0.567 1.27 1.27 1.27h3.46c0.703 0 1.27-0.567 1.27-1.27v-6.4605c0-0.7029-0.567-1.2695-1.27-1.2695h-3.46zm-10.625 19h18.71c1.466 0 2.645 1.179 2.645 2.645v8.71c0 1.466-1.179 2.645-2.645 2.645h-18.71c-1.466 0-2.645-1.179-2.645-2.645v-8.71c0-1.466 1.179-2.645 2.645-2.645z"/>
</svg>
