<?xml version="1.0" encoding="UTF-8" standalone="no"?>
<svg xmlns:rdf="http://www.w3.org/1999/02/22-rdf-syntax-ns#" xmlns="http://www.w3.org/2000/svg" xml:space="preserve" height="48" viewBox="0 0 48 48" width="48" version="1.1" xmlns:cc="http://creativecommons.org/ns#" xmlns:dc="http://purl.org/dc/elements/1.1/">
<path style="fill:#000000" d="m24 5c-7.112 0-14.51 1.6426-14.51 1.6426l-0.00586 0.00586c-1.4428 0.2959-2.4825 1.5935-2.4841 3.1015v9.5c0 16.464 15.488 23.346 15.488 23.346 0.462 0.265 0.982 0.404 1.512 0.404 0.52759-0.0011 1.0458-0.13978 1.5059-0.4043h0.0059c0.002 0 15.488-6.882 15.488-23.346v-9.5c0.001-1.5123-1.042-2.8135-2.49-3.1074 0 0-7.398-1.6426-14.51-1.6426zm-8.4805 6c0.37398 0 0.74663 0.14312 1.0332 0.42969l7.447 7.445 7.445-7.445c0.57313-0.57314 1.4972-0.57314 2.0703 0l1.0547 1.0547c0.57314 0.57313 0.57314 1.4972 0 2.0703l-7.447 7.445 7.4473 7.4453c0.57314 0.57313 0.57314 1.4972 0 2.0703l-1.0547 1.0547c-0.57313 0.57314-1.4972 0.57314-2.0703 0l-7.445-7.447-7.445 7.447c-0.57313 0.57314-1.4972 0.57314-2.0703 0l-1.0547-1.0547c-0.57314-0.57313-0.57314-1.4972 0-2.0703l7.445-7.445-7.445-7.445c-0.57314-0.57313-0.57314-1.4972 0-2.0703l1.0566-1.0547c0.286-0.287 0.659-0.43 1.033-0.43z"/>
</svg>
