<?xml version="1.0" encoding="UTF-8" standalone="no"?>
<svg xmlns:rdf="http://www.w3.org/1999/02/22-rdf-syntax-ns#" xmlns="http://www.w3.org/2000/svg" xml:space="preserve" height="48" width="48" version="1.1" xmlns:cc="http://creativecommons.org/ns#" xmlns:dc="http://purl.org/dc/elements/1.1/" viewBox="0 0 48 48"><path style="fill:#000000" d="m24 5c-7.112 0-14.51 1.6426-14.51 1.6426l-0.0056 0.0058c-1.4428 0.2959-2.4828 1.5936-2.4844 3.1016v9.5c0 16.464 15.488 23.346 15.488 23.346 0.462 0.265 0.982 0.404 1.512 0.404 0.528-0.001 1.046-0.14 1.506-0.404h0.006c0.002 0 15.488-6.882 15.488-23.346v-9.5c0.001-1.5123-1.042-2.8135-2.49-3.1074 0 0-7.398-1.6426-14.51-1.6426zm-8.096 6c0.357 0 0.713 0.137 0.987 0.41l7.109 7.108 7.105-7.108c0.548-0.547 1.43-0.547 1.977 0l1.008 1.006c0.547 0.547 0.547 1.43 0 1.977l-7.11 7.107 7.11 7.107c0.547 0.548 0.547 1.428 0 1.975l-1.008 1.008c-0.547 0.547-1.428 0.547-1.975 0l-7.107-7.11-7.107 7.11c-0.548 0.547-1.428 0.547-1.975 0l-1.008-1.008c-0.547-0.547-0.547-1.428 0-1.975l7.108-7.107-7.108-7.107c-0.547-0.548-0.547-1.428 0-1.975l1.008-1.008c0.273-0.274 0.629-0.41 0.986-0.41z"/></svg>
