<?xml version="1.0" encoding="UTF-8" standalone="no"?>
<svg xmlns:rdf="http://www.w3.org/1999/02/22-rdf-syntax-ns#" xmlns="http://www.w3.org/2000/svg" xml:space="preserve" height="48" viewBox="0 0 48 48" width="48" version="1.1" xmlns:cc="http://creativecommons.org/ns#" xmlns:dc="http://purl.org/dc/elements/1.1/" enable-background="new 0 0 128 128"><path style="fill:#000000" d="m24 5c-7.112 0-14.51 1.6426-14.51 1.6426l-0.00586 0.00586c-1.4425 0.2958-2.4825 1.5935-2.4841 3.1015v9.5c0 16.464 15.488 23.346 15.488 23.346 0.462 0.265 0.982 0.404 1.512 0.404 0.528-0.001 1.0459-0.1403 1.5059-0.4043h0.0059c0.002 0 15.488-6.882 15.488-23.346v-9.5c0.001-1.5123-1.042-2.8135-2.49-3.1074 0 0-7.398-1.6426-14.51-1.6426zm-6.4531 7c0.46652 0 0.93355 0.17962 1.291 0.53711l5.1641 5.1621 5.1602-5.1621c0.71494-0.71499 1.8671-0.71499 2.582 0l1.7207 1.7207c0.71494 0.71499 0.71494 1.8651 0 2.5801l-5.162 5.162 5.1621 5.1621c0.71494 0.71499 0.71494 1.8651 0 2.5801l-1.7207 1.7207c-0.71494 0.71499-1.8671 0.71499-2.582 0l-5.1602-5.1602-5.1641 5.1602c-0.71494 0.71499-1.8671 0.71499-2.582 0l-1.7188-1.7207c-0.71494-0.71499-0.71494-1.8651 0-2.5801l5.16-5.162-5.16-5.162c-0.71494-0.71499-0.71494-1.8651 0-2.5801l1.7188-1.7207c0.357-0.357 0.824-0.537 1.291-0.537z"/></svg>
