<?xml version="1.0" encoding="UTF-8" standalone="no"?>
<svg xmlns:rdf="http://www.w3.org/1999/02/22-rdf-syntax-ns#" xmlns="http://www.w3.org/2000/svg" xml:space="preserve" height="48" viewBox="0 0 48 48" width="48" version="1.1" xmlns:cc="http://creativecommons.org/ns#" xmlns:dc="http://purl.org/dc/elements/1.1/" enable-background="new 0 0 128 128"><path style="fill:#000000" d="m24 5c-7.112 0-14.51 1.6426-14.51 1.6426l-0.00586 0.00586c-1.4425 0.2958-2.4825 1.5935-2.4841 3.1015v9.5c0 16.464 15.488 23.346 15.488 23.346 0.462 0.265 0.982 0.404 1.512 0.404 0.528-0.001 1.0459-0.1403 1.5059-0.4043h0.0059c0.002 0 15.488-6.882 15.488-23.346v-9.5c0.001-1.5123-1.042-2.8135-2.49-3.1074 0 0-7.398-1.6426-14.51-1.6426zm8.7285 8.0371v0.002c0.43027 0 0.85971 0.1661 1.1895 0.49609l1.5879 1.5879c0.65939 0.65999 0.65939 1.7209 0 2.3809l-11.904 11.912-1.5859 1.5898c-0.65939 0.65999-1.7215 0.65999-2.3809 0l-1.5859-1.5898-5.5547-5.5586c-0.65939-0.65999-0.65939-1.7228 0-2.3828l1.5879-1.5879c0.65939-0.65999 1.7195-0.65999 2.3789 0l4.3652 4.3691 10.713-10.723c0.3297-0.32999 0.75913-0.49609 1.1895-0.49609z"/></svg>
