<?xml version="1.0" encoding="UTF-8" standalone="no"?>
<svg xmlns:rdf="http://www.w3.org/1999/02/22-rdf-syntax-ns#" xmlns="http://www.w3.org/2000/svg" xml:space="preserve" height="48" viewBox="0 0 48 48" width="48" version="1.1" xmlns:cc="http://creativecommons.org/ns#" xmlns:dc="http://purl.org/dc/elements/1.1/" enable-background="new 0 0 128 128">
<path style="fill:#000000" d="m24 5c-7.112 0-14.51 1.6426-14.51 1.6426l-0.0056 0.0058c-1.4431 0.296-2.4828 1.5936-2.4844 3.1016v9.5c0 16.464 15.488 23.346 15.488 23.346 0.462 0.265 0.982 0.404 1.512 0.404 0.528-0.001 1.046-0.14 1.506-0.404h0.006c0.002 0 15.488-6.882 15.488-23.346v-9.5c0.001-1.5123-1.042-2.8135-2.49-3.1074 0 0-7.398-1.6426-14.51-1.6426zm9.035 7.832c0.338-0.03 0.685 0.071 0.967 0.307l1.523 1.279c0.563 0.472 0.637 1.303 0.164 1.865l-13.209 15.742c-0.356 0.425-0.917 0.57-1.414 0.413-0.078-0.025-0.155-0.059-0.23-0.098-0.082-0.044-0.164-0.094-0.238-0.156l-8.123-6.817c-0.563-0.472-0.637-1.306-0.164-1.869l1.279-1.523c0.472-0.563 1.304-0.636 1.867-0.164l5.596 4.697 11.082-13.205c0.236-0.282 0.563-0.441 0.9-0.471z"/>
</svg>
