<?xml version="1.0" encoding="UTF-8" standalone="no"?>
<svg xmlns:rdf="http://www.w3.org/1999/02/22-rdf-syntax-ns#" xmlns="http://www.w3.org/2000/svg" height="48" width="48" version="1.1" xmlns:cc="http://creativecommons.org/ns#" xmlns:dc="http://purl.org/dc/elements/1.1/" viewBox="0 0 48.000001 48.000001">
<path style="fill:#000000" d="m27.166 5c-0.811 0-1.621 0.3086-2.238 0.9277l-19 19c-1.2369 1.236-1.2369 3.242-0.0003 4.478l12.666 12.666c1.236 1.237 3.242 1.237 4.478 0l19-19c0.619-0.617 0.928-1.427 0.928-2.238v-6.635-2.865-2.5332c0-2.1059-1.695-3.8008-3.801-3.8008h-2.533-2.865-6.635zm9.5 3.166c1.75 0 3.168 1.4184 3.168 3.168 0 1.75-1.418 3.166-3.168 3.166s-3.166-1.416-3.166-3.166c0-1.7496 1.416-3.168 3.166-3.168z"/>
</svg>
