<?xml version="1.0" encoding="UTF-8" standalone="no"?>
<svg xmlns:rdf="http://www.w3.org/1999/02/22-rdf-syntax-ns#" xmlns="http://www.w3.org/2000/svg" height="48" width="48" version="1.1" xmlns:cc="http://creativecommons.org/ns#" xmlns:dc="http://purl.org/dc/elements/1.1/" viewBox="0 0 48 48">
<path style="fill:#000000" d="m11.631 9.4004c-0.238 0-0.476 0.0926-0.658 0.2793l-2.85 2.9203-1.0957-1.123c-0.3643-0.374-0.9501-0.374-1.3144 0l-0.4395 0.449c-0.3643 0.373-0.3643 0.974 0 1.347l1.7539 1.797 0.4375 0.45c0.0911 0.093 0.1948 0.164 0.3067 0.21 0.1119 0.047 0.2327 0.071 0.3515 0.071 0.237-0.001 0.4747-0.095 0.6563-0.281l0.4395-0.45 3.5082-3.593c0.364-0.374 0.364-0.973 0-1.346l-0.436-0.4513c-0.182-0.1867-0.422-0.2793-0.66-0.2793zm5.369 0.5996c-1.108 0-2 0.892-2 2v2c0 1.108 0.892 2 2 2h24c1.108 0 2-0.892 2-2v-2c0-1.108-0.892-2-2-2h-24zm-5.369 10.4c-0.238 0-0.476 0.093-0.658 0.28l-2.85 2.92-1.0957-1.123c-0.3643-0.374-0.9501-0.374-1.3144 0l-0.4395 0.449c-0.3643 0.373-0.3643 0.974 0 1.347l1.7539 1.797 0.4375 0.45c0.0911 0.093 0.1948 0.164 0.3067 0.21 0.1119 0.047 0.2327 0.071 0.3515 0.071 0.237-0.001 0.4747-0.095 0.6563-0.281l0.4395-0.45 3.5082-3.593c0.364-0.374 0.364-0.973 0-1.346l-0.436-0.451c-0.182-0.187-0.422-0.28-0.66-0.28zm5.369 0.6c-1.108 0-2 0.892-2 2v2c0 1.108 0.892 2 2 2h24c1.108 0 2-0.892 2-2v-2c0-1.108-0.892-2-2-2h-24zm-9 11a3 3 0 0 0 -3 3 3 3 0 0 0 3 3 3 3 0 0 0 3 -3 3 3 0 0 0 -3 -3zm9 0c-1.108 0-2 0.892-2 2v2c0 1.108 0.892 2 2 2h24c1.108 0 2-0.892 2-2v-2c0-1.108-0.892-2-2-2h-24z"/>
</svg>
