<?xml version="1.0" encoding="UTF-8" standalone="no"?>
<svg xmlns:rdf="http://www.w3.org/1999/02/22-rdf-syntax-ns#" xmlns="http://www.w3.org/2000/svg" height="48" width="48" version="1.1" xmlns:cc="http://creativecommons.org/ns#" xmlns:dc="http://purl.org/dc/elements/1.1/" viewBox="0 0 48 48">
<path style="fill:#000000" d="m17 10c-1.108 0-2 0.892-2 2v2c0 1.108 0.892 2 2 2h24c1.108 0 2-0.892 2-2v-2c0-1.108-0.892-2-2-2h-24zm-6.691 0.5c-0.191 0-0.3819 0.073-0.5278 0.219l-2.2812 2.281-0.877-0.877c-0.2916-0.292-0.761-0.292-1.0527 0l-0.3515 0.35c-0.2917 0.291-0.2917 0.761 0 1.052l1.4042 1.405 0.3497 0.351c0.0729 0.073 0.1565 0.128 0.2461 0.164 0.0895 0.037 0.186 0.055 0.2812 0.055 0.1897 0 0.3801-0.073 0.5254-0.219l0.3516-0.351 2.809-2.807c0.291-0.292 0.291-0.761 0-1.053l-0.35-0.351c-0.146-0.146-0.337-0.219-0.527-0.219zm6.691 10.5c-1.108 0-2 0.892-2 2v2c0 1.108 0.892 2 2 2h24c1.108 0 2-0.892 2-2v-2c0-1.108-0.892-2-2-2h-24zm-6.691 0.5c-0.191 0-0.3819 0.073-0.5278 0.219l-2.2812 2.281-0.877-0.877c-0.2916-0.292-0.761-0.292-1.0527 0l-0.3515 0.35c-0.2917 0.291-0.2917 0.761 0 1.052l1.4042 1.405 0.3497 0.351c0.0729 0.073 0.1565 0.128 0.2461 0.164 0.0895 0.037 0.186 0.055 0.2812 0.055 0.1897 0 0.3801-0.073 0.5254-0.219l0.3516-0.351 2.809-2.807c0.291-0.292 0.291-0.761 0-1.053l-0.35-0.351c-0.146-0.146-0.337-0.219-0.527-0.219zm-2.309 10.5a3 3 0 0 0 -3 3 3 3 0 0 0 3 3 3 3 0 0 0 3 -3 3 3 0 0 0 -3 -3zm9 0c-1.108 0-2 0.892-2 2v2c0 1.108 0.892 2 2 2h24c1.108 0 2-0.892 2-2v-2c0-1.108-0.892-2-2-2h-24z"/>
</svg>
