<?xml version="1.0" encoding="UTF-8" standalone="no"?>
<svg xmlns:rdf="http://www.w3.org/1999/02/22-rdf-syntax-ns#" xmlns="http://www.w3.org/2000/svg" height="48" width="48" version="1.1" xmlns:cc="http://creativecommons.org/ns#" xmlns:dc="http://purl.org/dc/elements/1.1/" viewBox="0 0 48.000001 48.000001">
<path style="color-rendering:auto;fill-rule:evenodd;color:#000000;isolation:auto;mix-blend-mode:normal;text-decoration-color:#000000;shape-rendering:auto;solid-color:#000000;block-progression:tb;text-decoration-line:none;image-rendering:auto;white-space:normal;text-indent:0;text-transform:none;text-decoration-style:solid;fill:#000000" d="m24 5c-10.47 0-19 8.53-19 19s8.53 19 19 19 19-8.53 19-19-8.53-19-19-19zm-1 6c-0.554 0-1 0.446-1 1v13c0 0.01 0.006 0.019 0.006 0.029-0.008 0.266 0.083 0.533 0.287 0.737l6.365 6.363c0.392 0.392 1.023 0.392 1.414 0l1.414-1.414c0.392-0.392 0.392-1.022 0-1.414l-5.486-5.487v-11.814c0-0.554-0.446-1-1-1z"/>
</svg>
