<?xml version="1.0" encoding="UTF-8" standalone="no"?>
<svg xmlns:rdf="http://www.w3.org/1999/02/22-rdf-syntax-ns#" xmlns="http://www.w3.org/2000/svg" height="48" width="48" version="1.1" xmlns:cc="http://creativecommons.org/ns#" xmlns:dc="http://purl.org/dc/elements/1.1/" viewBox="0 0 48.000001 48.000001">
<g transform="translate(0 -1004.4)">
<path style="color-rendering:auto;text-decoration-color:#000000;color:#000000;shape-rendering:auto;solid-color:#000000;text-decoration-line:none;fill:#000000;fill-rule:evenodd;mix-blend-mode:normal;block-progression:tb;text-indent:0;image-rendering:auto;white-space:normal;text-decoration-style:solid;isolation:auto;text-transform:none" d="m24 5c-10.466 0-19 8.534-19 19s8.534 19 19 19 19-8.534 19-19-8.534-19-19-19zm0 4.5762c7.993 0 14.424 6.4308 14.424 14.424 0 7.993-6.431 14.426-14.424 14.426s-14.424-6.433-14.424-14.426c0.0002-7.993 6.431-14.424 14.424-14.424zm-2 3.4238v11.895l6.289 5.63 2.668-2.978-4.957-4.44v-10.107h-4z" transform="translate(0 1004.4)"/>
</g>
</svg>
