<?xml version="1.0" encoding="UTF-8" standalone="no"?>
<svg xmlns:rdf="http://www.w3.org/1999/02/22-rdf-syntax-ns#" xmlns="http://www.w3.org/2000/svg" height="48" width="48" version="1.1" xmlns:cc="http://creativecommons.org/ns#" xmlns:dc="http://purl.org/dc/elements/1.1/" viewBox="0 0 48 48">
<path style="color-rendering:auto;text-decoration-color:#000000;color:#000000;shape-rendering:auto;solid-color:#000000;text-decoration-line:none;fill:#000000;fill-rule:evenodd;mix-blend-mode:normal;block-progression:tb;text-indent:0;image-rendering:auto;white-space:normal;text-decoration-style:solid;isolation:auto;text-transform:none" d="m23 6c-1.108 0-2 0.892-2 2v2h-5.9805-4.02c-1.108 0-2 0.892-2 2s0.892 2 2 2h1v24.98c0 1.643 1.377 3.02 3.02 3.02h17.961c1.642 0 3.019-1.377 3.019-3.02v-24.98h1c1.108 0 2-0.892 2-2s-0.892-2-2-2h-4.02-5.98v-2c0-1.108-0.892-2-2-2h-2zm-7.461 8h7.461 2 7.4609v24.461h-16.922v-24.461zm4.461 2c-0.831 0-1.5 0.669-1.5 1.5v17c0 0.831 0.669 1.5 1.5 1.5h1c0.831 0 1.5-0.669 1.5-1.5v-17c0-0.831-0.669-1.5-1.5-1.5h-1zm7 0c-0.831 0-1.5 0.669-1.5 1.5v17c0 0.831 0.669 1.5 1.5 1.5h1c0.831 0 1.5-0.669 1.5-1.5v-17c0-0.831-0.669-1.5-1.5-1.5h-1z"/>
</svg>
