<?xml version="1.0" encoding="UTF-8" standalone="no"?>
<svg xmlns:rdf="http://www.w3.org/1999/02/22-rdf-syntax-ns#" xmlns="http://www.w3.org/2000/svg" height="48" width="48" version="1.1" xmlns:cc="http://creativecommons.org/ns#" xmlns:dc="http://purl.org/dc/elements/1.1/" viewBox="0 0 48 48">
<path style="fill:#000000" d="m23 6c-1.108 0-2 0.892-2 2v2h-5.98-4.02c-1.108 0-2 0.892-2 2s0.892 2 2 2h1 25c1.108 0 2-0.892 2-2s-0.892-2-2-2h-4.02-5.98v-2c0-1.108-0.892-2-2-2h-2zm-11 9v23.98c0 1.643 1.377 3.02 3.02 3.02h17.96c1.641 0 3.02-1.377 3.02-3.02v-23.98h-24zm7.5 4h1c0.831 0 1.5 0.669 1.5 1.5v15c0 0.831-0.669 1.5-1.5 1.5h-1c-0.831 0-1.5-0.669-1.5-1.5v-15c0-0.831 0.669-1.5 1.5-1.5zm8 0h1c0.831 0 1.5 0.669 1.5 1.5v15c0 0.831-0.669 1.5-1.5 1.5h-1c-0.831 0-1.5-0.669-1.5-1.5v-15c0-0.831 0.669-1.5 1.5-1.5z"/>
</svg>
