<?xml version="1.0" encoding="UTF-8" standalone="no"?>
<svg xmlns:rdf="http://www.w3.org/1999/02/22-rdf-syntax-ns#" xmlns="http://www.w3.org/2000/svg" height="48" width="48" version="1.1" xmlns:cc="http://creativecommons.org/ns#" xmlns:dc="http://purl.org/dc/elements/1.1/" viewBox="0 0 48 48">
<path style="fill:#000000" d="m27.412 4.9746c-0.191-0.0001-0.383 0.0092-0.572 0.0254h-6.817c-1.78 0.006-3.19 1.4261-3.668 3.0586l-1.378 3.2754h-7.6821c-1.1724 0.143-0.6959 1.528-0.7949 2.342 0.081 1.174 1.451 0.742 2.2422 0.824 0.8076-0.184 1.1307 0.115 0.9394 0.93 0.0121 7.708-0.0247 15.419 0.0176 23.127 0.0848 2.31 1.9778 4.748 4.4768 4.443 6.856-0.015 13.713 0.031 20.568-0.023 2.564-0.41 3.782-3.288 3.574-5.643v-22.834c0.9-0.032 1.812 0.068 2.703-0.055 0.791-0.489 0.373-1.543 0.479-2.32-0.149-1.169-1.531-0.691-2.346-0.791h-6.131c-0.715-1.5865-1.269-3.2563-2.103-4.7813-0.806-1.1551-2.167-1.5776-3.508-1.5781zm-7.34 3.1914h7.881c0.749 0.3759 0.77 1.4039 1.17 2.088 0.248 0.588 0.767 1.357-0.277 1.08h-10.414l1.218-2.8945 0.192-0.1797 0.23-0.0938zm-7.209 6.334h22.274c-0.017 7.887 0.033 15.778-0.026 23.662-0.169 1.291-1.54 1.84-2.695 1.672-5.915-0.005-11.858 0.01-17.756-0.008-1.425-0.097-1.959-1.593-1.797-2.816v-22.51zm4.604 4.5c-0.591 0-1.067 0.475-1.067 1.066v13.868c0 0.591 0.476 1.066 1.067 1.066h1.066c0.591 0 1.067-0.475 1.067-1.066v-13.868c0-0.591-0.476-1.066-1.067-1.066h-1.066zm6 0c-0.591 0-1.067 0.475-1.067 1.066v13.868c0 0.591 0.476 1.066 1.067 1.066h1.066c0.591 0 1.067-0.475 1.067-1.066v-13.868c0-0.591-0.476-1.066-1.067-1.066h-1.066zm6 0c-0.591 0-1.067 0.475-1.067 1.066v13.868c0 0.591 0.476 1.066 1.067 1.066h1.066c0.591 0 1.067-0.475 1.067-1.066v-13.868c0-0.591-0.476-1.066-1.067-1.066h-1.066z"/>
</svg>
