<?xml version="1.0" encoding="UTF-8" standalone="no"?>
<svg xmlns:rdf="http://www.w3.org/1999/02/22-rdf-syntax-ns#" xmlns="http://www.w3.org/2000/svg" height="48" width="48" version="1.1" xmlns:cc="http://creativecommons.org/ns#" xmlns:dc="http://purl.org/dc/elements/1.1/" viewBox="0 0 48 48">
<path style="fill:#000000" d="m8.8008 6.1992c-0.4432 0-0.8008 0.3576-0.8008 0.8008v0.80078c0 0.4432 0.35758 0.79883 0.80078 0.79883 1.7391 0 2.8391 0.30027 3.3047 0.80078 0.47928 0.50051 0.7207 0.83123 0.7207 2.0547l0.04102 11.783c0 1.001 0.01362 1.8138 0.04101 2.4395 0.04108 0.61173 0.15206 1.2734 0.33008 1.9824 0.17802 0.69515 0.42916 1.3908 0.75781 2.0859 0.60252 1.2652 1.4864 2.2859 2.6504 3.0645 1.164 0.77857 2.4158 1.3343 3.7578 1.668 1.356 0.348 2.67 0.522 3.944 0.522 1.7254 0 3.5205-0.3554 5.3828-1.0645 1.876-0.72295 3.3343-2.0347 4.375-3.9395 0.56144-0.98711 0.9041-1.9626 1.0273-2.9219 0.13693-0.97321 0.20703-2.4173 0.20703-4.3359v-10.428c0.0026-1.233-0.13609-2.2517 1.1699-3.1504 0.54775-0.29196 1.4433-0.56055 2.6895-0.56055 0.443 0.0006 0.801-0.355 0.801-0.7982v-0.8008c0-0.4432-0.358-0.8008-0.801-0.8008h-8.7988-1.5996c-0.443 0-0.801 0.3576-0.801 0.8008v0.80078c0 0.4432 0.35758 0.79883 0.80078 0.79883h0.14844c0.99964 0 1.7823 0.24746 2.3438 0.40039 1.0157 0.27323 1.5489 1.6986 1.6992 2.8008 0.05477 0.4449 0.06641 0.50977 0.06641 0.50977v10.178c0 1.3208-0.0623 2.4606-0.18555 3.4199-0.10955 0.9454-0.35486 1.8622-0.73828 2.752-0.47928 1.14-1.3437 2.072-2.5898 2.7949-1.2324 0.70905-2.5661 1.0645-4.0039 1.0645-1.342-0.000001-2.5744-0.33461-3.6973-1.002-1.1092-0.68125-1.8977-1.5848-2.3633-2.7109-0.24649-0.68124-0.43144-1.4752-0.55469-2.3789-0.10955-0.9176-0.16406-1.9799-0.16406-3.1895v-11.783c0-0.83418 0.08955-0.81096 0.26758-1.2559 0.178-0.4596 0.562-0.9636 1.151-1.2 0.589-0.2503 1.478-0.4004 2.67-0.4004v-0.00977c0.41848-0.026926 0.75-0.36355 0.75-0.78906v-0.8007c0-0.42551-0.33152-0.76409-0.75-0.79102v-0.00977h-12.449-1.5996zm-0.3008 31.801c-0.831 0-1.5 0.669-1.5 1.5v2c0 0.831 0.669 1.5 1.5 1.5h31c0.831 0 1.5-0.669 1.5-1.5v-2c0-0.831-0.669-1.5-1.5-1.5h-31z"/>
</svg>
