<?xml version="1.0" encoding="UTF-8" standalone="no"?>
<svg xmlns:rdf="http://www.w3.org/1999/02/22-rdf-syntax-ns#" xmlns="http://www.w3.org/2000/svg" height="48" width="48" version="1.1" xmlns:cc="http://creativecommons.org/ns#" xmlns:dc="http://purl.org/dc/elements/1.1/" viewBox="0 0 48 48">
<path style="fill:#000000" d="m5.9004 5c-0.4986 0-0.9004 0.4018-0.9004 0.9004v0.9004c0 0.4986 0.4018 0.8984 0.9004 0.8984 1.9564 0 3.195 0.3393 3.7187 0.9024 0.5389 0.563 0.8109 0.9341 0.8109 2.3104l0.045 13.256c0 1.126 0.016 2.04 0.046 2.744 0.047 0.688 0.171 1.433 0.372 2.231 0.2 0.782 0.483 1.563 0.853 2.345 0.678 1.424 1.671 2.572 2.981 3.448 1.309 0.875 2.718 1.501 4.228 1.876 1.526 0.392 3.002 0.588 4.436 0.588 1.941 0 3.961-0.399 6.056-1.197 2.111-0.813 3.751-2.289 4.922-4.432 0.632-1.11 1.016-2.207 1.154-3.287 0.154-1.094 0.235-2.72 0.235-4.879v-11.73c0.003-1.387-0.153-2.5339 1.316-3.5449 0.616-0.3285 1.624-0.6309 3.026-0.6309 0.498 0.0007 0.9-0.3979 0.9-0.8965v-0.9023c0-0.4986-0.402-0.9004-0.9-0.9004h-9.899-1.801c-0.498 0-0.9 0.4018-0.9 0.9004v0.9023c0 0.4986 0.402 0.8985 0.9 0.8985h0.168c1.125 0 2.005 0.2771 2.637 0.4492 1.143 0.3074 1.741 1.9126 1.91 3.1526 0.062 0.5 0.076 0.572 0.076 0.572v11.451c0 1.486-0.07 2.767-0.209 3.846-0.123 1.063-0.398 2.095-0.83 3.096-0.539 1.282-1.512 2.331-2.914 3.144-1.386 0.798-2.886 1.197-4.504 1.197-1.509 0-2.897-0.376-4.16-1.127-1.248-0.766-2.134-1.782-2.658-3.048-0.277-0.767-0.486-1.66-0.625-2.676-0.123-1.032-0.184-2.227-0.184-3.588v-13.256c0-0.9384 0.101-0.913 0.301-1.414 0.2-0.517 0.633-1.0837 1.295-1.3496 0.663-0.2816 1.663-0.4492 3.004-0.4492v-0.0117c0.471-0.0303 0.844-0.41 0.844-0.8887v-0.9004c0-0.4787-0.373-0.8584-0.844-0.8887v-0.0117h-14.006-1.7987-0.0019zm0.5996 34c-0.831 0-1.5 0.669-1.5 1.5v1c0 0.831 0.669 1.5 1.5 1.5h35c0.831 0 1.5-0.669 1.5-1.5v-1c0-0.831-0.669-1.5-1.5-1.5h-35z"/>
</svg>
