<?xml version="1.0" encoding="UTF-8" standalone="no"?>
<svg xmlns:rdf="http://www.w3.org/1999/02/22-rdf-syntax-ns#" xmlns="http://www.w3.org/2000/svg" xml:space="preserve" height="48" width="48" version="1.1" enable-background="new 0 0 500 500" xmlns:cc="http://creativecommons.org/ns#" xmlns:dc="http://purl.org/dc/elements/1.1/" viewBox="0 0 48 48"><path style="fill-rule:evenodd;clip-rule:evenodd;fill:#000000" d="m24 5c-5.685 0-10.291 4.607-10.291 10.291v5.543h-2.375c-1.7496 0-3.168 1.416-3.168 3.166v15.834c0 1.749 1.4184 3.166 3.168 3.166h25.332c1.75 0 3.168-1.417 3.168-3.166v-15.834c0-1.75-1.418-3.166-3.168-3.166h-19v-5.543c0-3.499 2.835-6.332 6.334-6.332s6.334 2.833 6.334 6.332v1.023c0 0.863 0.694 1.557 1.557 1.557h0.845c0.863 0 1.557-0.694 1.557-1.557 0.0016-0.33586-0.0011-0.6975-0.002-1.023 0-5.684-4.607-10.291-10.291-10.291z"/></svg>
