<?xml version="1.0" encoding="UTF-8" standalone="no"?>
<svg xmlns:rdf="http://www.w3.org/1999/02/22-rdf-syntax-ns#" xmlns="http://www.w3.org/2000/svg" height="48" width="48" version="1.1" xmlns:cc="http://creativecommons.org/ns#" xmlns:dc="http://purl.org/dc/elements/1.1/" viewBox="0 0 48 48">
<path style="fill:#000000" d="m19.285 11.006c-0.209 0.008-0.419 0.023-0.629 0.049-4.154 0.299-7.6 4.288-7.254 8.431 0.08 4.223 4.048 7.887 8.284 7.639 4.239 0.031 8.018-3.831 7.876-8.053 0.004-1.183-0.232-2.373-0.748-3.443-1.335-2.829-4.392-4.738-7.529-4.623zm16.715 1.994c-0.554 0-1 0.446-1 1v3h-3c-0.554 0-1 0.446-1 1v2c0 0.554 0.446 1 1 1h3v3c0 0.554 0.446 1 1 1h2c0.554 0 1-0.446 1-1v-3h3c0.554 0 1-0.446 1-1v-2c0-0.554-0.446-1-1-1h-3v-3c0-0.554-0.446-1-1-1h-2zm-8.42 12.787c-0.59 0.018-1.196 0.213-1.807 0.682-2.418 1.785-5.61 2.765-8.58 1.933-3.907-1.079-3.624-2.273-5.463-2.506-1.8007-0.123-3.3357 0.581-4.4663 1.999-1.4868 1.953-2.3802 4.454-2.252 6.919-0.0434 2.43 2.3977 4.084 4.6445 4.153 5.2938 0.053 10.588 0.007 15.881 0.021 2.224-0.089 4.663 0.385 6.613-0.961 1.569-0.903 1.761-2.848 1.694-4.47h0.002c-0.221-2.566-1.278-5.375-3.502-6.862-0.842-0.481-1.78-0.938-2.764-0.908z"/>
</svg>
