<?xml version="1.0" encoding="UTF-8" standalone="no"?>
<svg xmlns:rdf="http://www.w3.org/1999/02/22-rdf-syntax-ns#" xmlns="http://www.w3.org/2000/svg" height="48" width="48" version="1.1" xmlns:cc="http://creativecommons.org/ns#" xmlns:dc="http://purl.org/dc/elements/1.1/" viewBox="0 0 48 48">
<path style="fill:#000000" d="m43 35.805c0.08846 2.1443-0.16392 4.7146-2.2301 5.909-2.5679 1.7785-5.7796 1.1541-8.7085 1.2721-6.971-0.019-13.944 0.04-20.915-0.03-2.9588-0.091-6.1725-2.277-6.1153-5.488-0.1688-3.259 1.0073-6.564 2.9652-9.146 1.4889-1.874 3.5101-2.804 5.8821-2.641 2.4213 0.30731 2.0474 1.8858 7.1929 3.3124 3.9107 1.099 8.1144-0.19793 11.299-2.5576 2.1426-1.6529 4.2477-0.71782 6.0209 0.29978 2.9287 1.9647 4.3183 5.6783 4.6094 9.0696zm-8.273-19.144c0.186 5.581-4.789 10.685-10.372 10.644-5.578 0.328-10.804-4.516-10.909-10.098-0.456-5.477 4.082-10.749 9.553-11.144 4.4113-0.5505 8.8656 2.0576 10.742 6.0465 0.67848 1.414 0.99103 2.9873 0.98693 4.5516z"/>
</svg>
