<?xml version="1.0" encoding="UTF-8" standalone="no"?>
<svg xmlns:rdf="http://www.w3.org/1999/02/22-rdf-syntax-ns#" xmlns="http://www.w3.org/2000/svg" height="48" width="48" version="1.1" xmlns:cc="http://creativecommons.org/ns#" xmlns:dc="http://purl.org/dc/elements/1.1/" viewBox="0 0 48 48">
<path style="fill:#000000" d="m19.285 11.006c-0.209 0.008-0.419 0.023-0.629 0.049-4.154 0.299-7.6 4.288-7.254 8.431 0.08 4.223 4.048 7.887 8.284 7.639 4.239 0.031 8.018-3.831 7.876-8.053 0.004-1.183-0.232-2.373-0.748-3.443-1.335-2.829-4.392-4.738-7.529-4.623zm14.914 2.736c-0.255-0.001-0.512 0.094-0.709 0.289l-1.422 1.408c-0.393 0.39-0.397 1.021-0.007 1.415l2.111 2.13-2.133 2.112c-0.394 0.389-0.397 1.02-0.008 1.414l1.408 1.422c0.39 0.393 1.021 0.397 1.415 0.007l2.13-2.111 2.112 2.133c0.389 0.394 1.02 0.397 1.414 0.008l1.422-1.408c0.393-0.39 0.397-1.021 0.007-1.415l-2.111-2.13 2.133-2.112c0.394-0.389 0.397-1.02 0.008-1.414l-1.408-1.422c-0.39-0.393-1.021-0.397-1.415-0.007l-2.13 2.111-2.112-2.133c-0.195-0.197-0.449-0.295-0.705-0.297zm-6.619 12.045c-0.59 0.018-1.196 0.213-1.807 0.682-2.418 1.785-5.61 2.765-8.58 1.933-3.907-1.079-3.624-2.273-5.463-2.506-1.8007-0.123-3.3357 0.581-4.4663 1.999-1.4868 1.953-2.3802 4.454-2.252 6.919-0.0434 2.43 2.3977 4.084 4.6445 4.153 5.2938 0.053 10.588 0.007 15.881 0.021 2.224-0.089 4.663 0.385 6.613-0.961 1.569-0.903 1.761-2.848 1.694-4.47h0.002c-0.221-2.566-1.278-5.375-3.502-6.862-0.842-0.481-1.78-0.938-2.764-0.908z"/>
</svg>
