<?xml version="1.0" encoding="UTF-8" standalone="no"?>
<svg xmlns:rdf="http://www.w3.org/1999/02/22-rdf-syntax-ns#" xmlns="http://www.w3.org/2000/svg" height="48" width="48" version="1.1" xmlns:cc="http://creativecommons.org/ns#" xmlns:dc="http://purl.org/dc/elements/1.1/" viewBox="0 0 48 48">
<path style="fill:#000000" d="m21.856 10.31c-0.39041 0-0.72797 0.14236-1.0133 0.42766l-7.4994 7.5013h-5.9024c-0.39041 0-0.72797 0.14236-1.0133 0.42766-0.2853 0.285-0.4277 0.622-0.4277 1.013v8.6494c0 0.39041 0.14235 0.72797 0.42765 1.0133 0.2853 0.2853 0.62286 0.42765 1.0133 0.42765h5.9024l7.4994 7.5013c0.2853 0.2853 0.62286 0.42765 1.0133 0.42765 0.39041 0 0.7299-0.14235 1.0152-0.42765s0.42765-0.62286 0.42765-1.0133v-24.507c0-0.39041-0.14235-0.72797-0.42765-1.0133-0.2853-0.2853-0.62479-0.42766-1.0152-0.42766zm5.8812 7.0813c-1.5539-0.05934-2.1357 2.0115-0.77825 2.7701 1.3753 0.79402 2.2192 2.2551 2.2192 3.8431s-0.84389 3.0491-2.2192 3.8431c-1.7097 0.98619-0.22999 3.5507 1.4795 2.564 2.2867-1.3202 3.6986-3.7667 3.6986-6.4071s-1.412-5.0869-3.6986-6.4071c-0.21282-0.12626-0.45391-0.19713-0.7012-0.20612z"/>
</svg>
