<?xml version="1.0" encoding="UTF-8" standalone="no"?>
<svg xmlns:rdf="http://www.w3.org/1999/02/22-rdf-syntax-ns#" xmlns="http://www.w3.org/2000/svg" height="48" width="48" version="1.1" xmlns:cc="http://creativecommons.org/ns#" xmlns:dc="http://purl.org/dc/elements/1.1/" viewBox="0 0 48 48">
<path style="fill:#000000" d="m32.671 8.8498a1.4743 1.4743 0 0 0 -0.775 2.7602c4.4302 2.5578 7.1545 7.2787 7.1545 12.394 0 5.1155-2.7244 9.8365-7.1545 12.394a1.4745 1.4745 0 1 0 1.4737 2.5544c5.338-3.081 8.63-8.783 8.63-14.947 0-6.165-3.292-11.867-8.63-14.949a1.4743 1.4743 0 0 0 -0.699 -0.2062zm-10.815 1.4602c-0.39041 0-0.72797 0.14236-1.0133 0.42766l-7.4994 7.5013h-5.9024c-0.39041 0-0.72797 0.14236-1.0133 0.42766-0.2853 0.285-0.4277 0.622-0.4277 1.013v8.6494c0 0.39041 0.14235 0.72797 0.42765 1.0133 0.2853 0.2853 0.62286 0.42765 1.0133 0.42765h5.9024l7.4994 7.5013c0.2853 0.2853 0.62286 0.42765 1.0133 0.42765 0.39041 0 0.7299-0.14235 1.0152-0.42765s0.42765-0.62286 0.42765-1.0133v-24.507c0-0.39041-0.14235-0.72797-0.42765-1.0133-0.2853-0.2853-0.62479-0.42766-1.0152-0.42766zm8.3643 2.8144a1.4426 1.4426 0 0 0 -0.75899 2.7008c2.9239 1.6881 4.7215 4.8031 4.7215 8.1794-0.000001 3.3763-1.7976 6.4912-4.7215 8.1794a1.4426 1.4426 0 1 0 1.4429 2.4985c3.8125-2.2012 6.1644-6.2755 6.1644-10.678 0-4.4023-2.3519-8.4767-6.1644-10.678a1.4426 1.4426 0 0 0 -0.68386 -0.20227zm-2.4831 4.2669a1.4796 1.4796 0 0 0 -0.77825 2.7701c1.3753 0.79402 2.2192 2.2551 2.2192 3.8431s-0.84389 3.0491-2.2192 3.8431a1.4801 1.4801 0 1 0 1.4795 2.564c2.2867-1.3202 3.6986-3.7667 3.6986-6.4071s-1.412-5.0869-3.6986-6.4071a1.4796 1.4796 0 0 0 -0.7012 -0.20612z"/>
</svg>
