<?xml version="1.0" encoding="UTF-8"?>
<svg width="50" height="50" version="1.1" viewBox="0 0 50 50" xmlns="http://www.w3.org/2000/svg">
<path d="m23.75 10c-1.25 0-2.5 1.25-2.5 1.25l-6.25 6.25h-7.5c-2.5 0-2.5 2.5-2.5 2.5v10c0 2.5 2.5 2.5 2.5 2.5h7.5l6.25 6.25s1.25 1.25 2.5 1.25 1.25-1.25 1.25-1.25v-27.5c0-1.25-1.25-1.25-1.25-1.25zm6.25 0c-1.25 0-1.25 2.5 0 2.5 0 0 12.5 0 12.5 12.5s-12.5 12.5-12.5 12.5c-1.25 0-1.25 2.5 0 2.5 0 0 15 0 15-15s-15-15-15-15zm0 5c-1.25 0-1.25 2.5 0 2.5 0 0 7.5 0 7.5 7.5s-7.5 7.5-7.5 7.5c-1.25 0-1.25 2.5 0 2.5 0 0 10 0 10-10s-10-10-10-10zm0 5c-1.25 0-1.25 2.5 0 2.5 0 0 2.5 0.60085 2.5 2.5 0 2.5-2.5 2.5-2.5 2.5-1.25 0-1.25 2.5 0 2.5 0 0 5 0 5-5s-5-5-5-5z"/>
</svg>
