<?xml version="1.0" encoding="UTF-8" standalone="no"?>
<svg xmlns:rdf="http://www.w3.org/1999/02/22-rdf-syntax-ns#" xmlns="http://www.w3.org/2000/svg" height="48" width="48" version="1.1" xmlns:cc="http://creativecommons.org/ns#" xmlns:dc="http://purl.org/dc/elements/1.1/">
<path style="color-rendering:auto;text-decoration-color:#000000;color:#000000;isolation:auto;mix-blend-mode:normal;shape-rendering:auto;solid-color:#000000;block-progression:tb;text-decoration-line:none;image-rendering:auto;white-space:normal;text-indent:0;text-transform:none;text-decoration-style:solid;fill:#000000" d="m19.906 5.0113c-4.752 0.16838-9.4211 2.4381-12.164 6.7218-5.9999 8.2202-1.6486 20.713 8.153 23.426 4.6932 1.6103 9.6182 0.54912 13.413-2.1263l9.15 9.1549a2.6381 2.6395 0 1 0 3.73 -3.732l-9.1717-9.1793c1.6945-2.3567 2.7366-5.1594 2.777-8.2322a2.6381 2.6395 0 0 0 0.06955 -0.60054c0.000041-0.01672-0.0076-0.03227-0.0078-0.04897-0.000661-0.01952 0.0059-0.03717 0.0051-0.0567l-0.01029 0.0232c-0.011-3.43-1.177-6.785-3.308-9.474-3.037-4.1043-7.871-6.0458-12.637-5.8769zm0.19062 5.4126c3.1604-0.11198 6.3667 1.0807 8.2354 3.629a2.6381 2.6395 0 0 0 0.0644 0.08505c1.4002 1.7563 2.1977 4.0476 2.1922 6.294l0.0026-0.0051a2.6381 2.6395 0 0 0 0 0.11341c0.23975 6.3179-7.0878 11.707-13.042 9.6189a2.6381 2.6395 0 0 0 -0.1886 -0.05542c-6.0986-1.639-9.0965-10.231-5.335-15.31a2.6381 2.6395 0 0 0 0.11343 -0.16495c1.684-2.6741 4.7969-4.0918 7.9573-4.2037zm0.35806 1.7836a2.6381 2.6395 0 0 0 -2.6121 2.665l-0.01293 2.8299c-0.86286-0.0024-1.7261-0.0054-2.5889-0.0078a2.6381 2.6395 0 1 0 -0.01293 5.2785c0.85943 0.0024 1.7191 0.0054 2.5786 0.0078l-0.01546 3.116a2.6381 2.6395 0 1 0 5.2756 0.0232l0.01546-3.1263c0.90322 0.0024 1.8068 0.0053 2.71 0.0078a2.6381 2.6395 0 1 0 0.01292 -5.2785c-0.89979-0.0024-1.7999-0.0053-2.6997-0.0078l0.01293-2.8196a2.6381 2.6395 0 0 0 -2.6635 -2.6882z"/>
</svg>
