<?xml version="1.0" encoding="UTF-8" standalone="no"?>
<svg xmlns:rdf="http://www.w3.org/1999/02/22-rdf-syntax-ns#" xmlns="http://www.w3.org/2000/svg" height="48" width="48" version="1.1" xmlns:cc="http://creativecommons.org/ns#" xmlns:dc="http://purl.org/dc/elements/1.1/" viewBox="0 0 48 48">
<path style="color-rendering:auto;text-decoration-color:#000000;color:#000000;isolation:auto;mix-blend-mode:normal;shape-rendering:auto;solid-color:#000000;block-progression:tb;text-decoration-line:none;image-rendering:auto;white-space:normal;text-indent:0;text-transform:none;text-decoration-style:solid;fill:#000000" d="m19.904 4.959c-4.751 0.1689-9.419 2.4395-12.162 6.723-5.9997 8.22-1.6491 20.712 8.153 23.425 4.693 1.611 9.619 0.549 13.414-2.127l9.148 9.157c2.486 2.594 6.324-1.245 3.731-3.733l-9.172-9.179c1.694-2.357 2.737-5.16 2.777-8.233 0.046-0.197 0.07-0.397 0.07-0.599 0-0.017-0.007-0.035-0.008-0.051 0-0.02 0.005-0.037 0.004-0.057l-0.009 0.024c-0.011-3.43-1.178-6.784-3.309-9.473-3.037-4.1038-7.869-6.0453-12.635-5.877h-0.002zm0.192 5.412c3.16-0.112 6.367 1.081 8.236 3.629 0.021 0.029 0.042 0.058 0.064 0.086 1.401 1.756 2.197 4.048 2.192 6.295l0.004-0.006c-0.001 0.038-0.001 0.075 0 0.113 0.24 6.318-7.089 11.708-13.043 9.619-0.062-0.02-0.124-0.038-0.188-0.054-6.098-1.639-9.0971-10.232-5.336-15.311 0.04-0.053 0.078-0.109 0.114-0.166 1.684-2.674 4.796-4.091 7.957-4.203v-0.002zm-5.571 7.979c-0.623 0-1.125 0.501-1.125 1.125v1.75c0 0.623 0.502 1.125 1.125 1.125h11.75c0.624 0 1.125-0.502 1.125-1.125v-1.75c0-0.624-0.501-1.125-1.125-1.125h-11.75z"/>
</svg>
