<?xml version="1.0" encoding="UTF-8" standalone="no"?>
<svg xmlns:rdf="http://www.w3.org/1999/02/22-rdf-syntax-ns#" xmlns="http://www.w3.org/2000/svg" height="48" width="48" version="1.1" xmlns:cc="http://creativecommons.org/ns#" xmlns:dc="http://purl.org/dc/elements/1.1/" viewBox="0 0 24 24">
<path style="color-rendering:auto;text-decoration-color:#000000;color:#000000;shape-rendering:auto;solid-color:#000000;text-decoration-line:none;fill:#000000;mix-blend-mode:normal;block-progression:tb;text-indent:0;image-rendering:auto;white-space:normal;text-decoration-style:solid;isolation:auto;text-transform:none" d="m12.008 5c-0.758 0.3494-1.208 1.223-1.847 1.77-1.7027 1.8272-3.4443 3.623-5.1226 5.47-0.20415 0.55363 0.45623 0.62182 0.83912 0.5749h0.77286c0.00548 1.9546-0.01095 3.9103 0.0082 5.8643 0.14832 0.47675 0.6967 0.28 1.0673 0.32127 0.76956-0.0081 1.5411 0.01616 2.3095-0.01202 0.4553-0.14729 0.26305-0.70044 0.30452-1.061v-3.4621h3.3203c0.0055 1.4045-0.01093 2.8101 0.0082 4.2139 0.1483 0.47675 0.69667 0.28001 1.0673 0.32128 0.7642-0.0051 1.5294 0.01033 2.293-0.0079 0.4786-0.14682 0.28174-0.6967 0.32292-1.0677v-5.11c0.45617-0.01111 0.91577 0.02313 1.3696-0.01876 0.7928-0.63133-0.65692-1.3068-0.96446-1.8639-1.843-1.951-3.672-3.9166-5.525-5.8579-0.065-0.0464-0.144-0.0726-0.224-0.0741z"/>
<path d="m0 0h24v24h-24z" fill="none"/>
</svg>
