<?xml version="1.0" encoding="UTF-8" standalone="no"?>
<svg xmlns:rdf="http://www.w3.org/1999/02/22-rdf-syntax-ns#" xmlns="http://www.w3.org/2000/svg" xml:space="preserve" height="48" width="48" version="1.1" xmlns:cc="http://creativecommons.org/ns#" xmlns:dc="http://purl.org/dc/elements/1.1/" viewBox="0 0 48 48"><path style="fill:#000000" d="m36.285 21.123c-1.0809 0.13628-2.5546-0.08986-2.7528-1.3952-0.27116-1.3465 1.3175-1.8327 1.6719-2.92 0.51652-1.4099-0.95568-2.2253-1.7294-3.1292-0.79137-1.0151-2.3365-1.0691-3.1434-0.04096-0.76631 1.4767-3.2281 1.1725-3.3696-0.55887 0.10758-1.0858 0.0361-2.6625-1.288-2.9433-1.1988-0.11079-2.5635-0.31675-3.6768 0.19911-1.2276 0.76159-0.51432 2.2601-0.99474 3.346-0.49442 1.1524-2.1538 1.2151-2.8818 0.25156-0.70221-1.086-2.2724-1.4568-3.2259-0.46275-0.80168 0.97838-2.4476 1.8307-1.9482 3.3385 0.54181 1.1331 2.3989 2.0369 1.4441 3.5085-0.72867 1.2611-2.2673 0.50746-3.3413 1.0121-1.3489 0.5581-0.95723 2.1705-1.0259 3.319-0.19801 1.3109 0.92437 2.3883 2.2205 2.234 1.5819-0.543 3.2005 1.5182 1.952 2.7873-0.90167 0.69729-1.9046 2.0088-0.9755 3.0964 0.87198 0.85654 1.6322 2.1472 2.9144 2.3532 1.4533 0.20176 1.8798-1.6164 3.2103-1.7221 1.7715-0.18469 1.9768 1.8649 1.893 3.1597 0.31398 1.5973 2.1803 1.4704 3.423 1.3935 1.4083 0.34288 2.6469-1.1224 2.277-2.4695-0.14359-1.1089 0.76425-2.3103 1.9513-2.0851 1.2591 0.20717 1.7112 1.9517 3.1179 1.7186 1.3832-0.26094 2.2521-1.6212 3.1048-2.6317 0.84022-1.5719-1.1816-2.3508-1.5903-3.6072-0.28592-1.3268 1.1795-2.3084 2.3774-1.9826 1.2471 0.16972 2.3191-0.96505 2.0634-2.2021 0.01063-1.2769 0.30476-3.2568-1.401-3.5504l-0.27836-0.01596zm-6.3866 2.872c0.13229 3.5457-3.5681 6.5427-7.0158 5.7103-3.2553-0.6155-5.4794-4.3186-4.3799-7.4716 0.93932-3.1022 4.7039-4.9541 7.7118-3.6582 2.1611 0.85256 3.734 3.0786 3.6843 5.4198z" fill="#000000"/></svg>
