<?xml version="1.0" encoding="UTF-8" standalone="no"?>
<svg xmlns:rdf="http://www.w3.org/1999/02/22-rdf-syntax-ns#" xmlns="http://www.w3.org/2000/svg" height="48" width="48" version="1.1" xmlns:cc="http://creativecommons.org/ns#" xmlns:dc="http://purl.org/dc/elements/1.1/">
<path style="color-rendering:auto;text-decoration-color:#000000;color:#000000;shape-rendering:auto;solid-color:#000000;text-decoration-line:none;fill:#000000;mix-blend-mode:normal;block-progression:tb;text-indent:0;image-rendering:auto;white-space:normal;text-decoration-style:solid;isolation:auto;text-transform:none" d="m20.889 9.6113c-3.603 0.1276-7.1431 1.8476-9.2227 5.0937-4.5509 6.2316-1.2483 15.703 6.1895 17.754 3.5555 1.2162 7.285 0.41196 10.16-1.6133l6.9395 6.9375a2.0002 2.0002 0 1 0 2.8281 -2.8281l-6.956-6.956c1.2869-1.7882 2.0784-3.9138 2.1074-6.2461a2.0002 2.0002 0 0 0 0.05273 -0.44726c0.000032-0.01266-0.0058-0.02445-0.0059-0.03711-0.000501-0.0148 0.0045-0.02816 0.0039-0.04297l-0.0078 0.01758c-0.007-2.602-0.892-5.146-2.509-7.184-2.303-3.109-5.968-4.5776-9.58-4.4497zm0.14453 4.1016c2.3962-0.08486 4.8272 0.81894 6.2441 2.75a2.0002 2.0002 0 0 0 0.04883 0.06445c1.0608 1.3298 1.6659 3.0665 1.6621 4.7676-0.000001 0.000639 0.000002 0.0013 0 0.002a2.0002 2.0002 0 0 0 0.002 0.08008c0.18178 4.7876-5.374 8.8737-9.8887 7.291a2.0002 2.0002 0 0 0 -0.145 -0.043c-4.624-1.242-6.895-7.753-4.043-11.602a2.0002 2.0002 0 0 0 0.086 -0.125c1.2768-2.0264 3.637-3.1007 6.0332-3.1855zm-3.6816 5.5117a2.0002 2.0002 0 1 0 -0.0098 4c2.6696 0.0072 5.3382 0.01432 8.0078 0.02148a2.0002 2.0002 0 1 0 0.01172 -4c-2.6696-0.0072-5.3402-0.01429-8.0098-0.02148z"/>
</svg>
