<?xml version="1.0" encoding="UTF-8"?><!DOCTYPE svg PUBLIC "-//W3C//DTD SVG 1.1//EN" "http://www.w3.org/Graphics/SVG/1.1/DTD/svg11.dtd"><svg xmlns="http://www.w3.org/2000/svg"><symbol id="alert-done" viewBox="0 0 48 48"><path style="text-decoration-color:#000;isolation:auto;mix-blend-mode:normal;block-progression:tb;text-decoration-line:none;text-indent:0;text-transform:none;text-decoration-style:solid" d="M23.995 5.002C16.445 4.9 9.183 9.817 6.405 16.825 3.56 23.57 5.131 31.868 10.25 37.1c4.978 5.36 13.181 7.332 20.051 4.821 7.199-2.45 12.486-9.573 12.676-17.186.385-7.398-4.058-14.714-10.753-17.855a18.899 18.899 0 0 0-8.228-1.875zm8.317 11.288c1.37-.11 2.006 1.845.888 2.606-4.11 4.084-8.169 8.224-12.31 12.271-.919.652-1.909-.116-2.43-.884-1.355-1.586-2.844-3.074-4.113-4.723-.65-1.237 1.007-2.627 2.111-1.77 1.292 1.308 2.46 2.746 3.703 4.104 3.8-3.779 7.56-7.606 11.388-11.354a1.43 1.43 0 0 1 .764-.25z" opacity=".967" color="#000" fill-rule="evenodd" white-space="normal"/></symbol><symbol id="alert-error" viewBox="0 0 48 48"><path d="M24.076 5.015c-7.721-.343-14.853 5.097-17.67 12.1-1.792 4.206-1.87 9.06-.243 13.33C8.788 38.59 17.666 43.66 26.015 42.93c4.786-.334 9.221-2.87 12.426-6.356 6.504-7.385 6.07-20-1.433-26.548-3.54-3.149-8.169-5.045-12.932-5.01zm-7.922 9.496c1.463.256 2.179 1.734 3.263 2.606l4.66 4.655c2.442-2.352 4.721-4.899 7.271-7.125 1.997-.79 3.081 2.255 1.177 3.156-2.073 2.064-4.142 4.135-6.212 6.204 2.363 2.434 4.885 4.733 7.145 7.255.852 1.888-2.072 3.173-3.024 1.331-2.118-2.117-4.236-4.236-6.358-6.351-2.436 2.36-4.737 4.88-7.26 7.138-1.888.854-3.178-2.068-1.334-3.02 2.12-2.118 4.24-4.235 6.358-6.354-2.353-2.422-4.86-4.711-7.11-7.218-.526-.987.3-2.334 1.424-2.277z" opacity=".967" fill-rule="evenodd"/></symbol><symbol id="alert-info" viewBox="0 0 48 48"><path d="M24 5C13.512 5 5 13.512 5 24s8.512 19 19 19 19-8.512 19-19S34.488 5 24 5zm1.9 28.5c-.388 1.206-3.43 1.211-3.8 0-.85-2.779-.922-8.801 0-11.4.424-1.194 3.47-1.223 3.8 0 .701 2.592.892 8.628 0 11.4zm0-15.2c-.896.896-2.904.896-3.8 0-.896-.896-.896-2.904 0-3.8.896-.896 2.904-.896 3.8 0 .896.896.896 2.904 0 3.8z"/></symbol><symbol id="alert-warning" viewBox="0 0 48 48"><path style="isolation:auto;mix-blend-mode:normal;text-decoration-color:#000;block-progression:tb;text-decoration-line:none;text-indent:0;text-transform:none;text-decoration-style:solid" d="M24.062 8.394c-1.26.098-1.566 1.528-2.24 2.385C16.288 19.69 10.752 28.6 5.217 37.514c-.845 1.532.972 2.294 2.207 2.045h34.32c1.74-.091 1.42-2.044.555-2.966C36.59 27.4 30.88 18.21 25.172 9.02a1.328 1.328 0 0 0-1.11-.627zm-.03 8.764c2.37-.197 2.112 2.714 2.364 4.304.122 2.471.265 5.096-.688 7.427-1.17 1.232-3.773.636-3.798-1.273-.636-3.166-.376-6.482.364-9.607.243-.697 1.122-.838 1.758-.852zm.013 13.49c1.696-.185 2.799 1.641 2.308 3.163-.43 2.339-4.503 2.174-4.665-.246-.317-1.53.719-3.045 2.358-2.917z" fill-rule="evenodd" color="#000" white-space="normal"/></symbol><symbol id="arrow-down" viewBox="0 0 48 48"><path style="text-decoration-color:#000;isolation:auto;mix-blend-mode:normal;block-progression:tb;text-decoration-line:none;text-indent:0;text-transform:none;text-decoration-style:solid" d="M11.795 31.23c.068 1.48 1.527 2.251 2.42 3.27 2.79 2.706 5.567 5.435 8.364 8.128 1.134.844 2.792.405 3.563-.691 3.162-3.085 6.338-6.156 9.492-9.249 1.312-1.358.244-3.852-1.671-3.901-1.622-.128-2.487 1.39-3.56 2.297l-3.967 3.861c0-9.236.012-18.473-.013-27.71-.07-1.863-2.642-2.878-4.025-1.587-1.225 1.026-.738 2.681-.838 4.053v25.244c-1.995-1.905-3.918-3.888-5.959-5.742-1.57-1.112-3.923.137-3.81 2.027z" color="#000" white-space="normal"/></symbol><symbol id="arrow-left" viewBox="0 0 48 48"><path style="text-decoration-color:#000;isolation:auto;mix-blend-mode:normal;block-progression:tb;text-decoration-line:none;text-indent:0;text-transform:none;text-decoration-style:solid" d="M16.84 11.734c-1.478.07-2.25 1.535-3.268 2.433-2.707 2.805-5.436 5.597-8.13 8.41-.844 1.14-.405 2.807.691 3.582 3.085 3.18 6.156 6.373 9.249 9.544 1.358 1.32 3.852.245 3.901-1.68.128-1.63-1.39-2.5-2.295-3.578l-3.863-3.99c9.236 0 18.473.012 27.71-.012 1.863-.07 2.878-2.657 1.587-4.047-1.025-1.232-2.68-.743-4.05-.843H13.126c1.904-2.006 3.887-3.94 5.742-5.991 1.111-1.578-.138-3.945-2.028-3.83z" color="#000" white-space="normal"/></symbol><symbol id="arrow-right" viewBox="0 0 48 48"><path style="text-decoration-color:#000;isolation:auto;mix-blend-mode:normal;block-progression:tb;text-decoration-line:none;text-indent:0;text-transform:none;text-decoration-style:solid" d="M31.162 11.734c1.478.07 2.249 1.535 3.267 2.433 2.707 2.805 5.436 5.597 8.13 8.41.844 1.14.405 2.807-.69 3.582-3.085 3.18-6.157 6.373-9.25 9.544-1.358 1.32-3.852.245-3.9-1.68-.129-1.63 1.389-2.5 2.294-3.578l3.863-3.99c-9.236 0-18.472.012-27.71-.012-1.863-.07-2.877-2.657-1.587-4.047 1.025-1.232 2.68-.743 4.05-.843h25.247c-1.905-2.006-3.888-3.94-5.742-5.991-1.112-1.578.137-3.945 2.027-3.83z" color="#000" white-space="normal"/></symbol><symbol id="arrow-up" viewBox="0 0 48 48"><path style="text-decoration-color:#000;isolation:auto;mix-blend-mode:normal;block-progression:tb;text-decoration-line:none;text-indent:0;text-transform:none;text-decoration-style:solid" d="M11.707 16.911c.068-1.477 1.534-2.249 2.432-3.267 2.806-2.707 5.598-5.436 8.411-8.13 1.14-.844 2.807-.405 3.582.691 3.18 3.085 6.373 6.156 9.543 9.249 1.32 1.358.246 3.852-1.68 3.901-1.63.128-2.499-1.39-3.577-2.295l-3.99-3.863c0 9.236.011 18.473-.013 27.71-.07 1.863-2.657 2.878-4.047 1.587-1.232-1.025-.743-2.68-.843-4.05V13.198c-2.005 1.904-3.94 3.887-5.99 5.742-1.579 1.112-3.946-.138-3.832-2.028z" color="#000" white-space="normal"/></symbol><symbol id="check" viewBox="0 0 48 48"><path style="text-decoration-color:#000;text-decoration-line:none;mix-blend-mode:normal;block-progression:tb;text-indent:0;text-decoration-style:solid;isolation:auto;text-transform:none" d="M40.047 7.969a3 3 0 0 0-2.299 1.049L17.859 31.617l-7.738-7.738a3 3 0 1 0-4.242 4.242l10 10a3 3 0 0 0 4.373-.139l22-25a3 3 0 0 0-2.205-5.013z" color="#000" fill-rule="evenodd" white-space="normal"/></symbol><symbol id="chevron-down" viewBox="0 0 48 48"><path style="text-decoration-color:#000;isolation:auto;mix-blend-mode:normal;block-progression:tb;text-decoration-line:none;text-indent:0;text-transform:none;text-decoration-style:solid" d="M8.654 13.191c-2.538-.117-4.461 2.855-3.315 5.122.801 1.385 2.124 2.367 3.192 3.543 4.408 4.436 8.783 8.908 13.212 13.322 1.85 1.633 4.574.628 5.845-1.216 4.865-4.933 9.767-9.833 14.61-14.787 1.68-1.905.566-5.266-1.92-5.79-2.161-.662-3.765 1.161-5.07 2.572L24.048 27.23c-4.358-4.387-8.693-8.802-13.066-13.175a3.633 3.633 0 0 0-2.331-.86z" color="#000" white-space="normal"/></symbol><symbol id="chevron-left" viewBox="0 0 48 48"><path style="text-decoration-color:#000;isolation:auto;mix-blend-mode:normal;block-progression:tb;text-decoration-line:none;text-indent:0;text-transform:none;text-decoration-style:solid" d="M31.7 5.002c-2.339.074-3.545 2.392-5.17 3.729-4.365 4.34-8.766 8.645-13.109 13.006-1.387 1.577-.922 4.09.686 5.32 5.111 5.043 10.19 10.12 15.323 15.14 1.905 1.68 5.267.567 5.793-1.92.488-1.621-.458-3.152-1.657-4.164L21.37 24.048c4.392-4.36 8.807-8.696 13.183-13.072 1.725-1.865.695-5.253-1.778-5.839a3.6 3.6 0 0 0-1.074-.135z" color="#000" white-space="normal"/></symbol><symbol id="chevron-right" viewBox="0 0 48 48"><path style="text-decoration-color:#000;isolation:auto;mix-blend-mode:normal;block-progression:tb;text-decoration-line:none;text-indent:0;text-transform:none;text-decoration-style:solid" d="M16.22 5.003c-2.538-.095-4.434 2.893-3.268 5.149.963 1.602 2.558 2.706 3.803 4.084l9.897 9.8c-4.372 4.342-8.777 8.65-13.127 13.012-1.7 1.887-.625 5.259 1.855 5.81 1.615.507 3.156-.422 4.18-1.61 5.007-4.972 10.05-9.912 15.035-14.906 1.632-1.85.628-4.572-1.215-5.843-4.942-4.884-9.86-9.792-14.82-14.66A3.623 3.623 0 0 0 16.22 5z" color="#000" white-space="normal"/></symbol><symbol id="chevron-up" viewBox="0 0 48 48"><path style="text-decoration-color:#000;isolation:auto;mix-blend-mode:normal;block-progression:tb;text-decoration-line:none;text-indent:0;text-transform:none;text-decoration-style:solid" d="M23.982 12.584c-2.028-.029-3.145 1.808-4.479 3.026-4.562 4.624-9.159 9.216-13.7 13.861-1.683 1.906-.57 5.27 1.917 5.797 1.622.49 3.154-.455 4.166-1.653l12.129-12.249c4.346 4.376 8.66 8.787 13.027 13.141 1.889 1.702 5.264.625 5.817-1.857.506-1.617-.423-3.16-1.611-4.183-4.98-5.012-9.925-10.061-14.925-15.052a3.627 3.627 0 0 0-2.34-.83z" color="#000" white-space="normal"/></symbol><symbol id="close" viewBox="0 0 48 48"><path style="text-decoration-color:#000;isolation:auto;mix-blend-mode:normal;block-progression:tb;text-decoration-line:none;text-indent:0;text-transform:none;text-decoration-style:solid" d="M8.176 5.018a3.164 3.156 0 0 0-2.202 5.418l13.552 13.519L5.974 37.477a3.164 3.156 0 1 0 4.473 4.462l13.554-13.411 13.552 13.519a3.164 3.156 0 1 0 4.473-4.462L28.474 24.063l13.552-13.52a3.164 3.156 0 1 0-4.473-4.462L24.001 19.492 10.45 5.973a3.164 3.156 0 0 0-2.27-.955z" color="#000" white-space="normal"/></symbol><symbol id="file-empty" viewBox="0 0 48 48"><path style="text-decoration-color:#000;isolation:auto;mix-blend-mode:normal;block-progression:tb;text-decoration-line:none;text-indent:0;text-transform:none;text-decoration-style:solid" d="M10 5a2 2 0 0 0-2 2v34a2 2 0 0 0 2 2h28a2 2 0 0 0 2-2V16a2 2 0 0 0-.506-1.328l-8-9A2 2 0 0 0 30 5H10zm2 4h14v9a2 2 0 0 0 2 2h8v19H12V9zm18 1.01L35.324 16H30v-5.99z" color="#000" fill-rule="evenodd" white-space="normal"/></symbol><symbol id="file" viewBox="0 0 48 48"><path style="isolation:auto;mix-blend-mode:normal;text-decoration-color:#000;block-progression:tb;text-decoration-line:none;text-indent:0;text-transform:none;text-decoration-style:solid" d="M10 5a2 2 0 0 0-2 2v34a2 2 0 0 0 2 2h28a2 2 0 0 0 2-2V16a2 2 0 0 0-.506-1.328l-8-9A2 2 0 0 0 30 5H10zm2 4h14v9a2 2 0 0 0 2 2h8v19H12V9zm18 1.01L35.324 16H30v-5.99zM15 12a1.5 1.5 0 1 0 0 3h8a1.5 1.5 0 1 0 0-3h-8zm0 5a1.5 1.5 0 1 0 0 3h8a1.5 1.5 0 1 0 0-3h-8zm0 5a1.5 1.5 0 1 0 0 3h18a1.5 1.5 0 1 0 0-3H15zm0 5a1.5 1.5 0 1 0 0 3h18a1.5 1.5 0 1 0 0-3H15zm0 5a1.5 1.5 0 1 0 0 3h18a1.5 1.5 0 1 0 0-3H15z" fill-rule="evenodd" color="#000" white-space="normal"/></symbol><symbol id="folder" viewBox="0 0 48 48"><path style="text-decoration-color:#000;text-decoration-line:none;mix-blend-mode:normal;block-progression:tb;text-indent:0;text-decoration-style:solid;isolation:auto;text-transform:none" d="M10 7.5a5 5 0 0 0-5 5V35a5 5 0 0 0 5 5h28a5 5 0 0 0 5-5V17a5 5 0 0 0-5-5H25.666L21 8.5c-.865-.65-1.918-1-3-1z" color="#000" fill-rule="evenodd" white-space="normal"/></symbol><symbol id="home" viewBox="0 0 48 48"><path style="text-decoration-color:#000;isolation:auto;mix-blend-mode:normal;block-progression:tb;text-decoration-line:none;text-indent:0;text-transform:none;text-decoration-style:solid" d="M24.012 5c-2.056.948-3.278 3.318-5.011 4.802-4.619 4.957-9.344 9.829-13.897 14.84-.554 1.502 1.238 1.686 2.277 1.56h2.096c.015 5.302-.03 10.608.023 15.909.402 1.293 1.89.76 2.895.871 2.088-.022 4.181.044 6.266-.032 1.235-.4.713-1.9.826-2.879V30.68h9.007c.015 3.81-.03 7.624.023 11.432.402 1.294 1.89.76 2.895.872 2.073-.014 4.15.028 6.22-.022 1.3-.398.765-1.89.877-2.896V26.202c1.237-.03 2.484.063 3.715-.051 2.151-1.714-1.782-3.546-2.616-5.058-5-5.293-9.962-10.625-14.989-15.891A1.086 1.086 0 0 0 24.011 5z" color="#000" white-space="normal"/></symbol><symbol id="list" viewBox="0 0 48.000001 48.000001"><g color="#000" fill-rule="evenodd" white-space="normal"><path style="text-decoration-color:#000;text-decoration-line:none;mix-blend-mode:normal;block-progression:tb;text-indent:0;text-decoration-style:solid;isolation:auto;text-transform:none" d="M8 21a3 3 0 1 0 0 6h1a3 3 0 1 0 0-6H8zm10 0a3 3 0 1 0 0 6h22a3 3 0 1 0 0-6H18zM8 30a3 3 0 1 0 0 6h1a3 3 0 1 0 0-6H8zm10 0a3 3 0 1 0 0 6h22a3 3 0 1 0 0-6H18zM8 12a3 3 0 1 0 0 6h1a3 3 0 1 0 0-6H8zm10 0a3 3 0 1 0 0 6h22a3 3 0 1 0 0-6H18z"/></g></symbol><symbol id="menu" viewBox="0 0 48.000001 48.000001"><g color="#000" fill-rule="evenodd" white-space="normal"><path style="text-decoration-color:#000;text-decoration-line:none;mix-blend-mode:normal;block-progression:tb;text-indent:0;text-decoration-style:solid;isolation:auto;text-transform:none" d="M8 21a3 3 0 1 0 0 6h32a3 3 0 1 0 0-6H8zM8 11a3 3 0 1 0 0 6h32a3 3 0 1 0 0-6H8zM8 31a3 3 0 1 0 0 6h32a3 3 0 1 0 0-6H8z"/></g></symbol><symbol id="minus" viewBox="0 0 48 48.000001"><path style="text-decoration-color:#000;text-decoration-line:none;mix-blend-mode:normal;block-progression:tb;text-indent:0;text-decoration-style:solid;isolation:auto;text-transform:none" d="M8 21a3 3 0 1 0 0 6h32a3 3 0 1 0 0-6H8z" color="#000" fill-rule="evenodd" white-space="normal"/></symbol><symbol id="plus" viewBox="0 0 48 48.000001"><path style="text-decoration-color:#000;text-decoration-line:none;mix-blend-mode:normal;block-progression:tb;text-indent:0;text-decoration-style:solid;isolation:auto;text-transform:none" d="M23.955 4.959A3 3 0 0 0 21 8v13H8a3 3 0 1 0 0 6h13v13a3 3 0 1 0 6 0V27h13a3 3 0 1 0 0-6H27V8a3 3 0 0 0-3.045-3.041z" color="#000" fill-rule="evenodd" white-space="normal"/></symbol><symbol id="processing" viewBox="0 0 48 48"><path d="M42.066 14.811c-.672-.153-1.499-.606-1.334-1.425.13-.858 1.18-.804 1.625-1.373.612-.726-.087-1.53-.35-2.234-.25-.774-1.158-1.14-1.86-.703-.775.711-2.172-.002-1.88-1.061.297-.622.596-1.575-.13-2.028-.689-.325-1.455-.743-2.228-.677-.894.187-.795 1.232-1.315 1.773-.543.578-1.543.256-1.767-.474-.182-.797-1.035-1.357-1.817-.972-.688.408-1.85.558-1.88 1.562.077.79.985 1.73.1 2.397-.706.592-1.458-.188-2.205-.12-.922.04-1.038 1.082-1.328 1.75-.4.736.033 1.619.837 1.807 1.057.02 1.573 1.595.557 2.079-.687.22-1.566.782-1.25 1.63.333.697.506 1.628 1.223 2.028.82.434 1.467-.554 2.28-.33 1.093.274.772 1.537.442 2.288-.159 1.017.978 1.345 1.733 1.568.762.509 1.815-.094 1.887-.975.154-.69.954-1.207 1.61-.817.704.396.595 1.53 1.482 1.696.878.144 1.689-.476 2.414-.892.84-.753-.194-1.653-.165-2.488.117-.85 1.2-1.117 1.842-.664.704.37 1.586-.072 1.702-.862.283-.757.886-1.87-.064-2.413l-.162-.07zm-4.416.325c-.689 2.136-3.536 3.117-5.405 1.876-1.8-1.07-2.322-3.751-.986-5.387 1.229-1.64 3.866-1.927 5.374-.506 1.1.974 1.553 2.637 1.017 4.018zM30.077 26.898c-1.031.13-2.437-.086-2.626-1.331-.259-1.285 1.257-1.749 1.595-2.786.493-1.345-.912-2.123-1.65-2.985-.755-.969-2.23-1.02-2.999-.04-.731 1.41-3.08 1.12-3.215-.532.103-1.036.035-2.54-1.228-2.809-1.144-.105-2.446-.302-3.508.19-1.172.727-.491 2.157-.95 3.193-.471 1.1-2.054 1.159-2.749.24-.67-1.037-2.168-1.39-3.078-.442-.764.933-2.335 1.747-1.858 3.185.517 1.081 2.288 1.943 1.377 3.347-.695 1.203-2.163.484-3.187.966-1.287.532-.913 2.07-.979 3.166-.189 1.251.882 2.279 2.118 2.132 1.51-.518 3.054 1.448 1.863 2.659-.86.665-1.817 1.916-.931 2.954.832.817 1.557 2.049 2.78 2.245 1.387.192 1.794-1.542 3.063-1.643 1.69-.176 1.886 1.78 1.806 3.015.3 1.524 2.08 1.402 3.266 1.33 1.344.326 2.525-1.072 2.172-2.357-.137-1.058.73-2.204 1.862-1.99 1.201.198 1.633 1.863 2.975 1.64 1.32-.249 2.148-1.546 2.962-2.51.801-1.5-1.127-2.243-1.517-3.442-.273-1.266 1.125-2.202 2.268-1.891 1.19.162 2.212-.921 1.968-2.101.01-1.218.291-3.107-1.336-3.387l-.266-.016zm-6.093 2.74c.126 3.383-3.404 6.242-6.693 5.448-3.106-.587-5.228-4.12-4.18-7.128.897-2.96 4.489-4.727 7.358-3.49 2.062.813 3.563 2.937 3.515 5.17z"/></symbol><symbol id="search"><path style="text-decoration-color:#000;isolation:auto;mix-blend-mode:normal;block-progression:tb;text-decoration-line:none;text-indent:0;text-transform:none;text-decoration-style:solid" d="M19.914 5.013c-4.755.168-9.426 2.438-12.17 6.721-6.005 8.223-1.647 20.721 8.168 23.428 4.691 1.605 9.613.544 13.407-2.129l9.157 9.155a2.64 2.64 0 1 0 3.732-3.732l-9.18-9.18c1.699-2.359 2.743-5.164 2.782-8.242a2.64 2.64 0 0 0 .07-.59c0-.017-.009-.032-.009-.049 0-.02.006-.037.005-.056l-.01.023a15.356 15.356 0 0 0-3.312-9.48c-3.039-4.103-7.875-6.04-12.642-5.872zm.19 5.412c3.163-.112 6.37 1.08 8.24 3.629a2.64 2.64 0 0 0 .065.085 10.224 10.224 0 0 1 2.193 6.291v.003a2.64 2.64 0 0 0 .003.105c.24 6.318-7.092 11.71-13.05 9.622a2.64 2.64 0 0 0-.19-.057c-6.104-1.64-9.1-10.231-5.337-15.31a2.64 2.64 0 0 0 .114-.165c1.685-2.674 4.8-4.092 7.961-4.204z" color="#000" white-space="normal"/></symbol><symbol id="settings" viewBox="0 0 48 48"><path d="M40.672 20.095c-1.467.185-3.467-.122-3.736-1.893-.368-1.828 1.788-2.488 2.27-3.963.7-1.913-1.298-3.02-2.348-4.247-1.074-1.378-3.17-1.451-4.266-.056-1.04 2.005-4.38 1.592-4.573-.758.146-1.474.05-3.613-1.748-3.995-1.627-.15-3.479-.43-4.99.27-1.666 1.034-.698 3.068-1.35 4.542-.67 1.564-2.923 1.649-3.91.34-.954-1.473-3.085-1.976-4.379-.627-1.088 1.328-3.322 2.485-2.644 4.53.735 1.538 3.256 2.765 1.96 4.762-.989 1.712-3.077.689-4.535 1.374-1.83.757-1.299 2.945-1.392 4.504-.269 1.78 1.254 3.241 3.013 3.032 2.147-.737 4.344 2.06 2.65 3.783-1.224.946-2.585 2.726-1.324 4.202 1.183 1.163 2.215 2.914 3.955 3.194 1.972.274 2.551-2.194 4.357-2.337 2.404-.251 2.683 2.53 2.569 4.288.426 2.168 2.959 1.995 4.645 1.891 1.912.465 3.593-1.523 3.09-3.352-.194-1.504 1.038-3.135 2.649-2.83 1.709.282 2.322 2.65 4.231 2.333 1.877-.354 3.057-2.2 4.214-3.572 1.14-2.133-1.604-3.19-2.158-4.895-.388-1.8 1.6-3.133 3.226-2.69 1.693.23 3.147-1.31 2.8-2.99.015-1.732.414-4.42-1.901-4.818l-.378-.021zm-8.668 3.898c.18 4.812-4.842 8.88-9.52 7.75-4.419-.836-7.437-5.862-5.945-10.14 1.275-4.21 6.384-6.724 10.466-4.965 2.933 1.157 5.068 4.178 5 7.355z"/></symbol><symbol id="star" viewBox="0 0 48 48"><path style="text-decoration-color:#000;isolation:auto;mix-blend-mode:normal;block-progression:tb;text-decoration-line:none;text-indent:0;text-transform:none;text-decoration-style:solid" d="M23.819 5.045a3.86 3.86 0 0 0-1.378.51c-.23.138-.418.335-.548.57-1.71 3.08-3.177 6.233-4.728 9.284-2.582.328-5.163.658-7.745.987l.336-.006c-1.113-.104-2.277.095-3.34.802-.531.353-1.059.892-1.298 1.657-.238.765-.102 1.653.288 2.385.06.112.134.216.22.31 2.3 2.53 4.678 4.948 6.974 7.4l-1.394 7.45.034-.144c-.232.803-.582 1.985-.438 3.305.072.66.298 1.435.932 2.041.633.606 1.576.86 2.483.8.194-.013.383-.063.558-.146 3.041-1.447 5.94-3.071 8.846-4.576l8.44 4.882-.007-.022c.864.537 1.818.584 2.69.258.89-.334 1.78-1.322 1.775-2.511 0-.061-.003-.122-.01-.182-.44-3.575-.992-7.108-1.494-10.63l4.814-4.67.042-.04c.386-.403 1.51-1.234 2.34-2.36.415-.563.827-1.287.788-2.237-.04-.95-.66-1.861-1.482-2.425a1.501 1.501 0 0 0-.579-.244c-3.305-.64-6.606-1.178-9.88-1.756-.9-2.01-1.802-4.02-2.702-6.032a1.538 1.538 0 0 0-.05-.104c-.235-.433-.593-1.732-1.318-2.9-.362-.584-.882-1.233-1.766-1.55a2.837 2.837 0 0 0-1.404-.11z" color="#000" white-space="normal"/></symbol><symbol id="time" viewBox="0 0 48.000001 48.000001"><path style="text-decoration-color:#000;text-decoration-line:none;mix-blend-mode:normal;block-progression:tb;text-indent:0;text-decoration-style:solid;isolation:auto;text-transform:none" d="M24 5C13.534 5 5 13.534 5 24s8.534 19 19 19 19-8.534 19-19S34.466 5 24 5zm0 4.576A14.39 14.39 0 0 1 38.424 24c0 7.993-6.431 14.426-14.424 14.426S9.576 31.993 9.576 24A14.39 14.39 0 0 1 24 9.576zM22 13v11.895l6.289 5.63 2.668-2.978L26 23.107V13h-4z" color="#000" fill-rule="evenodd" white-space="normal"/></symbol><symbol id="trash" viewBox="0 0 48 48"><path d="M11.132 38.754c-.077 2.454 2.315 4.504 4.752 4.22 5.67-.015 11.341.028 17.01-.023 2.357-.172 4.113-2.493 3.829-4.774V13.439H11.132v25.314zM38.857 7.11h-7.464L29.259 5H18.596l-2.133 2.11H9v4.219h29.855v-4.22z"/></symbol><symbol id="zoom-in"><path style="text-decoration-color:#000;isolation:auto;mix-blend-mode:normal;block-progression:tb;text-decoration-line:none;text-indent:0;text-transform:none;text-decoration-style:solid" d="M19.906 5.011c-4.752.169-9.421 2.438-12.164 6.722-6 8.22-1.649 20.713 8.153 23.426 4.693 1.61 9.618.55 13.413-2.126l9.15 9.155a2.638 2.64 0 1 0 3.73-3.732l-9.172-9.18c1.695-2.356 2.737-5.159 2.777-8.232a2.638 2.64 0 0 0 .07-.6c0-.017-.008-.033-.008-.05 0-.019.006-.036.005-.056l-.01.023a15.368 15.368 0 0 0-3.308-9.474C29.505 6.783 24.67 4.841 19.905 5.01zm.19 5.413c3.161-.112 6.367 1.08 8.236 3.629a2.638 2.64 0 0 0 .064.085 10.225 10.225 0 0 1 2.193 6.294l.002-.005a2.638 2.64 0 0 0 0 .113c.24 6.318-7.088 11.707-13.042 9.62a2.638 2.64 0 0 0-.188-.056c-6.099-1.64-9.097-10.231-5.335-15.31a2.638 2.64 0 0 0 .113-.165c1.684-2.674 4.797-4.092 7.957-4.204zm.359 1.784a2.638 2.64 0 0 0-2.612 2.664l-.013 2.83-2.59-.007a2.638 2.64 0 1 0-.012 5.278l2.578.008-.015 3.116a2.638 2.64 0 1 0 5.276.023l.015-3.126 2.71.008a2.638 2.64 0 1 0 .013-5.279l-2.7-.008.013-2.82a2.638 2.64 0 0 0-2.663-2.688z" color="#000" white-space="normal"/></symbol><symbol id="zoom-out"><path style="text-decoration-color:#000;isolation:auto;mix-blend-mode:normal;block-progression:tb;text-decoration-line:none;text-indent:0;text-transform:none;text-decoration-style:solid" d="M19.906 5.013c-4.752.168-9.421 2.438-12.164 6.721-6.002 8.223-1.646 20.722 8.164 23.428 4.69 1.605 9.608.544 13.4-2.129l9.153 9.155a2.638 2.64 0 1 0 3.73-3.732l-9.175-9.18c1.698-2.359 2.741-5.164 2.78-8.242a2.638 2.64 0 0 0 .07-.59c0-.017-.008-.032-.008-.049-.001-.02.005-.037.005-.056l-.01.023a15.366 15.366 0 0 0-3.31-9.48c-3.039-4.103-7.872-6.04-12.636-5.872zm.19 5.412c3.161-.112 6.367 1.08 8.236 3.629a2.638 2.64 0 0 0 .064.085 10.228 10.228 0 0 1 2.193 6.291v.003a2.638 2.64 0 0 0 .002.105c.24 6.318-7.088 11.71-13.042 9.622a2.638 2.64 0 0 0-.191-.057c-6.099-1.64-9.094-10.231-5.333-15.31a2.638 2.64 0 0 0 .113-.165c1.684-2.674 4.797-4.092 7.958-4.204zm-4.855 7.273a2.638 2.64 0 1 0-.013 5.279l10.562.028a2.638 2.64 0 1 0 .015-5.279l-10.564-.028z" color="#000" white-space="normal"/></symbol></svg>