<?xml version="1.0" encoding="UTF-8"?><!DOCTYPE svg PUBLIC "-//W3C//DTD SVG 1.1//EN" "http://www.w3.org/Graphics/SVG/1.1/DTD/svg11.dtd"><svg xmlns="http://www.w3.org/2000/svg"><symbol id="action-check" viewBox="0 0 48 48"><path style="text-decoration-color:#000;text-decoration-line:none;mix-blend-mode:normal;block-progression:tb;text-indent:0;text-decoration-style:solid;isolation:auto;text-transform:none" d="M36.227 12.678a1.97 2.03 0 0 0-1.354.614L18.36 30.302l-5.154-5.973a1.97 2.03 0 1 0-2.945 2.696l6.542 7.581a1.97 2.03 0 0 0 2.865.087l17.99-18.532a1.97 2.03 0 0 0-1.43-3.484z" color="#000" white-space="normal"/></symbol><symbol id="action-close" viewBox="0 0 48 48"><path style="text-decoration-color:#000;text-decoration-line:none;mix-blend-mode:normal;block-progression:tb;text-indent:0;text-decoration-style:solid;isolation:auto;text-transform:none" d="M13.996 11.9a2 2 0 0 0-1.393 3.433l8.569 8.569-8.569 8.57a2 2 0 1 0 2.829 2.828L24 26.8l8.568 8.569a2 2 0 1 0 2.828-2.829l-8.568-8.57 8.568-8.568a2 2 0 1 0-2.828-2.828L24 21.074l-8.569-8.569a2 2 0 0 0-1.435-.605z" color="#000" white-space="normal"/></symbol><symbol id="action-home" viewBox="0 0 24 24"><path style="text-decoration-color:#000;text-decoration-line:none;mix-blend-mode:normal;block-progression:tb;text-indent:0;text-decoration-style:solid;isolation:auto;text-transform:none" d="M12.008 5c-.758.35-1.208 1.223-1.847 1.77-1.703 1.827-3.444 3.623-5.123 5.47-.204.554.457.622.84.575h.772c.006 1.954-.01 3.91.009 5.864.148.477.696.28 1.067.321.77-.008 1.541.017 2.31-.012.455-.147.262-.7.304-1.06v-3.463h3.32c.006 1.405-.01 2.81.008 4.214.149.477.697.28 1.068.322.764-.006 1.53.01 2.293-.008.478-.147.281-.697.323-1.068v-5.11c.456-.011.915.023 1.37-.019.792-.631-.658-1.307-.965-1.864-1.843-1.95-3.672-3.916-5.525-5.858A.4.4 0 0 0 12.008 5z" color="#000" white-space="normal"/><path d="M0 0h24v24H0z" fill="none"/></symbol><symbol id="action-search"><path style="text-decoration-color:#000;text-decoration-line:none;mix-blend-mode:normal;block-progression:tb;text-indent:0;text-decoration-style:solid;isolation:auto;text-transform:none" d="M20.889 9.611c-3.603.128-7.143 1.848-9.223 5.094-4.55 6.232-1.248 15.703 6.19 17.754 3.555 1.216 7.285.412 10.16-1.613l6.94 6.937a2 2 0 1 0 2.827-2.828L30.827 28c1.287-1.788 2.079-3.914 2.108-6.246a2 2 0 0 0 .053-.447c0-.013-.006-.025-.006-.037 0-.015.004-.029.004-.043l-.008.017a11.634 11.634 0 0 0-2.51-7.184c-2.302-3.109-5.967-4.577-9.58-4.45zm.145 4.102c2.396-.085 4.827.819 6.244 2.75a2 2 0 0 0 .048.064 7.748 7.748 0 0 1 1.663 4.768v.002a2 2 0 0 0 .002.08c.181 4.788-5.374 8.874-9.89 7.291a2 2 0 0 0-.144-.043c-4.624-1.242-6.895-7.753-4.043-11.602a2 2 0 0 0 .086-.125c1.277-2.026 3.637-3.1 6.033-3.185z" color="#000" white-space="normal"/></symbol><symbol id="action-settings" viewBox="0 0 48 48"><path d="M36.285 21.123c-1.08.136-2.555-.09-2.753-1.395-.271-1.347 1.318-1.833 1.672-2.92.517-1.41-.956-2.225-1.73-3.13-.79-1.015-2.336-1.069-3.143-.04-.766 1.476-3.228 1.172-3.37-.56.108-1.085.037-2.662-1.287-2.943-1.2-.11-2.564-.316-3.677.2-1.228.761-.514 2.26-.995 3.346-.494 1.152-2.154 1.215-2.882.251-.702-1.086-2.272-1.457-3.226-.463-.801.979-2.447 1.831-1.948 3.339.542 1.133 2.4 2.037 1.444 3.508-.728 1.261-2.267.508-3.34 1.012-1.35.559-.958 2.171-1.027 3.32-.198 1.31.925 2.388 2.22 2.233 1.583-.543 3.201 1.519 1.953 2.788-.902.697-1.905 2.009-.976 3.096.872.857 1.632 2.147 2.915 2.353 1.453.202 1.88-1.616 3.21-1.722 1.771-.184 1.977 1.865 1.893 3.16.314 1.597 2.18 1.47 3.423 1.393 1.408.343 2.647-1.122 2.277-2.469-.144-1.109.764-2.31 1.951-2.085 1.26.207 1.711 1.952 3.118 1.718 1.383-.26 2.252-1.62 3.105-2.631.84-1.572-1.182-2.351-1.59-3.607-.286-1.327 1.18-2.309 2.377-1.983 1.247.17 2.32-.965 2.063-2.202.011-1.277.305-3.257-1.4-3.55l-.279-.016zm-6.387 2.872c.133 3.546-3.568 6.543-7.015 5.71-3.256-.615-5.48-4.318-4.38-7.471.939-3.102 4.704-4.954 7.711-3.658 2.162.852 3.734 3.078 3.685 5.42z"/></symbol><symbol id="action-star" viewBox="0 0 48 48"><path style="text-decoration-color:#000;text-decoration-line:none;mix-blend-mode:normal;block-progression:tb;text-indent:0;text-decoration-style:solid;isolation:auto;text-transform:none" d="M23.866 10.03a2.845 2.845 0 0 0-1.015.375 1.132 1.132 0 0 0-.404.42c-1.26 2.27-2.34 4.593-3.483 6.841l-5.707.728.247-.005c-.82-.076-1.678.07-2.46.591-.392.26-.78.658-.957 1.221-.176.564-.075 1.218.212 1.758.045.082.1.159.162.228 1.695 1.865 3.447 3.646 5.139 5.452l-1.028 5.49.026-.105c-.171.591-.429 1.462-.323 2.435.053.486.22 1.057.687 1.504.466.446 1.161.633 1.83.589.142-.01.282-.046.41-.108 2.241-1.066 4.377-2.263 6.518-3.372l6.22 3.598-.006-.016c.636.396 1.34.43 1.982.19.656-.246 1.312-.974 1.308-1.85 0-.045-.002-.09-.007-.135-.325-2.634-.731-5.237-1.101-7.833l3.547-3.44.03-.03c.285-.297 1.113-.909 1.725-1.739.305-.414.609-.948.58-1.648-.028-.7-.487-1.372-1.092-1.787a1.106 1.106 0 0 0-.426-.18c-2.435-.47-4.867-.868-7.28-1.294-.663-1.481-1.328-2.963-1.99-4.444a1.133 1.133 0 0 0-.038-.077c-.173-.32-.437-1.277-.97-2.137-.268-.43-.651-.908-1.302-1.142a2.09 2.09 0 0 0-1.034-.081z" color="#000" white-space="normal"/></symbol><symbol id="action-trash" viewBox="0 0 48 48"><path d="M14.571 34.872c-.056 1.808 1.706 3.319 3.501 3.109 4.178-.01 8.357.021 12.534-.016 1.737-.127 3.031-1.838 2.822-3.518V16.219H14.57v18.653zM35 11.555h-5.5L27.928 10h-7.857L18.5 11.554H13v3.11h21.999v-3.11z"/></symbol><symbol id="action-zoom-in"><path style="text-decoration-color:#000;text-decoration-line:none;mix-blend-mode:normal;block-progression:tb;text-indent:0;text-decoration-style:solid;isolation:auto;text-transform:none" d="M20.889 9.611c-3.603.128-7.143 1.848-9.223 5.094-4.549 6.23-1.25 15.696 6.182 17.752 3.558 1.22 7.292.416 10.17-1.611l6.937 6.937a2 2 0 1 0 2.828-2.828L30.83 28c1.285-1.786 2.075-3.91 2.106-6.238a2 2 0 0 0 .053-.455c0-.013-.006-.025-.006-.037 0-.015.004-.029.004-.043l-.008.017a11.644 11.644 0 0 0-2.508-7.18c-2.303-3.11-5.968-4.58-9.582-4.453zm.145 4.102c2.396-.085 4.827.819 6.244 2.75a2 2 0 0 0 .048.064 7.746 7.746 0 0 1 1.663 4.77l.002-.004a2 2 0 0 0 0 .086c.181 4.787-5.374 8.872-9.89 7.289a2 2 0 0 0-.142-.042c-4.624-1.242-6.897-7.753-4.045-11.602a2 2 0 0 0 .086-.125c1.277-2.026 3.637-3.1 6.033-3.186zm.271 1.352a2 2 0 0 0-1.98 2.019l-.01 2.144-1.963-.005a2 2 0 1 0-.01 4c.652.001 1.303.004 1.955.006l-.012 2.36a2 2 0 1 0 4 .018l.012-2.369 2.055.006a2 2 0 1 0 .01-4l-2.047-.006.01-2.136a2 2 0 0 0-2.02-2.038z" color="#000" white-space="normal"/></symbol><symbol id="action-zoom-out"><path style="text-decoration-color:#000;text-decoration-line:none;mix-blend-mode:normal;block-progression:tb;text-indent:0;text-decoration-style:solid;isolation:auto;text-transform:none" d="M20.889 9.611c-3.603.128-7.143 1.848-9.223 5.094-4.55 6.232-1.248 15.703 6.19 17.754 3.555 1.216 7.285.412 10.16-1.613l6.94 6.937a2 2 0 1 0 2.827-2.828L30.827 28c1.287-1.788 2.079-3.914 2.108-6.246a2 2 0 0 0 .053-.447c0-.013-.006-.025-.006-.037 0-.015.004-.029.004-.043l-.008.017a11.634 11.634 0 0 0-2.51-7.184c-2.302-3.109-5.967-4.577-9.58-4.45zm.145 4.102c2.396-.085 4.827.819 6.244 2.75a2 2 0 0 0 .048.064 7.748 7.748 0 0 1 1.663 4.768v.002a2 2 0 0 0 .002.08c.181 4.788-5.374 8.874-9.89 7.291a2 2 0 0 0-.144-.043c-4.624-1.242-6.895-7.753-4.043-11.602a2 2 0 0 0 .086-.125c1.277-2.026 3.637-3.1 6.033-3.185zm-3.682 5.512a2 2 0 1 0-.01 4l8.008.021a2 2 0 1 0 .012-4l-8.01-.021z" color="#000" white-space="normal"/></symbol><symbol id="alert-done" viewBox="0 0 48 48"><path opacity=".967" style="text-decoration-color:#000;isolation:auto;mix-blend-mode:normal;block-progression:tb;text-decoration-line:none;text-indent:0;text-transform:none;text-decoration-style:solid" d="M23.996 10.001c-5.563-.076-10.914 3.548-12.961 8.712-2.097 4.969-.939 11.084 2.833 14.939 3.668 3.949 9.712 5.402 14.774 3.552 5.305-1.806 9.201-7.054 9.34-12.664.285-5.45-2.99-10.842-7.922-13.156a13.924 13.924 0 0 0-6.063-1.382zm6.129 8.318c1.009-.082 1.478 1.359.654 1.92-3.028 3.009-6.02 6.06-9.07 9.042-.678.48-1.407-.086-1.792-.652-.998-1.169-2.095-2.265-3.03-3.48-.48-.911.742-1.936 1.555-1.304.952.964 1.812 2.023 2.728 3.024 2.801-2.784 5.57-5.604 8.392-8.367.165-.113.363-.178.563-.184z" fill-rule="evenodd" color="#000" white-space="normal"/></symbol><symbol id="alert-error" viewBox="0 0 48 48"><path d="M24.059 10.009c-5.687-.253-10.94 3.756-13.015 8.917-1.32 3.1-1.377 6.678-.179 9.825 1.934 6.002 8.473 9.74 14.622 9.202 3.526-.247 6.793-2.116 9.153-4.685 4.79-5.443 4.47-14.74-1.056-19.566-2.608-2.321-6.017-3.718-9.525-3.693zm-5.835 6.998c1.077.19 1.605 1.278 2.403 1.92l3.432 3.432c1.8-1.734 3.478-3.61 5.356-5.251 1.471-.583 2.27 1.662.867 2.325-1.527 1.522-3.05 3.048-4.575 4.573 1.74 1.794 3.598 3.488 5.262 5.347.628 1.392-1.526 2.339-2.227.981-1.56-1.56-3.12-3.122-4.683-4.68-1.794 1.74-3.489 3.596-5.348 5.26-1.39.63-2.34-1.524-.982-2.226 1.56-1.56 3.123-3.12 4.683-4.683-1.733-1.785-3.58-3.472-5.237-5.32-.387-.727.22-1.72 1.049-1.678z" opacity=".967" fill-rule="evenodd"/></symbol><symbol id="alert-info" viewBox="0 0 24 24"><path d="M0 0h24v24H0z" fill="none"/><path d="M12 5c-3.864 0-7 3.136-7 7s3.136 7 7 7 7-3.136 7-7-3.136-7-7-7zm.7 10.5c-.143.444-1.264.446-1.4 0-.313-1.024-.34-3.243 0-4.2.156-.44 1.278-.45 1.4 0 .258.955.328 3.179 0 4.2zm0-5.6c-.33.33-1.07.33-1.4 0-.33-.33-.33-1.07 0-1.4.33-.33 1.07-.33 1.4 0 .33.33.33 1.07 0 1.4z"/></symbol><symbol id="alert-warning" viewBox="0 0 24 24"><path style="text-decoration-color:#000;isolation:auto;mix-blend-mode:normal;block-progression:tb;text-decoration-line:none;text-indent:0;text-transform:none;text-decoration-style:solid" d="M12.023 6.25c-.464.036-.577.563-.825.879L5.08 16.98c-.311.564.358.845.813.753h12.645c.64-.033.523-.753.204-1.093l-6.31-10.159a.49.49 0 0 0-.409-.23zm-.01 3.229c.872-.072.777 1 .87 1.586.045.91.098 1.877-.253 2.736-.431.454-1.39.235-1.4-.469-.234-1.166-.138-2.388.134-3.54.09-.256.414-.308.648-.313zm.004 4.97c.625-.068 1.03.605.85 1.166-.158.861-1.659.8-1.719-.091-.116-.564.265-1.122.87-1.075z" fill-rule="evenodd" color="#000" white-space="normal"/><path d="M0 0h24v24H0z" fill="none"/></symbol><symbol id="navigation-arrow-down" viewBox="0 0 48 48"><path style="text-decoration-color:#000;text-decoration-line:none;mix-blend-mode:normal;block-progression:tb;text-indent:0;text-decoration-style:solid;isolation:auto;text-transform:none" d="M15.018 29.279c.05 1.09 1.125 1.658 1.784 2.408 2.055 1.994 4.1 4.004 6.161 5.988.835.622 2.057.298 2.625-.51 2.33-2.271 4.669-4.534 6.992-6.812.967-1 .18-2.838-1.231-2.874-1.195-.094-1.832 1.024-2.623 1.692l-2.922 2.844c0-6.804.009-13.608-.01-20.413-.05-1.372-1.946-2.12-2.964-1.169-.903.755-.545 1.975-.618 2.985v18.597c-1.47-1.404-2.886-2.864-4.39-4.23-1.156-.82-2.89.101-2.806 1.494z" color="#000" white-space="normal"/></symbol><symbol id="navigation-arrow-left" viewBox="0 0 48 48"><path style="text-decoration-color:#000;text-decoration-line:none;mix-blend-mode:normal;block-progression:tb;text-indent:0;text-decoration-style:solid;isolation:auto;text-transform:none" d="M18.702 14.987c-1.086.05-1.653 1.127-2.4 1.787-1.99 2.061-3.995 4.113-5.974 6.18-.62.837-.298 2.062.508 2.632 2.266 2.336 4.522 4.682 6.795 7.011.998.97 2.83.18 2.866-1.234.094-1.198-1.02-1.836-1.686-2.628l-2.838-2.932c6.786 0 13.572.009 20.358-.01 1.37-.05 2.115-1.951 1.166-2.973-.753-.905-1.968-.546-2.975-.62H15.973c1.4-1.473 2.856-2.893 4.219-4.4.817-1.16-.101-2.9-1.49-2.815z" color="#000" white-space="normal"/></symbol><symbol id="navigation-arrow-right" viewBox="0 0 48 48"><path style="text-decoration-color:#000;text-decoration-line:none;mix-blend-mode:normal;block-progression:tb;text-indent:0;text-decoration-style:solid;isolation:auto;text-transform:none" d="M29.222 14.987c1.086.05 1.653 1.127 2.4 1.787 1.99 2.061 3.995 4.113 5.974 6.18.62.837.297 2.062-.508 2.632-2.266 2.336-4.522 4.682-6.795 7.011-.998.97-2.83.18-2.866-1.234-.094-1.198 1.02-1.836 1.686-2.628l2.838-2.932c-6.786 0-13.572.009-20.358-.01-1.37-.05-2.115-1.951-1.166-2.973.753-.905 1.968-.546 2.975-.62h18.549c-1.4-1.473-2.856-2.893-4.219-4.4-.817-1.16.101-2.9 1.49-2.815z" color="#000" white-space="normal"/></symbol><symbol id="navigation-arrow-up" viewBox="0 0 48 48"><path style="text-decoration-color:#000;text-decoration-line:none;mix-blend-mode:normal;block-progression:tb;text-indent:0;text-decoration-style:solid;isolation:auto;text-transform:none" d="M15.018 18.778c.05-1.086 1.127-1.652 1.787-2.4 2.062-1.99 4.113-3.994 6.18-5.973.837-.62 2.062-.298 2.632.507 2.336 2.266 4.682 4.523 7.012 6.795.97.998.18 2.83-1.235 2.866-1.197.094-1.836-1.02-2.628-1.686l-2.932-2.838c0 6.786.009 13.572-.01 20.359-.05 1.369-1.951 2.114-2.973 1.166-.905-.753-.545-1.969-.62-2.976V16.05c-1.472 1.4-2.893 2.856-4.4 4.218-1.16.817-2.9-.1-2.815-1.49z" color="#000" white-space="normal"/></symbol><symbol id="navigation-chevron-down" viewBox="0 0 48 48"><path style="text-decoration-color:#000;text-decoration-line:none;mix-blend-mode:normal;block-progression:tb;text-indent:0;text-decoration-style:solid;isolation:auto;text-transform:none" d="M15.914 18c-1.335-.062-2.346 1.501-1.743 2.694.421.728 1.117 1.245 1.678 1.864 2.319 2.333 4.62 4.684 6.95 7.006.973.859 2.406.33 3.074-.64 2.559-2.594 5.136-5.171 7.684-7.777.884-1.002.298-2.77-1.01-3.046-1.136-.348-1.98.611-2.667 1.354-1.956 1.976-3.913 3.951-5.868 5.928-2.292-2.307-4.572-4.63-6.872-6.93a1.909 1.909 0 0 0-1.226-.452z" color="#000" white-space="normal"/></symbol><symbol id="navigation-chevron-left" viewBox="0 0 48 48"><path style="text-decoration-color:#000;text-decoration-line:none;mix-blend-mode:normal;block-progression:tb;text-indent:0;text-decoration-style:solid;isolation:auto;text-transform:none" d="M28.047 14c-1.23.039-1.864 1.258-2.718 1.96-2.296 2.282-4.61 4.546-6.893 6.839-.729.83-.485 2.15.36 2.798 2.688 2.65 5.359 5.32 8.057 7.96 1.002.884 2.77.298 3.046-1.01.257-.852-.24-1.657-.87-2.189l-6.414-6.344c2.31-2.293 4.631-4.573 6.932-6.874.907-.98.365-2.762-.935-3.07a1.893 1.893 0 0 0-.565-.07z" color="#000" white-space="normal"/></symbol><symbol id="navigation-chevron-right" viewBox="0 0 48 48"><path style="text-decoration-color:#000;text-decoration-line:none;mix-blend-mode:normal;block-progression:tb;text-indent:0;text-decoration-style:solid;isolation:auto;text-transform:none" d="M19.896 14c-1.335-.05-2.333 1.522-1.719 2.71.507.842 1.346 1.423 2 2.148l5.207 5.156c-2.3 2.284-4.617 4.55-6.906 6.845-.894.993-.328 2.767.976 3.057.85.266 1.66-.222 2.199-.847 2.635-2.616 5.287-5.215 7.91-7.842.859-.973.33-2.406-.639-3.074-2.6-2.57-5.188-5.152-7.797-7.713a1.906 1.906 0 0 0-1.23-.441z" color="#000" white-space="normal"/></symbol><symbol id="navigation-chevron-up" viewBox="0 0 48 48"><path style="text-decoration-color:#000;text-decoration-line:none;mix-blend-mode:normal;block-progression:tb;text-indent:0;text-decoration-style:solid;isolation:auto;text-transform:none" d="M23.996 18c-1.066-.015-1.653.95-2.354 1.59-2.397 2.43-4.813 4.843-7.199 7.284-.884 1.002-.3 2.77 1.007 3.047.852.257 1.658-.24 2.19-.869l6.373-6.437c2.284 2.3 4.551 4.618 6.846 6.906.993.895 2.766.329 3.057-.975.266-.85-.222-1.66-.847-2.199-2.616-2.635-5.215-5.288-7.843-7.91a1.908 1.908 0 0 0-1.23-.437z" color="#000" white-space="normal"/></symbol></svg>