<?xml version="1.0" encoding="UTF-8" standalone="no"?>
<svg xmlns:rdf="http://www.w3.org/1999/02/22-rdf-syntax-ns#" xmlns="http://www.w3.org/2000/svg" height="48" width="48" version="1.1" xmlns:cc="http://creativecommons.org/ns#" xmlns:dc="http://purl.org/dc/elements/1.1/" viewBox="0 0 48 48">
<path style="opacity:0.967;color-rendering:auto;text-decoration-color:#000000;color:#000000;isolation:auto;mix-blend-mode:normal;fill-rule:evenodd;shape-rendering:auto;solid-color:#000000;block-progression:tb;text-decoration-line:none;image-rendering:auto;white-space:normal;text-indent:0;text-transform:none;text-decoration-style:solid;fill:#000000" d="m23.995 5.0022c-7.55-0.1037-14.812 4.815-17.59 11.823-2.8451 6.744-1.2739 15.043 3.845 20.274 4.978 5.359 13.181 7.332 20.051 4.821 7.199-2.451 12.486-9.573 12.676-17.186 0.385-7.398-4.058-14.714-10.753-17.855-2.555-1.236-5.39-1.8795-8.228-1.8752zm8.3172 11.288c1.3699-0.11081 2.0062 1.845 0.88815 2.6063-4.1096 4.0832-8.1692 8.2232-12.31 12.271-0.9191 0.6513-1.9089-0.11606-2.4305-0.88472-1.3544-1.5862-2.8441-3.074-4.1126-4.7229-0.65109-1.2366 1.0068-2.6267 2.1109-1.7698 1.2916 1.3083 2.459 2.7456 3.7024 4.1039 3.8013-3.7786 7.5596-7.6057 11.388-11.354 0.22396-0.15402 0.49266-0.24172 0.76432-0.24956z"/>
</svg>
