<?xml version="1.0" encoding="UTF-8" standalone="no"?>
<svg xmlns:rdf="http://www.w3.org/1999/02/22-rdf-syntax-ns#" xmlns="http://www.w3.org/2000/svg" height="48" width="48" version="1.1" xmlns:cc="http://creativecommons.org/ns#" xmlns:dc="http://purl.org/dc/elements/1.1/" viewBox="0 0 24 24">
<path style="color-rendering:auto;text-decoration-color:#000000;color:#000000;isolation:auto;mix-blend-mode:normal;shape-rendering:auto;solid-color:#000000;block-progression:tb;text-decoration-line:none;image-rendering:auto;white-space:normal;text-indent:0;text-transform:none;text-decoration-style:solid;fill:#000000" fill="#000000" d="m12.023 6.25c-0.464 0.0361-0.577 0.5629-0.825 0.8786-2.0391 3.2834-4.0787 6.5664-6.1182 9.8514-0.31127 0.5643 0.35795 0.84514 0.81299 0.75328h12.645c0.64091-0.03356 0.52283-0.75328 0.2044-1.093-2.103-3.387-4.207-6.773-6.31-10.159-0.086-0.1403-0.245-0.2302-0.409-0.2308zm-0.01083 3.2289c0.87318-0.07236 0.77791 0.99999 0.87077 1.586 0.04498 0.91049 0.0976 1.8775-0.25337 2.7363-0.43104 0.45392-1.3902 0.23445-1.3996-0.46884-0.23411-1.1667-0.13825-2.3884 0.13434-3.5397 0.08934-0.25702 0.41344-0.30886 0.64755-0.31397zm0.0046 4.9705c0.62477-0.0683 1.0311 0.60446 0.85023 1.1651-0.15835 0.86187-1.6589 0.80098-1.7185-0.09047-0.11673-0.56364 0.26476-1.122 0.86862-1.0748z" fill-rule="evenodd"/>
<path d="m0 0h24v24h-24z" fill="none"/>
</svg>
