<?xml version="1.0" encoding="UTF-8" standalone="no"?>
<svg xmlns:rdf="http://www.w3.org/1999/02/22-rdf-syntax-ns#" xmlns="http://www.w3.org/2000/svg" height="48" width="48" version="1.1" xmlns:cc="http://creativecommons.org/ns#" xmlns:dc="http://purl.org/dc/elements/1.1/" viewBox="0 0 24 24">
<path style="color-rendering:auto;fill-rule:evenodd;color:#000000;isolation:auto;mix-blend-mode:normal;text-decoration-color:#000000;shape-rendering:auto;solid-color:#000000;block-progression:tb;text-decoration-line:none;image-rendering:auto;white-space:normal;text-indent:0;text-transform:none;text-decoration-style:solid;fill:#000000" d="m12.031 4.1963c-0.63 0.0489-0.783 0.7639-1.12 1.1923-2.767 4.4559-5.535 8.9114-8.3028 13.369-0.42242 0.76581 0.48577 1.1469 1.1033 1.0223h17.161c0.86978-0.04554 0.70953-1.0223 0.27739-1.4833-2.854-4.597-5.709-9.1917-8.563-13.787-0.117-0.1903-0.332-0.3123-0.555-0.3131zm-0.0147 4.3819c1.185-0.0982 1.0557 1.3571 1.1817 2.1524 0.06104 1.2356 0.13245 2.548-0.34385 3.7134-0.58496 0.61602-1.8866 0.31817-1.8994-0.63626-0.31771-1.5833-0.18762-3.2413 0.18231-4.8037 0.12124-0.3488 0.56108-0.41915 0.87879-0.42609zm0.0062 6.7455c0.84788-0.09269 1.3993 0.82031 1.1538 1.5812-0.2149 1.1696-2.2513 1.087-2.3322-0.12278-0.15841-0.76492 0.35931-1.5227 1.1788-1.4586z"/>
<path d="m0 0h24v24h-24z" fill="none"/>
</svg>
