<?xml version="1.0" encoding="UTF-8" standalone="no"?>
<svg xmlns:rdf="http://www.w3.org/1999/02/22-rdf-syntax-ns#" xmlns="http://www.w3.org/2000/svg" height="48" width="48" version="1.1" xmlns:cc="http://creativecommons.org/ns#" xmlns:dc="http://purl.org/dc/elements/1.1/" viewBox="0 0 48 48">
<path style="color-rendering:auto;text-decoration-color:#000000;color:#000000;isolation:auto;mix-blend-mode:normal;shape-rendering:auto;solid-color:#000000;block-progression:tb;text-decoration-line:none;image-rendering:auto;white-space:normal;text-indent:0;text-transform:none;text-decoration-style:solid;fill:#000000" d="m23.982 12.584c-2.0277-0.02885-3.1453 1.808-4.4786 3.026-4.5622 4.6244-9.1594 9.2161-13.7 13.861-1.6829 1.9059-0.57075 5.2699 1.9166 5.7972 1.6217 0.48948 3.1542-0.45477 4.166-1.6532 4.0431-4.0828 8.086-8.1657 12.129-12.249 4.3462 4.3763 8.6595 8.7868 13.027 13.141 1.8886 1.7025 5.2638 0.62502 5.8166-1.8568 0.50632-1.617-0.42271-3.1594-1.6111-4.1835-4.979-5.012-9.925-10.061-14.925-15.052-0.65-0.541-1.493-0.839-2.34-0.83z"/>
</svg>
