<?xml version="1.0" encoding="UTF-8" standalone="no"?>
<svg xmlns:rdf="http://www.w3.org/1999/02/22-rdf-syntax-ns#" xmlns="http://www.w3.org/2000/svg" height="48" width="48" version="1.1" xmlns:cc="http://creativecommons.org/ns#" xmlns:dc="http://purl.org/dc/elements/1.1/" viewBox="0 0 48 48">
<path style="color-rendering:auto;text-decoration-color:#000000;color:#000000;shape-rendering:auto;solid-color:#000000;text-decoration-line:none;fill:#000000;mix-blend-mode:normal;block-progression:tb;text-indent:0;image-rendering:auto;white-space:normal;text-decoration-style:solid;isolation:auto;text-transform:none" d="m28.047 14c-1.2297 0.03856-1.8637 1.2577-2.7183 1.9604-2.2953 2.2817-4.6089 4.5457-6.8926 6.8385-0.72911 0.82945-0.48496 2.1509 0.36046 2.7978 2.6877 2.6511 5.358 5.3206 8.0566 7.9601 1.0021 0.88386 2.7696 0.29838 3.0459-1.009 0.25698-0.85292-0.24058-1.658-0.87082-2.1897l-6.4128-6.3444c2.3088-2.2926 4.6306-4.5726 6.9313-6.8732 0.907-0.981 0.365-2.762-0.935-3.07-0.183-0.052-0.375-0.076-0.565-0.071z"/>
</svg>
