<?xml version="1.0" encoding="UTF-8" standalone="no"?>
<svg xmlns:rdf="http://www.w3.org/1999/02/22-rdf-syntax-ns#" xmlns="http://www.w3.org/2000/svg" height="48" width="48" version="1.1" xmlns:cc="http://creativecommons.org/ns#" xmlns:dc="http://purl.org/dc/elements/1.1/" viewBox="0 0 48 48">
<path style="color-rendering:auto;text-decoration-color:#000000;color:#000000;isolation:auto;mix-blend-mode:normal;shape-rendering:auto;solid-color:#000000;block-progression:tb;text-decoration-line:none;image-rendering:auto;white-space:normal;text-indent:0;text-transform:none;text-decoration-style:solid;fill:#000000" d="m31.7 5.0022c-2.3388 0.073338-3.5446 2.392-5.17 3.7285-4.3655 4.3396-8.7658 8.6456-13.109 13.006-1.3867 1.5775-0.92236 4.0908 0.68557 5.3212 5.1118 5.0422 10.19 10.119 15.323 15.139 1.9059 1.681 5.2676 0.5675 5.7931-1.919 0.48876-1.6222-0.45756-3.1534-1.6562-4.1646l-12.197-12.065c4.3912-4.3603 8.807-8.6967 13.183-13.072 1.725-1.8658 0.6942-5.2531-1.7783-5.8389-0.34805-0.0989-0.71322-0.14455-1.0746-0.13504z"/>
</svg>
