<?xml version="1.0" encoding="UTF-8" standalone="no"?>
<svg xmlns:rdf="http://www.w3.org/1999/02/22-rdf-syntax-ns#" xmlns="http://www.w3.org/2000/svg" height="48" width="48" version="1.1" xmlns:cc="http://creativecommons.org/ns#" xmlns:dc="http://purl.org/dc/elements/1.1/" viewBox="0 0 24 24">
<path style="color-rendering:auto;text-decoration-color:#000000;color:#000000;isolation:auto;mix-blend-mode:normal;shape-rendering:auto;solid-color:#000000;block-progression:tb;text-decoration-line:none;image-rendering:auto;white-space:normal;text-indent:0;text-transform:none;text-decoration-style:solid;fill:#000000" d="m12.006 2.5c-1.028 0.4739-1.639 1.659-2.5054 2.4009-2.3097 2.4786-4.6721 4.9145-6.9487 7.4201-0.2769 0.751 0.6189 0.843 1.1383 0.78h1.0484c0.00743 2.6514-0.014853 5.3042 0.011123 7.9547 0.20119 0.6467 0.94505 0.37981 1.4478 0.43579 1.0439-0.01099 2.0905 0.02192 3.1328-0.0163 0.6176-0.19979 0.35682-0.95012 0.41307-1.4392v-4.6962h4.5039c0.0075 1.9052-0.01483 3.8118 0.01112 5.716 0.20116 0.6467 0.94501 0.37982 1.4478 0.43581 1.0366-0.0069 2.0746 0.01401 3.1104-0.01072 0.6492-0.19916 0.38217-0.94505 0.43803-1.4483v-6.9315c0.61878-0.01507 1.2422 0.03138 1.8578-0.02545 1.0754-0.85638-0.89109-1.7726-1.3083-2.5283-2.5-2.6465-4.9809-5.3127-7.4945-7.946-0.08817-0.06294-0.19533-0.09848-0.30385-0.10051z"/>
<path d="m0 0h24v24h-24z" fill="none"/>
</svg>
