<?xml version="1.0" encoding="UTF-8" standalone="no"?>
<svg xmlns:rdf="http://www.w3.org/1999/02/22-rdf-syntax-ns#" xmlns="http://www.w3.org/2000/svg" height="48" width="48" version="1.1" xmlns:cc="http://creativecommons.org/ns#" xmlns:dc="http://purl.org/dc/elements/1.1/">
<path style="color-rendering:auto;text-decoration-color:#000000;color:#000000;isolation:auto;mix-blend-mode:normal;shape-rendering:auto;solid-color:#000000;block-progression:tb;text-decoration-line:none;image-rendering:auto;white-space:normal;text-indent:0;text-transform:none;text-decoration-style:solid;fill:#000000" d="m19.914 5.0125c-4.755 0.1683-9.426 2.438-12.17 6.7215-6.0053 8.2231-1.6472 20.721 8.1676 23.428 4.6918 1.6049 9.6132 0.54362 13.407-2.1289l9.1573 9.1546a2.6394 2.6394 0 1 0 3.7319 -3.7319l-9.1791-9.1791c1.6982-2.3597 2.7426-5.1646 2.7809-8.2423a2.6394 2.6394 0 0 0 0.06958 -0.5902c0.000042-0.01671-0.0077-0.03226-0.0078-0.04897-0.000661-0.01953 0.0059-0.03716 0.0051-0.0567l-0.01029 0.0232c-0.01-3.434-1.178-6.791-3.312-9.48-3.039-4.1027-7.875-6.0406-12.642-5.8719zm0.19072 5.4124c3.162-0.11198 6.3699 1.0807 8.2396 3.6289a2.6394 2.6394 0 0 0 0.06443 0.08505c1.3998 1.7548 2.1983 4.0465 2.1933 6.2913-0.000001 0.000843 0.000003 0.0017 0 0.0026a2.6394 2.6394 0 0 0 0.0026 0.10567c0.23988 6.3177-7.0915 11.71-13.049 9.6211a2.6394 2.6394 0 0 0 -0.19134 -0.05674c-6.103-1.639-9.0994-10.231-5.336-15.31a2.6394 2.6394 0 0 0 0.11348 -0.16495c1.6849-2.674 4.7993-4.0916 7.9613-4.2035z"/>
</svg>
