<?xml version="1.0" encoding="UTF-8" standalone="no"?>
<svg xmlns:rdf="http://www.w3.org/1999/02/22-rdf-syntax-ns#" xmlns="http://www.w3.org/2000/svg" xml:space="preserve" height="48" viewBox="0 0 48 48" width="48" version="1.1" xmlns:cc="http://creativecommons.org/ns#" xmlns:dc="http://purl.org/dc/elements/1.1/" enable-background="new 0 0 128 128"><g transform="matrix(.75443 0 0 .75425 5.9067 -54.453)" fill="#000000"><path style="color-rendering:auto;text-decoration-color:#000000;color:#000000;shape-rendering:auto;solid-color:#000000;text-decoration-line:none;fill:#000000;mix-blend-mode:normal;block-progression:tb;text-indent:0;image-rendering:auto;white-space:normal;text-decoration-style:solid;isolation:auto;enable-background:accumulate;text-transform:none" d="m23.805 85.492c-0.46775 0.0741-0.93258 0.24827-1.3457 0.49805-0.2239 0.13567-0.4084 0.32758-0.53516 0.55664-1.6705 3.0093-3.1022 6.0896-4.6172 9.0703-2.5218 0.32132-5.0427 0.64363-7.5645 0.96484l0.32812-0.0059c-1.0871-0.10147-2.2239 0.09296-3.2617 0.7832-0.51891 0.34512-1.0345 0.87161-1.2676 1.6191-0.23307 0.74753-0.10014 1.6149 0.28125 2.3301 0.058804 0.10942 0.13097 0.21111 0.21484 0.30274 2.2466 2.4723 4.5684 4.8341 6.8105 7.2285-0.45401 2.4261-0.90759 4.8531-1.3613 7.2793l0.0332-0.14062c-0.22668 0.78454-0.56784 1.939-0.42773 3.2285 0.07005 0.64473 0.29155 1.4019 0.91016 1.9941 0.61861 0.59223 1.5396 0.84011 2.4258 0.78125 0.18901-0.0127 0.37391-0.0611 0.54492-0.14258 2.9698-1.4134 5.801-3.0004 8.6387-4.4707l8.2441 4.7695-0.0078-0.0215c0.84366 0.52511 1.7763 0.57034 2.627 0.25195 0.87032-0.32576 1.7391-1.2908 1.7344-2.4531 0.000254-0.0594-0.003-0.11874-0.0098-0.17774-0.43095-3.4922-0.96909-6.9442-1.459-10.385 1.5673-1.5208 3.134-3.0418 4.7012-4.5625 0.01392-0.0128 0.02759-0.0258 0.04102-0.0391 0.37662-0.39366 1.4748-1.2046 2.2852-2.3047 0.40518-0.55004 0.8076-1.2573 0.76953-2.1856-0.03807-0.92823-0.64529-1.8184-1.4473-2.3691-0.17-0.119-0.362-0.2-0.565-0.239-3.228-0.624-6.452-1.15-9.65-1.715-0.8791-1.9643-1.7595-3.9283-2.6387-5.8926-0.015-0.03445-0.03129-0.06833-0.04883-0.10156-0.2291-0.42321-0.57956-1.6928-1.2871-2.834-0.35378-0.57059-0.86198-1.2038-1.7246-1.5137-0.43132-0.15492-0.90334-0.18152-1.3711-0.10742z"/></g></svg>
