<?xml version="1.0" encoding="UTF-8" standalone="no"?>
<svg xmlns:rdf="http://www.w3.org/1999/02/22-rdf-syntax-ns#" xmlns="http://www.w3.org/2000/svg" height="48" width="48" version="1.1" xmlns:cc="http://creativecommons.org/ns#" xmlns:dc="http://purl.org/dc/elements/1.1/">
<path style="color-rendering:auto;text-decoration-color:#000000;color:#000000;shape-rendering:auto;solid-color:#000000;text-decoration-line:none;fill:#000000;mix-blend-mode:normal;block-progression:tb;text-indent:0;image-rendering:auto;white-space:normal;text-decoration-style:solid;isolation:auto;text-transform:none" d="m20.889 9.6113c-3.603 0.1276-7.1431 1.8476-9.2227 5.0937-4.5491 6.2292-1.25 15.696 6.1816 17.752 3.5584 1.2203 7.2925 0.41612 10.17-1.6113l6.9375 6.9375a2.0002 2.0002 0 1 0 2.8281 -2.8281l-6.954-6.956c1.2848-1.7859 2.0749-3.9097 2.1055-6.2383a2.0002 2.0002 0 0 0 0.05273 -0.45508c0.000031-0.01267-0.0058-0.02445-0.0059-0.03711-0.000501-0.01479 0.0045-0.02817 0.0039-0.04297l-0.0078 0.01758c-0.0081-2.5994-0.89258-5.1416-2.5078-7.1797-2.3028-3.1099-5.9683-4.5811-9.582-4.4531zm0.14453 4.1016c2.3962-0.08486 4.8272 0.81894 6.2441 2.75a2.0002 2.0002 0 0 0 0.04883 0.06445c1.0616 1.3309 1.6663 3.0672 1.6621 4.7695l0.002-0.0039a2.0002 2.0002 0 0 0 0 0.08594c0.18178 4.7876-5.374 8.8718-9.8887 7.2891a2.0002 2.0002 0 0 0 -0.143 -0.042c-4.624-1.242-6.897-7.753-4.045-11.602a2.0002 2.0002 0 0 0 0.086 -0.125c1.2768-2.0264 3.637-3.1007 6.0332-3.1855zm0.27148 1.3516a2.0002 2.0002 0 0 0 -1.9805 2.0195l-0.0098 2.1445c-0.65422-0.0018-1.3087-0.0041-1.9629-0.0059a2.0002 2.0002 0 1 0 -0.0098 4c0.65162 0.0018 1.3034 0.0041 1.9551 0.0059l-0.01172 2.3613a2.0002 2.0002 0 1 0 4 0.01758l0.01172-2.3691c0.68482 0.0018 1.3699 0.004 2.0547 0.0059a2.0002 2.0002 0 1 0 0.0098 -4c-0.68222-0.0018-1.3647-0.004-2.0469-0.0059l0.0098-2.1367a2.0002 2.0002 0 0 0 -2.0195 -2.0371z"/>
</svg>
