<?xml version="1.0" encoding="UTF-8" standalone="no"?>
<svg xmlns:rdf="http://www.w3.org/1999/02/22-rdf-syntax-ns#" xmlns="http://www.w3.org/2000/svg" height="48" width="48" version="1.1" xmlns:cc="http://creativecommons.org/ns#" xmlns:dc="http://purl.org/dc/elements/1.1/">
<path style="color-rendering:auto;text-decoration-color:#000000;color:#000000;isolation:auto;mix-blend-mode:normal;shape-rendering:auto;solid-color:#000000;block-progression:tb;text-decoration-line:none;image-rendering:auto;white-space:normal;text-indent:0;text-transform:none;text-decoration-style:solid;fill:#000000" d="m19.906 5.0125c-4.752 0.1683-9.421 2.438-12.164 6.7215-6.0021 8.223-1.6462 20.722 8.164 23.428 4.6894 1.6049 9.6082 0.54362 13.4-2.1289l9.1526 9.1546a2.6381 2.6394 0 1 0 3.73 -3.7319l-9.1743-9.1791c1.6973-2.3597 2.7412-5.1646 2.7795-8.2423a2.6381 2.6394 0 0 0 0.06955 -0.5902c0.000042-0.01671-0.0076-0.03227-0.0078-0.04897-0.000661-0.01953 0.0059-0.03716 0.0051-0.0567l-0.01029 0.0232c-0.01-3.434-1.178-6.791-3.31-9.48-3.038-4.1027-7.871-6.0406-12.635-5.8719zm0.19062 5.4124c3.1604-0.11198 6.3666 1.0807 8.2354 3.6289a2.6381 2.6394 0 0 0 0.0644 0.08505c1.3991 1.7548 2.1972 4.0465 2.1922 6.2913-0.000001 0.000843 0.000003 0.0017 0 0.0026a2.6381 2.6394 0 0 0 0.0026 0.10567c0.23975 6.3177-7.0878 11.71-13.042 9.6211a2.6381 2.6394 0 0 0 -0.19124 -0.05674c-6.099-1.639-9.0941-10.231-5.333-15.31a2.6381 2.6394 0 0 0 0.11343 -0.16495c1.684-2.674 4.7969-4.0916 7.9572-4.2035zm-4.8557 7.2732a2.6381 2.6394 0 1 0 -0.01293 5.2784c3.521 0.0095 7.0406 0.0189 10.562 0.02834a2.6381 2.6394 0 1 0 0.01546 -5.2784c-3.521-0.0095-7.0432-0.01886-10.564-0.02834z"/>
</svg>
