<?xml version="1.0" encoding="UTF-8" standalone="no"?>
<svg xmlns:rdf="http://www.w3.org/1999/02/22-rdf-syntax-ns#" xmlns="http://www.w3.org/2000/svg" height="48" width="48" version="1.1" xmlns:cc="http://creativecommons.org/ns#" xmlns:dc="http://purl.org/dc/elements/1.1/" viewBox="0 0 48 48">
<path opacity=".967" style="color-rendering:auto;text-decoration-color:#000000;color:#000000;isolation:auto;mix-blend-mode:normal;shape-rendering:auto;solid-color:#000000;block-progression:tb;text-decoration-line:none;image-rendering:auto;white-space:normal;text-indent:0;text-transform:none;text-decoration-style:solid;fill:#000000" d="m23.996 10.001c-5.5631-0.07638-10.914 3.548-12.961 8.712-2.0968 4.9689-0.93903 11.084 2.8332 14.939 3.6678 3.9488 9.7118 5.402 14.774 3.5522 5.3048-1.8063 9.2008-7.0539 9.3405-12.664 0.284-5.451-2.99-10.842-7.923-13.156-1.883-0.911-3.972-1.3852-6.063-1.382zm6.1286 8.3175c1.0094-0.08165 1.4783 1.3595 0.65444 1.9205-3.0282 3.0087-6.0195 6.0593-9.0709 9.042-0.67724 0.47991-1.4066-0.08552-1.7909-0.65191-0.998-1.1688-2.0957-2.2651-3.0304-3.4801-0.47976-0.91122 0.74184-1.9355 1.5554-1.3041 0.95174 0.96401 1.8119 2.0231 2.7281 3.024 2.801-2.7843 5.5703-5.6043 8.3914-8.3666 0.16503-0.11349 0.36302-0.17811 0.56319-0.18389z" fill-rule="evenodd" fill="#000000"/>
</svg>
