<?xml version="1.0" encoding="UTF-8" standalone="no"?>
<svg xmlns:rdf="http://www.w3.org/1999/02/22-rdf-syntax-ns#" xmlns="http://www.w3.org/2000/svg" height="48" width="48" version="1.1" xmlns:cc="http://creativecommons.org/ns#" xmlns:dc="http://purl.org/dc/elements/1.1/" viewBox="0 0 48 48">
<path style="opacity:0.967;fill-rule:evenodd;fill:#000000" d="m24.059 10.009c-5.6869-0.25313-10.94 3.7559-13.015 8.917-1.3194 3.1001-1.3766 6.6776-0.17852 9.8246 1.9335 6.0024 8.4725 9.74 14.622 9.2022 3.5252-0.2466 6.7921-2.1163 9.1528-4.6849 4.79-5.443 4.47-14.74-1.056-19.566-2.608-2.321-6.017-3.7182-9.525-3.693zm-5.8349 6.9985c1.0774 0.18857 1.6045 1.278 2.4033 1.9204 1.1439 1.1437 2.2878 2.2874 3.4317 3.431 1.7992-1.7337 3.4783-3.6107 5.3562-5.2512 1.471-0.58242 2.2693 1.6618 0.86713 2.3256-1.5275 1.5218-3.051 3.048-4.5759 4.5728 1.7405 1.7941 3.5985 3.4881 5.2629 5.3473 0.62774 1.3913-1.5264 2.3384-2.2275 0.98075-1.5601-1.5606-3.12-3.1222-4.6827-4.6809-1.7942 1.74-3.4891 3.5966-5.348 5.2609-1.3906 0.62902-2.3404-1.5244-0.98239-2.226 1.561-1.561 3.123-3.121 4.683-4.683-1.733-1.785-3.579-3.472-5.237-5.32-0.387-0.727 0.221-1.72 1.049-1.678z"/>
</svg>
