<?xml version="1.0" encoding="UTF-8" standalone="no"?>
<svg xmlns:rdf="http://www.w3.org/1999/02/22-rdf-syntax-ns#" xmlns="http://www.w3.org/2000/svg" fill="#000000" height="48" width="48" version="1.1" xmlns:cc="http://creativecommons.org/ns#" xmlns:dc="http://purl.org/dc/elements/1.1/" viewBox="0 0 24 24">
<path d="m0 0h24v24h-24z" fill="none"/>
<path style="fill:#000000" d="m12 5c-3.864 0-7 3.136-7 7s3.136 7 7 7 7-3.136 7-7-3.136-7-7-7zm0.7 10.5c-0.14286 0.44426-1.2636 0.44629-1.4 0-0.31285-1.0238-0.33968-3.2425 0-4.2 0.15603-0.43981 1.2782-0.45048 1.4 0 0.2583 0.95508 0.32847 3.1786 0 4.2zm0-5.6c-0.32998 0.32998-1.07 0.32998-1.4 0-0.32998-0.32998-0.32998-1.07 0-1.4 0.32998-0.32998 1.07-0.32998 1.4 0 0.32998 0.32998 0.32998 1.07 0 1.4z"/>
</svg>
